<svg width="65" height="65" viewBox="0 0 65 65" fill="none" xmlns="http://www.w3.org/2000/svg">
<rect width="65" height="65" rx="10" fill="#72442F"/>
<g clip-path="url(#clip0_362_339)">
<path d="M34.6367 33C34.6367 34.4561 33.4561 35.6367 32 35.6367C30.5439 35.6367 29.3633 34.4561 29.3633 33C29.3633 31.5439 30.5439 30.3633 32 30.3633C33.4561 30.3633 34.6367 31.5439 34.6367 33Z" fill="white"/>
<path d="M36.4531 25.0312H27.5469C25.6082 25.0312 24.0312 26.6082 24.0312 28.5469V37.4531C24.0312 39.3918 25.6082 40.9688 27.5469 40.9688H36.4531C38.3918 40.9688 39.9688 39.3918 39.9688 37.4531V28.5469C39.9688 26.6082 38.3918 25.0312 36.4531 25.0312ZM32 37.3945C29.5768 37.3945 27.6055 35.4232 27.6055 33C27.6055 30.5768 29.5768 28.6055 32 28.6055C34.4232 28.6055 36.3945 30.5768 36.3945 33C36.3945 35.4232 34.4232 37.3945 32 37.3945ZM37.0391 28.8398C36.5536 28.8398 36.1602 28.4464 36.1602 27.9609C36.1602 27.4755 36.5536 27.082 37.0391 27.082C37.5245 27.082 37.918 27.4755 37.918 27.9609C37.918 28.4464 37.5245 28.8398 37.0391 28.8398Z" fill="white"/>
<path d="M39.0898 18H24.9102C20.5486 18 17 21.5486 17 25.9102V40.0898C17 44.4514 20.5486 48 24.9102 48H39.0898C43.4514 48 47 44.4514 47 40.0898V25.9102C47 21.5486 43.4514 18 39.0898 18ZM41.7266 37.4531C41.7266 40.3608 39.3608 42.7266 36.4531 42.7266H27.5469C24.6392 42.7266 22.2734 40.3608 22.2734 37.4531V28.5469C22.2734 25.6392 24.6392 23.2734 27.5469 23.2734H36.4531C39.3608 23.2734 41.7266 25.6392 41.7266 28.5469V37.4531Z" fill="white"/>
</g>
<defs>
<clipPath id="clip0_362_339">
<rect width="30" height="30" fill="white" transform="translate(17 18)"/>
</clipPath>
</defs>
</svg>
