<svg width="50" height="50" viewBox="0 0 50 50" fill="none" xmlns="http://www.w3.org/2000/svg">
<circle cx="25" cy="25" r="25" fill="#F1EDEB"/>
<path d="M29.8799 18.6429C29.8798 19.7068 29.5642 20.7467 28.973 21.6313C28.3818 22.5158 27.5417 23.2051 26.5587 23.6122C25.5758 24.0192 24.4942 24.1256 23.4508 23.918C22.4073 23.7104 21.4489 23.198 20.6967 22.4456C19.9444 21.6933 19.4322 20.7348 19.2247 19.6913C19.0172 18.6479 19.1237 17.5663 19.5309 16.5834C19.9381 15.6005 20.6276 14.7605 21.5122 14.1694C22.3968 13.5784 23.4368 13.2629 24.5007 13.2629C25.2071 13.2629 25.9067 13.4021 26.5593 13.6725C27.212 13.9429 27.805 14.3392 28.3045 14.8388C28.804 15.3384 29.2003 15.9314 29.4706 16.5842C29.7409 17.2369 29.88 17.9364 29.8799 18.6429ZM24.5007 25.614C22.9773 25.6121 21.4704 25.9279 20.0759 26.541C18.6815 27.1542 17.4301 28.0512 16.4017 29.175C14.5864 31.1529 15.031 34.2993 17.3167 35.7075C19.4779 37.0346 21.9645 37.7372 24.5007 37.7372C27.0368 37.7372 29.5234 37.0346 31.6846 35.7075C33.9703 34.2993 34.4149 31.1529 32.5996 29.175C31.5712 28.0512 30.3198 27.1542 28.9254 26.541C27.5309 25.9279 26.024 25.6121 24.5007 25.614Z" fill="#72442F"/>
</svg>
