<svg width="70" height="70" viewBox="0 0 70 70" fill="none" xmlns="http://www.w3.org/2000/svg">
<circle cx="35" cy="35" r="35" fill="#E3DAD5"/>
<g clip-path="url(#clip0_212_967)">
<path d="M35 20C28.7975 20 23.75 25.0825 23.75 31.3312C23.75 40.21 33.9425 49.3775 34.3763 49.7625C34.555 49.9212 34.7775 50 35 50C35.2225 50 35.445 49.9213 35.6237 49.7638C36.0575 49.3775 46.25 40.21 46.25 31.3312C46.25 25.0825 41.2025 20 35 20ZM35 37.5C31.5538 37.5 28.75 34.6962 28.75 31.25C28.75 27.8038 31.5538 25 35 25C38.4462 25 41.25 27.8038 41.25 31.25C41.25 34.6962 38.4462 37.5 35 37.5Z" fill="#72442F"/>
</g>
<defs>
<clipPath id="clip0_212_967">
<rect width="30" height="30" fill="white" transform="translate(20 20)"/>
</clipPath>
</defs>
</svg>
