<svg width="60" height="60" viewBox="0 0 60 60" fill="none" xmlns="http://www.w3.org/2000/svg">
<circle cx="30" cy="30" r="30" fill="#72442F" fill-opacity="0.1"/>
<path d="M39.3382 31.2115C39.3582 30.9808 39.3782 30.75 39.3782 30.5C39.3782 30.25 39.3582 30.0192 39.3382 29.7885L40.9979 28.6154C41.9977 27.9038 42.2976 26.5769 41.6777 25.5385L40.198 23C39.5781 21.9231 38.2184 21.5 37.0786 22.0192L35.239 22.8462C34.8591 22.5962 34.4991 22.3846 34.0992 22.1923L33.8992 20.1346C33.7793 18.9231 32.7395 18 31.4797 18H28.5203C27.2605 18 26.2207 18.9231 26.1008 20.1346L25.9008 22.1923C25.5009 22.3846 25.1409 22.5962 24.761 22.8462L22.9214 22.0192C21.7816 21.5 20.4219 21.9423 19.802 23L18.3223 25.5385C17.7024 26.5769 18.0023 27.9038 19.0021 28.6154L20.6618 29.7885C20.6418 30.0192 20.6218 30.25 20.6218 30.5C20.6218 30.75 20.6418 30.9808 20.6618 31.2115L19.0021 32.3846C18.0023 33.0962 17.7024 34.4231 18.3223 35.4615L19.802 38C20.4219 39.0577 21.7816 39.5 22.9214 38.9808L24.761 38.1538C25.1409 38.4038 25.5009 38.6154 25.9008 38.8077L26.1008 40.8654C26.2207 42.0769 27.2605 43 28.5203 43H31.4797C32.7395 43 33.7793 42.0769 33.8992 40.8654L34.0992 38.8077C34.4991 38.6154 34.8591 38.4038 35.239 38.1538L37.0786 38.9808C38.2184 39.5 39.5781 39.0769 40.198 38L41.6777 35.4615C42.2976 34.4231 41.9977 33.0962 40.9979 32.3846L39.3382 31.2115ZM34.999 30.5C34.999 33.1538 32.7595 35.3077 30 35.3077C27.2405 35.3077 25.001 33.1538 25.001 30.5C25.001 27.8462 27.2405 25.6923 30 25.6923C32.7595 25.6923 34.999 27.8462 34.999 30.5Z" fill="#72442F"/>
</svg>
