<svg width="70" height="70" viewBox="0 0 70 70" fill="none" xmlns="http://www.w3.org/2000/svg">
<circle cx="35" cy="35" r="35" fill="#E3DAD5"/>
<g clip-path="url(#clip0_212_969)">
<path d="M42.2871 39.5225C41.3724 38.6194 40.2304 38.6194 39.3214 39.5225C38.6281 40.2101 37.9347 40.8976 37.253 41.5968C37.0666 41.7891 36.9093 41.8298 36.682 41.7017C36.2334 41.457 35.7556 41.2589 35.3244 40.9908C33.3143 39.7265 31.6304 38.1009 30.1388 36.2713C29.3989 35.3624 28.7405 34.3894 28.2802 33.294C28.1869 33.0726 28.2044 32.9269 28.385 32.7463C29.0784 32.0762 29.7543 31.3887 30.436 30.7012C31.3857 29.7456 31.3857 28.6269 30.4301 27.6655C29.8883 27.1178 29.3464 26.5818 28.8045 26.0341C28.2452 25.4748 27.6917 24.9096 27.1265 24.3561C26.2117 23.4646 25.0697 23.4646 24.1608 24.3619C23.4616 25.0494 22.7916 25.7544 22.0807 26.4303C21.4223 27.0538 21.0902 27.817 21.0203 28.7085C20.9096 30.1593 21.265 31.5285 21.7661 32.8628C22.7916 35.6246 24.3531 38.0776 26.2467 40.3266C28.8045 43.3681 31.8576 45.7744 35.4293 47.5107C37.0374 48.2915 38.7038 48.8916 40.5159 48.9907C41.7628 49.0606 42.8465 48.7459 43.7146 47.7729C44.309 47.1087 44.979 46.5027 45.6083 45.8676C46.5405 44.9237 46.5463 43.7817 45.6199 42.8495C44.5129 41.7366 43.4 40.6296 42.2871 39.5225Z" fill="#72442F"/>
<path d="M41.1744 34.8788L43.3244 34.5117C42.9864 32.5365 42.0542 30.7478 40.6383 29.3261C39.1409 27.8287 37.2473 26.8848 35.1614 26.5935L34.8584 28.7551C36.4723 28.9824 37.9406 29.7107 39.1001 30.8702C40.1955 31.9655 40.9122 33.3523 41.1744 34.8788Z" fill="#72442F"/>
<path d="M44.5359 25.533C42.0538 23.0509 38.9133 21.4836 35.4465 21L35.1436 23.1616C38.1384 23.5812 40.8536 24.9387 42.9977 27.0771C45.0312 29.1105 46.3655 31.68 46.8491 34.5059L48.9991 34.1388C48.4339 30.8643 46.8899 27.8928 44.5359 25.533Z" fill="#72442F"/>
</g>
<defs>
<clipPath id="clip0_212_969">
<rect width="28" height="28" fill="white" transform="translate(21 21)"/>
</clipPath>
</defs>
</svg>
