<svg width="30" height="27" viewBox="0 0 30 27" fill="none" xmlns="http://www.w3.org/2000/svg">
<path d="M28.9159 4.33685H26.7474V2.16844C26.7474 1.88089 26.6332 1.60511 26.4299 1.40179C26.2266 1.19846 25.9508 1.08423 25.6632 1.08423C25.3757 1.08423 25.0999 1.19846 24.8966 1.40179C24.6933 1.60511 24.579 1.88089 24.579 2.16844V4.33685H22.4106C22.1231 4.33685 21.8473 4.45108 21.644 4.65441C21.4406 4.85773 21.3264 5.13351 21.3264 5.42106C21.3264 5.7086 21.4406 5.98438 21.644 6.18771C21.8473 6.39103 22.1231 6.50526 22.4106 6.50526H24.579V8.67368C24.579 8.96123 24.6933 9.237 24.8966 9.44032C25.0999 9.64365 25.3757 9.75788 25.6632 9.75788C25.9508 9.75788 26.2266 9.64365 26.4299 9.44032C26.6332 9.237 26.7474 8.96123 26.7474 8.67368V6.50526H28.9159C29.2034 6.50526 29.4792 6.39103 29.6825 6.18771C29.8858 5.98438 30.0001 5.7086 30.0001 5.42106C30.0001 5.13351 29.8858 4.85773 29.6825 4.65441C29.4792 4.45108 29.2034 4.33685 28.9159 4.33685Z" fill="white"/>
<path d="M27.94 13.0105C27.6812 13.0105 27.431 13.1031 27.2346 13.2716C27.0381 13.44 26.9084 13.6731 26.8688 13.9288L26.5956 15.6776C26.482 16.4462 26.0948 17.1479 25.5052 17.6539C24.9156 18.1598 24.1632 18.4359 23.3863 18.4315H13.4767C12.6998 18.4359 11.9474 18.1598 11.3578 17.6539C10.7682 17.1479 10.381 16.4462 10.2674 15.6776L8.85797 6.50524H16.9895C17.2771 6.50524 17.5528 6.39101 17.7562 6.18768C17.9595 5.98435 18.0737 5.70858 18.0737 5.42103C18.0737 5.13348 17.9595 4.85771 17.7562 4.65438C17.5528 4.45106 17.2771 4.33683 16.9895 4.33683H8.43513L7.97109 2.46765C7.79583 1.76292 7.38978 1.13711 6.81761 0.689903C6.24544 0.242701 5.54008 -0.000162862 4.81388 8.19387e-08H1.08421C0.796657 8.19387e-08 0.520885 0.114229 0.317557 0.317557C0.114229 0.520885 0 0.796657 0 1.08421C0 1.37176 0.114229 1.64753 0.317557 1.85086C0.520885 2.05418 0.796657 2.16841 1.08421 2.16841H4.81388C5.05601 2.1686 5.29112 2.24984 5.48172 2.39917C5.67232 2.54851 5.80745 2.75735 5.86556 2.99241L8.12071 16.0029C8.23686 16.785 8.52455 17.5318 8.96316 18.1897C9.40177 18.8476 9.98045 19.4004 10.6578 19.8085C10.2673 20.2627 9.99232 20.8044 9.85604 21.3877C9.71976 21.9709 9.72625 22.5785 9.87495 23.1587C10.1029 24.0547 10.65 24.8366 11.4137 25.3578C12.1774 25.8789 13.105 26.1033 14.0225 25.9888C14.9399 25.8743 15.7839 25.4288 16.3962 24.736C17.0084 24.0432 17.3466 23.1508 17.3473 22.2262C17.3451 21.6624 17.2154 21.1065 16.9678 20.5999H19.8952C19.5189 21.3659 19.4186 22.2383 19.6111 23.0697C19.7343 23.6325 19.984 24.1598 20.3413 24.6117C20.6986 25.0636 21.1541 25.4282 21.6733 25.6779C22.1924 25.9276 22.7616 26.0558 23.3377 26.0529C23.9137 26.0499 24.4816 25.9158 24.9981 25.6607C25.5146 25.4057 25.9663 25.0364 26.3189 24.5808C26.6715 24.1252 26.9158 23.5954 27.0332 23.0314C27.1505 22.4674 27.138 21.8841 26.9964 21.3257C26.8549 20.7673 26.588 20.2484 26.2161 19.8085C26.8905 19.3982 27.4664 18.8446 27.903 18.187C28.3395 17.5293 28.6261 16.7837 28.7423 16.0029L29.0079 14.2573C29.0313 14.1033 29.0212 13.946 28.9783 13.7963C28.9355 13.6465 28.8608 13.5077 28.7595 13.3894C28.6581 13.2711 28.5325 13.176 28.391 13.1106C28.2496 13.0452 28.0958 13.0111 27.94 13.0105ZM13.5526 23.8525C13.2309 23.8525 12.9165 23.7572 12.6491 23.5785C12.3816 23.3998 12.1732 23.1458 12.0501 22.8486C11.927 22.5514 11.8948 22.2244 11.9575 21.909C12.0203 21.5935 12.1752 21.3037 12.4026 21.0763C12.6301 20.8488 12.9198 20.6939 13.2353 20.6312C13.5508 20.5684 13.8778 20.6006 14.1749 20.7237C14.4721 20.8468 14.7261 21.0553 14.9048 21.3227C15.0835 21.5902 15.1789 21.9046 15.1789 22.2262C15.1789 22.6576 15.0076 23.0712 14.7026 23.3762C14.3976 23.6812 13.9839 23.8525 13.5526 23.8525ZM23.3104 23.8525C22.9888 23.8525 22.6744 23.7572 22.4069 23.5785C22.1395 23.3998 21.931 23.1458 21.8079 22.8486C21.6848 22.5514 21.6526 22.2244 21.7154 21.909C21.7781 21.5935 21.933 21.3037 22.1605 21.0763C22.3879 20.8488 22.6777 20.6939 22.9932 20.6312C23.3086 20.5684 23.6356 20.6006 23.9328 20.7237C24.23 20.8468 24.484 21.0553 24.6627 21.3227C24.8414 21.5902 24.9368 21.9046 24.9368 22.2262C24.9368 22.6576 24.7654 23.0712 24.4604 23.3762C24.1554 23.6812 23.7418 23.8525 23.3104 23.8525Z" fill="white"/>
</svg>
