<svg width="30" height="28" viewBox="0 0 30 28" fill="none" xmlns="http://www.w3.org/2000/svg">
<path d="M11.7295 27.8241C10.0823 27.8241 8.74219 26.4839 8.74219 24.8367C8.74219 23.1895 10.0823 21.8499 11.7295 21.8499C13.3767 21.8499 14.7169 23.1895 14.7169 24.8367C14.7169 26.4839 13.3767 27.8241 11.7295 27.8241ZM11.7295 23.7249C11.1164 23.7249 10.6172 24.2236 10.6172 24.8367C10.6172 25.4503 11.1159 25.9491 11.7295 25.9491C12.3431 25.9491 12.8419 25.4503 12.8419 24.8367C12.8419 24.2236 12.3431 23.7249 11.7295 23.7249Z" fill="black"/>
<path d="M22.1138 27.8241C20.4666 27.8241 19.127 26.4839 19.127 24.8367C19.127 23.1895 20.4666 21.8499 22.1138 21.8499C23.761 21.8499 25.1012 23.1895 25.1012 24.8367C25.1012 26.4839 23.7605 27.8241 22.1138 27.8241ZM22.1138 23.7249C21.5007 23.7249 21.002 24.2236 21.002 24.8367C21.002 25.4503 21.5007 25.9491 22.1138 25.9491C22.7274 25.9491 23.2262 25.4503 23.2262 24.8367C23.2262 24.2236 22.727 23.7249 22.1138 23.7249Z" fill="black"/>
<path d="M24.3019 19.5342H9.57422C8.14125 19.5342 6.91734 18.5587 6.59765 17.1619L3.54094 3.81328C3.50062 3.63703 3.37875 3.48609 3.21469 3.41015L0.679217 2.235C0.0923421 1.96312 -0.163127 1.26656 0.108748 0.679217C0.380623 0.0923421 1.07765 -0.163127 1.66453 0.108748L4.2 1.2839C5.01703 1.66219 5.625 2.41219 5.82562 3.29015L8.88234 16.6397C8.9564 16.9641 9.24094 17.1909 9.57422 17.1909H24.3019C24.6337 17.1909 24.9178 16.9655 24.9937 16.642L27.3703 6.41719C27.4383 6.12656 27.3145 5.91515 27.2353 5.81531C27.1556 5.715 26.9775 5.54719 26.6794 5.54719H9.33562C8.68828 5.54719 8.16375 5.02265 8.16375 4.37531C8.16375 3.72797 8.68828 3.20344 9.33562 3.20344H26.6794C27.6164 3.20344 28.4873 3.6239 29.0705 4.3575C29.6536 5.09109 29.8655 6.03515 29.6536 6.94781L27.2766 17.1731C26.9527 18.563 25.7297 19.5342 24.3019 19.5342Z" fill="black"/>
</svg>
