<svg width="17" height="17" viewBox="0 0 17 17" fill="none" xmlns="http://www.w3.org/2000/svg">
<g clip-path="url(#clip0_248_1373)">
<path fill-rule="evenodd" clip-rule="evenodd" d="M8.5 0C3.81172 0 0 3.81172 0 8.5C0 13.1883 3.81172 17 8.5 17C13.1883 17 17 13.1883 17 8.5C17 3.81172 13.1883 0 8.5 0Z" fill="#4BAE4F"/>
<path d="M6.86309 12.3881C5.77734 11.3023 4.69824 10.2066 3.60918 9.12089C3.48965 9.00136 3.48965 8.80214 3.60918 8.6826L4.86094 7.43085C4.98047 7.31132 5.17969 7.31132 5.29922 7.43085L7.08887 9.2205L11.6908 4.61522C11.8137 4.49569 12.0096 4.49569 12.1324 4.61522L13.3875 5.8703C13.5104 5.99315 13.5104 6.18905 13.3875 6.30858L7.30137 12.3881C7.18184 12.5109 6.98594 12.5109 6.86309 12.3881Z" fill="white"/>
</g>
<defs>
<clipPath id="clip0_248_1373">
<rect width="17" height="17" fill="white"/>
</clipPath>
</defs>
</svg>
