<svg width="20" height="24" viewBox="0 0 20 24" fill="none" xmlns="http://www.w3.org/2000/svg">
<path d="M8.41777 0C7.99242 0.00153835 7.65014 0.346897 7.65168 0.772251C7.65168 2.06293 7.20325 2.81979 6.62406 3.78742C6.30716 4.31661 5.7995 5.1927 5.5826 5.86496C5.35492 5.40653 5.22416 5.06732 5.02187 4.33276C4.85803 3.7228 4.06809 3.55974 3.67581 4.05509C0.789871 7.64944 -0.0577572 10.3446 0.00300753 13.0706C0.124537 18.5617 4.48883 23.0537 10.0023 23.0537C15.5157 23.0537 20 18.5679 20 13.0544C20 11.6384 19.6723 9.79928 18.9947 8.07018C18.317 6.34108 17.2956 4.69889 15.7303 3.86203C15.2888 3.62743 14.7435 3.87048 14.6235 4.3566C14.4727 4.97425 14.4173 5.16424 14.2373 5.68727C14.0166 4.68581 13.6628 3.72588 13.0851 2.7998C12.1167 1.24453 10.5199 0 8.41777 0ZM7.43092 10.1693C8.0678 10.1693 8.58468 10.6861 8.58468 11.323C8.58468 11.9599 8.0678 12.4768 7.43092 12.4768C6.79405 12.4768 6.27716 11.9599 6.27716 11.323C6.27716 10.6861 6.79405 10.1693 7.43092 10.1693ZM12.889 10.1769C13.0913 10.1546 13.302 10.2062 13.4597 10.3631C13.7781 10.6423 13.8112 11.1261 13.5336 11.4461L7.62322 18.1748C7.34401 18.4948 6.85866 18.5271 6.53868 18.2487C6.21793 17.9671 6.18717 17.4779 6.47099 17.1595L12.3752 10.4308C12.4936 10.2954 12.6867 10.1993 12.889 10.1769ZM12.569 16.1304C13.2059 16.1304 13.7228 16.6472 13.7228 17.2841C13.7228 17.921 13.2059 18.4379 12.569 18.4379C11.9321 18.4379 11.4152 17.921 11.4152 17.2841C11.4152 16.6472 11.9314 16.1304 12.569 16.1304Z" fill="white"/>
</svg>
