<svg width="60" height="60" viewBox="0 0 60 60" fill="none" xmlns="http://www.w3.org/2000/svg">
<circle cx="30" cy="30" r="30" fill="#72442F" fill-opacity="0.1"/>
<g clip-path="url(#clip0_2377_62)">
<path d="M30.1093 38.1446C30.1095 36.6449 30.5467 35.1777 31.3677 33.9226C32.1886 32.6675 33.3575 31.6789 34.7315 31.0777C36.1054 30.4765 37.6248 30.2888 39.1038 30.5376C40.5827 30.7864 41.9571 31.4608 43.0587 32.4784C43.0952 29.8421 43.0733 27.2058 42.9931 24.5695C42.9494 22.7583 41.9267 20.9399 40.2133 20.0414C39.3329 19.576 38.4207 19.1281 37.4981 18.7037C33.8526 19.8828 29.5832 21.4381 25.2771 23.3637C24.8631 23.5467 24.5084 23.8417 24.253 24.2154C23.9977 24.5891 23.8517 25.0268 23.8317 25.479C23.7644 27.5571 23.7437 29.7019 23.771 31.8227C23.7732 31.8849 23.7554 31.9462 23.7202 31.9975C23.685 32.0489 23.6343 32.0875 23.5755 32.1079C23.5167 32.1283 23.4529 32.1293 23.3935 32.1107C23.3341 32.0922 23.2822 32.0551 23.2454 32.0048C22.7897 31.4215 22.3446 30.8447 21.91 30.2745C21.8779 30.2299 21.8302 30.1991 21.7764 30.188C21.7226 30.177 21.6666 30.1866 21.6196 30.2149C21.2816 30.4162 20.9497 30.6147 20.6237 30.8105C20.4411 30.9198 20.2163 30.7738 20.2152 30.549C20.2043 28.4365 20.2568 26.3184 20.37 24.2655C20.4176 23.3998 20.9606 22.5844 21.764 22.1873C25.894 20.1475 30.3001 18.4812 34.0599 17.248C33.1849 16.9056 32.3148 16.5917 31.4655 16.2942C30.3204 15.901 29.0768 15.901 27.9316 16.2942C25.0977 17.272 22.0029 18.5484 19.1833 20.0414C17.4704 20.9399 16.4489 22.7583 16.4035 24.5695C16.2919 28.1898 16.2919 31.8101 16.4035 35.4305C16.4472 37.2417 17.4704 39.0601 19.1833 39.9586C22.0029 41.4515 25.0977 42.728 27.9333 43.7052C29.0784 44.0984 30.322 44.0984 31.4672 43.7052C31.7147 43.6199 31.9646 43.5319 32.2169 43.4411C30.8592 42.0125 30.1043 40.1155 30.1093 38.1446Z" fill="#72442F"/>
<path d="M37.8241 32.2898C36.666 32.2899 35.534 32.6334 34.5711 33.2769C33.6082 33.9204 32.8578 34.8349 32.4147 35.9049C31.9717 36.9749 31.8558 38.1522 32.0819 39.288C32.3079 40.4238 32.8657 41.4671 33.6846 42.2859C34.5036 43.1047 35.547 43.6623 36.6828 43.8881C37.8187 44.114 38.996 43.9979 40.0659 43.5546C41.1358 43.1113 42.0502 42.3608 42.6935 41.3978C43.3368 40.4348 43.6801 39.3027 43.68 38.1446C43.6799 37.3757 43.5284 36.6143 43.2341 35.9039C42.9398 35.1935 42.5084 34.5481 41.9646 34.0044C41.4209 33.4607 40.7753 33.0295 40.0649 32.7353C39.3545 32.4411 38.593 32.2897 37.8241 32.2898ZM41.1639 37.1755L37.6442 40.8713C37.5484 40.9721 37.4332 41.0524 37.3056 41.1075C37.178 41.1626 37.0405 41.1912 36.9015 41.1918H36.8966C36.7584 41.1917 36.6216 41.164 36.4944 41.1101C36.3671 41.0563 36.2519 40.9775 36.1556 40.8784L34.288 38.9545C34.0973 38.758 33.9924 38.4938 33.9965 38.2199C34.0006 37.9461 34.1133 37.6851 34.3099 37.4944C34.5064 37.3036 34.7706 37.1988 35.0445 37.2029C35.3183 37.207 35.5793 37.3197 35.77 37.5162L36.8906 38.6696L39.6692 35.7515C39.8603 35.5643 40.1166 35.4585 40.3841 35.4565C40.6515 35.4545 40.9094 35.5564 41.1032 35.7407C41.2971 35.925 41.4119 36.1773 41.4234 36.4445C41.4349 36.7118 41.3422 36.9731 41.1649 37.1734L41.1639 37.1755Z" fill="#72442F"/>
</g>
<defs>
<clipPath id="clip0_2377_62">
<rect width="28" height="28" fill="white" transform="translate(16 16)"/>
</clipPath>
</defs>
</svg>
