<svg width="23" height="23" viewBox="0 0 23 23" fill="none" xmlns="http://www.w3.org/2000/svg">
<path d="M16.2923 4.79169C16.2923 4.22307 16.4609 3.66721 16.7769 3.19442C17.0928 2.72163 17.5418 2.35314 18.0671 2.13553C18.5925 1.91793 19.1705 1.861 19.7282 1.97193C20.2859 2.08286 20.7982 2.35668 21.2003 2.75876C21.6023 3.16083 21.8762 3.67311 21.9871 4.2308C22.098 4.7885 22.0411 5.36656 21.8235 5.8919C21.6059 6.41724 21.2374 6.86625 20.7646 7.18216C20.2918 7.49807 19.736 7.66668 19.1673 7.66668C18.4048 7.66668 17.6736 7.36378 17.1344 6.82462C16.5952 6.28545 16.2923 5.55418 16.2923 4.79169ZM1.91732 5.75002H13.4173C13.6715 5.75002 13.9152 5.64905 14.095 5.46933C14.2747 5.28961 14.3757 5.04585 14.3757 4.79169C14.3757 4.53752 14.2747 4.29377 14.095 4.11404C13.9152 3.93432 13.6715 3.83335 13.4173 3.83335H1.91732C1.66315 3.83335 1.4194 3.93432 1.23967 4.11404C1.05995 4.29377 0.958984 4.53752 0.958984 4.79169C0.958984 5.04585 1.05995 5.28961 1.23967 5.46933C1.4194 5.64905 1.66315 5.75002 1.91732 5.75002ZM7.66732 8.62502C7.07417 8.62668 6.49605 8.81178 6.01222 9.15492C5.52839 9.49806 5.16254 9.98245 4.96482 10.5417H1.91732C1.66315 10.5417 1.4194 10.6426 1.23967 10.8224C1.05995 11.0021 0.958984 11.2458 0.958984 11.5C0.958984 11.7542 1.05995 11.9979 1.23967 12.1777C1.4194 12.3574 1.66315 12.4583 1.91732 12.4583H4.96482C5.14063 12.9556 5.44984 13.3949 5.85861 13.7282C6.26737 14.0615 6.75995 14.2759 7.28242 14.348C7.80489 14.4201 8.33713 14.3471 8.82088 14.1369C9.30463 13.9268 9.72125 13.5876 10.0252 13.1566C10.3291 12.7255 10.5085 12.2192 10.5439 11.6929C10.5793 11.1667 10.4693 10.6409 10.2258 10.173C9.98238 9.70511 9.61492 9.31322 9.16366 9.04019C8.71241 8.76717 8.19474 8.62354 7.66732 8.62502ZM21.084 10.5417H13.4173C13.1632 10.5417 12.9194 10.6426 12.7397 10.8224C12.56 11.0021 12.459 11.2458 12.459 11.5C12.459 11.7542 12.56 11.9979 12.7397 12.1777C12.9194 12.3574 13.1632 12.4583 13.4173 12.4583H21.084C21.3382 12.4583 21.5819 12.3574 21.7616 12.1777C21.9414 11.9979 22.0423 11.7542 22.0423 11.5C22.0423 11.2458 21.9414 11.0021 21.7616 10.8224C21.5819 10.6426 21.3382 10.5417 21.084 10.5417ZM9.58399 17.25H1.91732C1.66315 17.25 1.4194 17.351 1.23967 17.5307C1.05995 17.7104 0.958984 17.9542 0.958984 18.2083C0.958984 18.4625 1.05995 18.7063 1.23967 18.886C1.4194 19.0657 1.66315 19.1667 1.91732 19.1667H9.58399C9.83816 19.1667 10.0819 19.0657 10.2616 18.886C10.4414 18.7063 10.5423 18.4625 10.5423 18.2083C10.5423 17.9542 10.4414 17.7104 10.2616 17.5307C10.0819 17.351 9.83816 17.25 9.58399 17.25ZM21.084 17.25H18.0365C17.8104 16.6106 17.3656 16.0717 16.7806 15.7285C16.1956 15.3854 15.5082 15.2601 14.8397 15.3748C14.1713 15.4894 13.5649 15.8367 13.1278 16.3553C12.6907 16.8738 12.4509 17.5301 12.4509 18.2083C12.4509 18.8865 12.6907 19.5429 13.1278 20.0614C13.5649 20.58 14.1713 20.9273 14.8397 21.0419C15.5082 21.1566 16.1956 21.0313 16.7806 20.6882C17.3656 20.345 17.8104 19.8061 18.0365 19.1667H21.084C21.3382 19.1667 21.5819 19.0657 21.7616 18.886C21.9414 18.7063 22.0423 18.4625 22.0423 18.2083C22.0423 17.9542 21.9414 17.7104 21.7616 17.5307C21.5819 17.351 21.3382 17.25 21.084 17.25Z" fill="black"/>
</svg>
