<svg width="70" height="70" viewBox="0 0 70 70" fill="none" xmlns="http://www.w3.org/2000/svg">
<circle cx="35" cy="35" r="35" fill="#E3DAD5"/>
<g clip-path="url(#clip0_212_968)">
<path d="M31.2498 44.9105C32.4306 43.8097 32.6125 42.0854 31.6559 41.0592C30.6993 40.0331 28.9666 40.0936 27.7857 41.1944C26.6048 42.2952 26.4229 44.0195 27.3795 45.0457C28.3361 46.0718 30.0689 46.0113 31.2498 44.9105Z" fill="#72442F"/>
<path d="M46.8748 44.9117C48.0556 43.8108 48.2375 42.0866 47.2809 41.0604C46.3243 40.0342 44.5916 40.0948 43.4107 41.1956C42.2298 42.2964 42.0479 44.0207 43.0045 45.0468C43.9611 46.073 45.6939 46.0125 46.8748 44.9117Z" fill="#72442F"/>
<path d="M18.8585 31.4376C18.8585 30.7561 18.306 30.2037 17.6246 30.2037C16.9431 30.2037 16.3906 30.7561 16.3906 31.4376C16.3906 32.1191 16.9431 32.6715 17.6246 32.6715C18.306 32.6715 18.8585 32.1191 18.8585 31.4376Z" fill="#72442F"/>
<path d="M41.0384 42.7945C41.477 40.6265 43.525 38.9037 45.7262 38.9037C47.8458 38.9037 49.3735 40.5015 49.3316 42.556C51.6238 42.616 52.2619 39.5975 52.2619 39.5975C52.4549 38.7534 52.7432 37.1079 52.9846 35.4928C53.0637 34.9941 53.0029 34.4833 52.809 34.0171C52.2098 32.6184 51.4856 31.2765 50.6454 30.0078C49.8504 28.8219 48.5171 28.1195 46.9952 28.0942C46.0876 28.0798 45.1965 28.0711 44.5237 28.0711L44.5179 28.0653C44.4312 26.6142 43.3733 25.5028 41.8882 25.3698C40.922 25.2838 37.0948 25.2209 35.2578 25.2209C34.5279 25.2209 33.4808 25.2311 32.4214 25.2484V25.2441H32.4127H19.6752C19.5131 25.244 19.3525 25.2758 19.2027 25.3378C19.0529 25.3998 18.9168 25.4907 18.8022 25.6054C18.6876 25.72 18.5967 25.8561 18.5347 26.0059C18.4727 26.1557 18.4408 26.3163 18.4409 26.4784V26.4842C18.4409 26.81 18.5703 27.1225 18.8007 27.3528C19.0311 27.5832 19.3436 27.7127 19.6694 27.7127H22.237C22.5462 27.7355 22.8353 27.8743 23.0464 28.1013C23.2575 28.3284 23.3749 28.6268 23.3752 28.9368V28.9433C23.3757 29.1056 23.3441 29.2664 23.2824 29.4165C23.2207 29.5665 23.13 29.703 23.0155 29.818C22.901 29.9329 22.7649 30.0242 22.6151 30.0865C22.4653 30.1489 22.3046 30.1811 22.1423 30.1813H20.8257C20.4985 30.1813 20.1847 30.3112 19.9534 30.5426C19.7221 30.7739 19.5921 31.0877 19.5921 31.4148C19.592 31.5769 19.6238 31.7374 19.6858 31.8871C19.7477 32.0369 19.8386 32.1729 19.9531 32.2876C20.0677 32.4022 20.2037 32.4931 20.3534 32.5552C20.5031 32.6172 20.6636 32.6491 20.8257 32.6491H22.1423C22.4697 32.6491 22.7836 32.7792 23.0151 33.0106C23.2466 33.2421 23.3766 33.5561 23.3766 33.8834C23.3766 34.2108 23.2466 34.5247 23.0151 34.7562C22.7836 34.9877 22.4697 35.1177 22.1423 35.1177H17.2167C16.8895 35.1177 16.5756 35.2477 16.3442 35.479C16.1127 35.7103 15.9826 36.0241 15.9824 36.3513C15.9824 36.6787 16.1125 36.9926 16.3439 37.2241C16.5754 37.4556 16.8894 37.5856 17.2167 37.5856H22.1423C22.4697 37.5856 22.7836 37.7156 23.0151 37.9471C23.2466 38.1786 23.3766 38.4925 23.3766 38.8199C23.3763 39.147 23.246 39.4606 23.0146 39.6917C22.7832 39.9229 22.4694 40.0527 22.1423 40.0527H20.619C20.2918 40.0527 19.9781 40.1827 19.7467 40.414C19.5154 40.6454 19.3854 40.9592 19.3854 41.2863C19.3854 41.6135 19.5154 41.9274 19.7467 42.1588C19.978 42.3903 20.2918 42.5204 20.619 42.5206L25.4796 42.517L25.8835 41.5103C26.711 39.9841 28.3572 38.903 30.1002 38.903C32.3022 38.903 33.866 40.6273 33.694 42.7967H41.0376M28.7958 30.7558H27.1395C27.1379 30.7559 27.1365 30.7565 27.1353 30.7576C27.1341 30.7586 27.1333 30.76 27.133 30.7616L26.9805 31.8455C26.9803 31.8464 26.9803 31.8473 26.9805 31.8482C26.9807 31.8491 26.981 31.8499 26.9816 31.8506C26.9822 31.8513 26.9829 31.8519 26.9837 31.8522C26.9845 31.8526 26.9854 31.8528 26.9863 31.8528H28.2192C28.2797 31.851 28.3398 31.8629 28.3952 31.8873C28.4506 31.9118 28.4998 31.9483 28.5392 31.9942C28.5787 32.0401 28.6074 32.0943 28.6233 32.1527C28.6392 32.2111 28.6419 32.2723 28.6311 32.3319C28.6099 32.4628 28.5438 32.5823 28.4441 32.6698C28.3444 32.7572 28.2173 32.8072 28.0847 32.811H26.8504C26.8489 32.811 26.8475 32.8115 26.8463 32.8124C26.8451 32.8133 26.8443 32.8146 26.8439 32.8161L26.6228 34.3907C26.6017 34.5217 26.5356 34.6411 26.4359 34.7286C26.3361 34.816 26.2091 34.866 26.0765 34.8699C26.016 34.8716 25.9559 34.8598 25.9005 34.8353C25.8452 34.8108 25.796 34.7743 25.7566 34.7284C25.7172 34.6825 25.6885 34.6283 25.6727 34.5699C25.6569 34.5115 25.6544 34.4503 25.6653 34.3907L26.2391 30.3063C26.2618 30.168 26.3319 30.0419 26.4374 29.9496C26.5429 29.8573 26.6771 29.8046 26.8172 29.8004H28.9295C28.99 29.7987 29.0501 29.8105 29.1055 29.8349C29.1608 29.8594 29.21 29.896 29.2494 29.9419C29.2888 29.9878 29.3175 30.042 29.3333 30.1004C29.3491 30.1588 29.3516 30.22 29.3407 30.2795C29.3193 30.4098 29.2532 30.5286 29.1538 30.6155C29.0544 30.7024 28.9278 30.752 28.7958 30.7558ZM33.2228 30.1256C33.3949 30.2783 33.516 30.4801 33.5697 30.7037C33.6298 30.9571 33.6396 31.2198 33.5986 31.477C33.5484 31.8771 33.3846 32.2545 33.1267 32.5646C32.9692 32.7508 32.7692 32.8963 32.5435 32.9888C32.5425 32.9899 32.542 32.9913 32.542 32.9928C32.542 32.9942 32.5425 32.9957 32.5435 32.9967L32.954 34.1812C33.0646 34.4991 32.7806 34.8699 32.4272 34.8699H32.4041C32.3183 34.8724 32.234 34.8475 32.1633 34.7989C32.0927 34.7504 32.0393 34.6805 32.0109 34.5996L31.5145 33.1543C31.5138 33.1532 31.5128 33.1523 31.5117 33.1517C31.5105 33.151 31.5093 33.1507 31.508 33.1507H30.4529C30.4514 33.1507 30.45 33.1513 30.4488 33.1522C30.4477 33.1531 30.4468 33.1543 30.4464 33.1557L30.2729 34.39C30.2518 34.5209 30.1857 34.6404 30.086 34.7279C29.9863 34.8153 29.8592 34.8653 29.7266 34.8691C29.6661 34.8709 29.606 34.8591 29.5507 34.8346C29.4953 34.8101 29.4461 34.7736 29.4067 34.7277C29.3673 34.6817 29.3387 34.6276 29.3229 34.5692C29.3071 34.5107 29.3045 34.4495 29.3154 34.39L29.8892 30.3056C29.912 30.1673 29.9821 30.0412 30.0875 29.9489C30.193 29.8566 30.3273 29.8039 30.4673 29.7997H32.1005C32.1005 29.7997 32.8174 29.7773 33.2228 30.1256ZM37.7178 30.2456C37.6981 30.3679 37.6364 30.4795 37.5433 30.5612C37.4501 30.6428 37.3314 30.6894 37.2076 30.6929H35.3077C35.3062 30.693 35.3048 30.6935 35.3037 30.6944C35.3025 30.6953 35.3016 30.6966 35.3012 30.698L35.1502 31.7704C35.1499 31.7713 35.1499 31.7722 35.1501 31.773C35.1503 31.7739 35.1507 31.7747 35.1512 31.7754C35.1518 31.7761 35.1525 31.7767 35.1533 31.7771C35.1541 31.7775 35.155 31.7776 35.1559 31.7776H36.6316C36.6881 31.7759 36.7443 31.7869 36.796 31.8097C36.8477 31.8326 36.8937 31.8667 36.9305 31.9095C36.9674 31.9524 36.9942 32.003 37.009 32.0576C37.0238 32.1121 37.0262 32.1693 37.0161 32.2249C36.9964 32.3472 36.9347 32.4589 36.8416 32.5405C36.7484 32.6222 36.6297 32.6688 36.5059 32.6723H35.0295C35.028 32.6723 35.0266 32.6729 35.0254 32.6738C35.0243 32.6747 35.0234 32.6759 35.023 32.6773L34.8416 33.968C34.8416 33.9698 34.8422 33.9715 34.8434 33.9728C34.8446 33.9742 34.8463 33.975 34.8481 33.9752H36.7465C36.803 33.9735 36.8592 33.9845 36.9109 34.0073C36.9626 34.0302 37.0086 34.0643 37.0455 34.1071C37.0823 34.15 37.1091 34.2006 37.1239 34.2552C37.1387 34.3097 37.1411 34.3669 37.131 34.4225C37.1113 34.5448 37.0496 34.6565 36.9565 34.7381C36.8633 34.8198 36.7446 34.8664 36.6208 34.8699H34.2649C34.2013 34.8707 34.1384 34.8576 34.0804 34.8315C34.0225 34.8053 33.971 34.7667 33.9296 34.7185C33.8883 34.6702 33.858 34.6134 33.841 34.5522C33.824 34.4909 33.8207 34.4267 33.8313 34.364L34.4015 30.3084C34.4242 30.1702 34.4943 30.0441 34.5998 29.9518C34.7053 29.8595 34.8395 29.8068 34.9796 29.8026H37.3347C37.3907 29.8013 37.4463 29.8123 37.4974 29.835C37.5486 29.8577 37.5941 29.8914 37.6307 29.9337C37.6674 29.9761 37.6941 30.026 37.7092 30.0799C37.7242 30.1338 37.7272 30.1904 37.7178 30.2456ZM41.6642 30.2456C41.6445 30.3679 41.5828 30.4795 41.4897 30.5612C41.3965 30.6428 41.2778 30.6894 41.154 30.6929H39.2541C39.2527 30.693 39.2512 30.6935 39.2501 30.6944C39.2489 30.6953 39.2481 30.6966 39.2476 30.698L39.0973 31.7704C39.0971 31.7713 39.0971 31.7722 39.0972 31.773C39.0974 31.7739 39.0978 31.7747 39.0984 31.7754C39.0989 31.7761 39.0997 31.7767 39.1005 31.7771C39.1013 31.7775 39.1022 31.7776 39.1031 31.7776H40.5787C40.6353 31.7759 40.6914 31.7869 40.7432 31.8097C40.7949 31.8326 40.8408 31.8667 40.8777 31.9095C40.9145 31.9524 40.9414 32.003 40.9561 32.0576C40.9709 32.1121 40.9734 32.1693 40.9632 32.2249C40.9436 32.3472 40.8818 32.4589 40.7887 32.5405C40.6956 32.6222 40.5768 32.6688 40.453 32.6723H38.9759C38.9744 32.6723 38.973 32.6729 38.9719 32.6738C38.9707 32.6747 38.9698 32.6759 38.9694 32.6773L38.788 33.968C38.788 33.9698 38.7887 33.9715 38.7899 33.9728C38.7911 33.9742 38.7927 33.975 38.7945 33.9752H40.6929C40.7494 33.9735 40.8056 33.9845 40.8573 34.0073C40.9091 34.0302 40.955 34.0643 40.9919 34.1071C41.0287 34.15 41.0555 34.2006 41.0703 34.2552C41.0851 34.3097 41.0875 34.3669 41.0774 34.4225C41.0577 34.5448 40.996 34.6565 40.9029 34.7381C40.8097 34.8198 40.691 34.8664 40.5672 34.8699H38.2113C38.1478 34.8707 38.0848 34.8576 38.0268 34.8315C37.9689 34.8053 37.9174 34.7667 37.876 34.7185C37.8347 34.6702 37.8044 34.6134 37.7874 34.5522C37.7704 34.4909 37.7671 34.4267 37.7777 34.364L38.3479 30.3084C38.3706 30.1702 38.4407 30.0441 38.5462 29.9518C38.6517 29.8595 38.786 29.8068 38.926 29.8026H41.2812C41.3371 29.8013 41.3927 29.8123 41.4439 29.835C41.495 29.8577 41.5406 29.8914 41.5772 29.9337C41.6138 29.9761 41.6406 30.026 41.6556 30.0799C41.6706 30.1338 41.6736 30.1904 41.6642 30.2456ZM44.4103 29.7824C45.0556 29.7824 45.891 29.791 46.7293 29.8048C47.7453 29.8214 48.6342 30.2882 49.1675 31.0846C49.7372 31.9434 50.2492 32.839 50.7003 33.7656C50.9387 34.2513 50.5001 34.8836 49.9256 34.8836H43.7649L44.4103 29.7824Z" fill="#72442F"/>
<path d="M31.7141 32.2567H30.5723L30.7891 30.6929H31.9301C31.9301 30.6929 32.7677 30.6387 32.6304 31.4748C32.634 31.4748 32.5379 32.2567 31.7141 32.2567Z" fill="#72442F"/>
</g>
<defs>
<clipPath id="clip0_212_968">
<rect width="37" height="37" fill="white" transform="translate(16 17)"/>
</clipPath>
</defs>
</svg>
