<svg width="100" height="100" viewBox="0 0 100 100" fill="none" xmlns="http://www.w3.org/2000/svg">
<path d="M45.075 0H55C60.625 0.575 66.15 2.0625 71.275 4.4625C79.3375 8.2125 86.3625 14.15 91.4 21.475C96.0875 28.225 99.0625 36.15 99.9875 44.325V55.7875C98.9625 64.7375 95.4875 73.3875 90.0125 80.525C85.0875 87 78.5625 92.25 71.175 95.675C66.325 97.9375 61.1 99.375 55.7875 100H44.3125C39.325 99.4125 34.4125 98.1125 29.8125 96.0875C21.675 92.525 14.5375 86.7375 9.325 79.55C4.1 72.375 0.85 63.7875 0 54.9625V45.0875C0.3625 41.55 1.075 38.0375 2.175 34.65C4.1875 28.375 7.4625 22.5 11.7375 17.4875C16.6875 11.65 23 6.9625 30.025 3.9125C34.8 1.825 39.9 0.525 45.075 0ZM48.1625 12.5625C47.75 13.575 47.9375 14.6875 47.9625 15.75C47.9875 16.925 48.125 18.0875 48.1375 19.25C48.3125 20.3625 48.1625 21.5 48.35 22.625C48.4 23.2875 48.3375 23.9375 48.3875 24.6C48.575 25.475 48.45 26.375 48.5 27.2625C48.7 28.2875 48.575 29.3375 48.6125 30.3875C48.825 32.8 48.7 35.225 48.7375 37.6375C48.975 40.0875 48.8 42.5625 48.875 45.025C48.9375 45.7375 49.05 46.45 49.3875 47.0875C49.65 47.55 50.0125 47.975 50.4875 48.25C50.975 48.5 51.525 48.55 52.05 48.5C52.225 48.35 52.475 48.4125 52.6625 48.3C52.925 48.2 53.1875 48.1 53.4375 47.9875C53.7125 47.8375 54.025 47.75 54.3125 47.6125C54.6 47.4625 54.9 47.375 55.1875 47.2375C55.475 47.1 55.775 47 56.0625 46.8625C56.35 46.7125 56.65 46.625 56.9375 46.4875C57.175 46.375 57.425 46.2875 57.6625 46.175C57.95 46.0375 58.25 45.95 58.5375 45.8C58.825 45.6625 59.125 45.5625 59.4125 45.425C59.7 45.2875 60 45.1875 60.2875 45.05C60.575 44.9125 60.875 44.8125 61.1625 44.675C61.45 44.55 61.75 44.4375 62.0375 44.3C62.325 44.175 62.625 44.075 62.9125 43.925C63.1625 43.8125 63.425 43.7125 63.675 43.6125C63.9625 43.4625 64.2625 43.35 64.55 43.2375C64.7875 43.1125 65.0375 43.0375 65.275 42.925C65.525 42.8125 65.7875 42.7125 66.0375 42.6125C67.0375 42.175 68.075 41.825 69.075 41.3875C73.6875 39.4625 78.2875 37.525 82.9 35.6C83.3875 35.3875 83.8125 34.9375 83.8875 34.3875C83.95 33.7875 83.35 33.4125 82.85 33.275C82.3125 33.1 81.75 33.2625 81.2125 33.3375C75.2125 33.4 69.2125 33.4625 63.2125 33.525C62.5875 33.525 61.95 33.575 61.3375 33.4C60.0375 33.1125 58.9125 32.2375 58.2875 31.0875C57.875 30.4375 57.775 29.65 57.4375 28.9625C55.125 23.575 52.8875 18.1625 50.5375 12.7875C50.3 12.3 49.9125 11.8 49.35 11.7375C48.8375 11.6625 48.35 12.075 48.1625 12.5625ZM32.5 22.7375C32.4875 24.325 32.5 25.9125 32.4375 27.5C32.2875 29.6625 32.45 31.8375 32.3125 34C32.2375 34.5875 32.2375 35.1625 32.2625 35.75C32.2625 35.95 32.425 36.0875 32.5125 36.25C32.6 36.25 32.7625 36.25 32.8375 36.25C33 36.0875 33.125 35.9 33.2375 35.7C33.2375 35.6375 33.25 35.5 33.2625 35.425C33.4375 35.15 33.5125 34.8375 33.65 34.55C33.8125 34.2375 33.9125 33.875 34.0875 33.575C34.2 33.275 34.3125 32.975 34.4625 32.7C34.5875 32.4125 34.6875 32.1125 34.8375 31.825C34.9625 31.5375 35.0625 31.225 35.2125 30.95C35.3375 30.6625 35.4375 30.3625 35.5875 30.075C35.7125 29.7875 35.825 29.4875 35.9625 29.2C36.1875 28.6375 36.45 28.0375 37.0375 27.775C37.1 27.7375 37.2375 27.675 37.3 27.65C37.6875 27.575 38.0875 27.45 38.475 27.6125C40.8125 27.65 43.15 27.6125 45.4875 27.6375C45.675 27.625 45.875 27.6625 46.0375 27.5625C46.1625 27.3875 46.1875 27.1125 46.025 26.95C45.6125 26.4875 44.9625 26.425 44.4375 26.1625C44.225 26.0875 44 26.0125 43.8 25.9125C43.625 25.85 43.45 25.7875 43.2875 25.725C42.925 25.5625 42.55 25.4375 42.1875 25.2875C41.975 25.2125 41.7625 25.1375 41.5625 25.0375C40.725 24.7125 39.875 24.4125 39.0625 24.0375C38.85 23.9625 38.65 23.875 38.45 23.7875C38.1625 23.6625 37.8625 23.55 37.575 23.4125C37.275 23.2875 36.975 23.175 36.6875 23.0375C35.9 22.7125 35.1 22.375 34.3125 22.0375C33.95 21.825 33.5125 21.875 33.1125 21.8875C32.8125 22.05 32.5 22.35 32.5 22.7375ZM16.3 29.8875C16.2125 30.4625 16.5125 31 16.825 31.45C20.15 36.375 23.45 41.3 26.775 46.225C27.5 47.05 28.1125 48.025 28.275 49.125C28.4875 50.3625 28.1125 51.6375 27.425 52.675C24.0625 57.775 20.6875 62.8625 17.325 67.95C17.1 68.3 16.7375 68.5375 16.5375 68.9125C16.2125 69.4125 16.075 70.1125 16.375 70.65C16.8 71.1875 17.625 71.0875 18.1625 70.775C23.7 66.975 29.2625 63.2125 34.7625 59.3625C36.9875 57.85 39.225 56.35 41.4625 54.85C42.6125 54.075 43.75 53.3 44.9 52.525C45.4375 52.2 45.9125 51.7625 46.2375 51.2125C46.35 50.95 46.4375 50.6625 46.5 50.3875C46.575 49.925 46.375 49.475 46.225 49.05C45.85 48.4375 45.45 47.7875 44.8125 47.425C43.3125 46.425 41.825 45.425 40.3375 44.4125C40.2125 44.3375 40.0875 44.25 39.9625 44.1625C37.6625 42.625 35.375 41.0875 33.075 39.5375C31.1125 38.25 29.2375 36.825 27.3125 35.475C24.7625 33.65 22.2125 31.8125 19.675 29.9625C19.0375 29.5 18.3125 29.0625 17.5125 29.0125C16.9625 28.975 16.3875 29.3375 16.3 29.8875ZM71.0375 41.175C70.675 41.3625 70.8125 41.8375 71 42.0875C72.3375 44.0875 73.6875 46.075 75.025 48.0625C75.3 48.4875 75.7 48.8625 75.825 49.375C76.025 49.975 75.8625 50.6375 75.5125 51.15C74.55 52.6125 73.5875 54.0625 72.625 55.525C72.05 56.3625 71.55 57.25 70.9 58.0375C70.7625 58.25 70.7 58.5375 70.8375 58.7625C71.0375 59.0125 71.425 58.9375 71.65 58.775C75.3375 56.25 79.0125 53.725 82.725 51.2375C83.0625 51.0125 83.45 50.775 83.575 50.3625C83.75 49.8 83.375 49.225 82.925 48.9C81.1875 47.7375 79.45 46.5625 77.7 45.4C75.8125 44.075 73.95 42.725 72.0625 41.3875C71.7875 41.2125 71.3875 41 71.0375 41.175ZM51.175 52.025C51.1125 52.0625 50.9875 52.125 50.925 52.15C49.8125 52.7875 49.6 54.2125 49.625 55.3875C49.4375 55.9375 49.5875 56.5125 49.425 57.0625C49.325 57.4875 49.45 57.9375 49.3125 58.3625C49.1875 58.8125 49.3125 59.2875 49.1875 59.725C49.0625 60.175 49.1875 60.65 49.0625 61.1C48.95 61.55 49.0625 62.025 48.9375 62.475C48.825 62.925 48.9375 63.4 48.8125 63.85C48.7125 64.225 48.7875 64.625 48.725 65.0125C48.5625 65.625 48.675 66.2625 48.5125 66.8625C48.5625 67.4625 48.35 68.025 48.375 68.6125C47.6875 74.5875 47.15 80.6 46.5375 86.6C46.45 87.1875 46.625 87.8625 47.125 88.225C47.5875 88.5375 48.175 88.2375 48.5375 87.9C48.9875 87.5 49.1375 86.9 49.325 86.35C52.1625 80.95 55.0125 75.5625 57.85 70.175C58.1625 69.575 58.55 69 59.05 68.5375C59.9125 67.725 61.0875 67.3 62.2625 67.3C62.9875 67.2625 63.675 67.5125 64.3875 67.55C70.1375 68.075 75.875 68.6 81.625 69.1125C82.1875 69.1625 82.8375 69.175 83.3 68.7875C83.7 68.45 83.7375 67.8375 83.4875 67.4C83.175 66.85 82.6375 66.4625 82.1 66.1625C76.3125 63.325 70.4625 60.6125 64.7125 57.7C63.5 57.075 62.3 56.4375 61.075 55.825C59.95 55.25 58.825 54.65 57.7 54.075C56.45 53.4375 55.2125 52.7875 53.975 52.1375C53.75 51.975 53.45 52.025 53.2125 51.875C52.525 51.8875 51.8125 51.75 51.175 52.025ZM32.2625 62.25C31.85 62.3875 31.7125 62.8625 31.7 63.25C31.675 64.375 31.7 65.5 31.6875 66.625C31.725 69.9125 31.5625 73.2 31.4625 76.5C31.4625 76.9625 31.65 77.4625 32.0375 77.7375C32.4 77.9875 32.8625 77.9125 33.2375 77.7625C37.475 76.175 41.725 74.65 45.975 73.1125C46.25 73.025 46.55 72.8125 46.5375 72.5C46.4875 72.2 46.15 72.05 45.875 72.05C45.075 72.1125 44.2875 72.025 43.4875 72.0125C41.4875 71.925 39.4875 71.8625 37.4875 71.775C36.575 71.75 35.775 71.05 35.5875 70.175C34.75 67.75 33.775 65.375 32.9125 62.9625C32.825 62.6375 32.625 62.2375 32.2625 62.25Z" fill="white"/>
</svg>
