<svg width="70" height="70" viewBox="0 0 70 70" fill="none" xmlns="http://www.w3.org/2000/svg">
<circle cx="35" cy="35" r="35" fill="#E3DAD5"/>
<path d="M48.7535 26.5629L40.2617 35L48.7535 43.4371C48.907 43.1163 49.0002 42.7616 49.0002 42.3828V27.6172C49.0002 27.2384 48.907 26.8837 48.7535 26.5629Z" fill="#72442F"/>
<path d="M46.5387 25.1562H23.4606C23.0817 25.1562 22.7271 25.2494 22.4062 25.4029L33.2597 36.2016C34.2194 37.1613 35.7799 37.1613 36.7396 36.2016L47.593 25.4029C47.2722 25.2494 46.9175 25.1562 46.5387 25.1562Z" fill="#72442F"/>
<path d="M21.2466 26.5629C21.0931 26.8837 21 27.2384 21 27.6172V42.3828C21 42.7616 21.0931 43.1163 21.2466 43.4371L29.7385 35L21.2466 26.5629Z" fill="#72442F"/>
<path d="M39.1012 36.16L37.8995 37.3616C36.3005 38.9606 33.6987 38.9606 32.0997 37.3616L30.8981 36.16L22.4062 44.5971C22.7271 44.7506 23.0817 44.8437 23.4606 44.8437H46.5387C46.9175 44.8437 47.2722 44.7506 47.593 44.5971L39.1012 36.16Z" fill="#72442F"/>
</svg>
