<svg width="38" height="38" viewBox="0 0 38 38" fill="none" xmlns="http://www.w3.org/2000/svg">
<g clip-path="url(#clip0_165_71)">
<path d="M37.3494 6.79681C37.0035 3.55612 34.4441 0.996154 31.2032 0.650573C23.0756 -0.216858 14.9243 -0.216858 6.7971 0.650573C3.55612 0.996444 0.996444 3.55612 0.650573 6.79681C-0.216858 14.924 -0.216858 23.0756 0.650573 31.2029C0.996444 34.4439 3.55612 37.0035 6.79681 37.3494C14.924 38.2168 23.0756 38.2168 31.2032 37.3494C34.4441 37.0035 37.0035 34.4439 37.3494 31.2029C38.2168 23.0756 38.2168 14.9243 37.3494 6.79681Z" fill="url(#paint0_radial_165_71)"/>
<path d="M35.2826 8.17093C34.9758 5.29525 32.7046 3.02375 29.8287 2.71673C22.6167 1.94729 15.3833 1.94729 8.1713 2.71673C5.29561 3.02375 3.02412 5.29525 2.71709 8.17093C1.94765 15.3829 1.94765 22.6163 2.71709 29.828C3.02412 32.704 5.29561 34.9755 8.1713 35.2822C15.3833 36.0519 22.6167 36.0519 29.8284 35.2822C32.7043 34.9755 34.9758 32.704 35.2826 29.828C36.0523 22.6163 36.0523 15.3829 35.2826 8.17093Z" fill="url(#paint1_linear_165_71)"/>
<path d="M0.569458 30.415C0.595551 30.6777 0.622513 30.9404 0.650635 31.203C0.996505 34.4437 3.55618 37.0034 6.79716 37.3493C14.9244 38.2167 23.076 38.2167 31.2032 37.3493C34.4442 37.0034 37.0036 34.4437 37.3495 31.203C37.3776 30.9404 37.4045 30.6777 37.4309 30.415H0.569458Z" fill="url(#paint2_linear_165_71)"/>
<path d="M37.3494 31.2028C37.8156 26.8358 38.0308 22.4618 37.996 18.0884L29.3101 9.40249C28.2249 8.16367 26.6399 7.39047 24.7775 7.32349C20.9474 7.18549 17.1051 7.19245 13.2745 7.32407C10.0929 7.43366 7.8681 9.57209 7.29755 12.7151C7.19695 13.27 7.13664 13.8321 7.0575 14.3911V23.6052C7.10127 23.9038 7.16563 24.201 7.18564 24.5014C7.3132 26.4131 8.09888 28.0505 9.35682 29.1583L18.1958 37.997C22.5335 38.0274 26.8716 37.8117 31.2032 37.3493C34.4442 37.0034 37.0036 34.4438 37.3494 31.2028Z" fill="url(#paint3_linear_165_71)"/>
<path d="M37.3494 31.203C37.0038 34.4434 34.4435 37.0036 31.2031 37.3492C26.8721 37.8113 22.5332 38.0273 18.196 37.9969L9.37036 29.1712C10.3935 30.0668 11.7271 30.6121 13.2747 30.6704C17.1045 30.8142 20.9476 30.8104 24.7774 30.6724C28.2413 30.5472 30.748 27.9835 30.8561 24.5195C30.9715 20.8417 30.9715 17.1542 30.8561 13.4763C30.8068 11.8783 30.2458 10.4722 29.3158 9.4082L37.9962 18.0886C38.0304 22.4614 37.8153 26.836 37.3494 31.203Z" fill="url(#paint4_linear_165_71)"/>
<path d="M23.4838 14.8848C22.3711 13.6732 20.7745 12.9131 19 12.9131C15.6387 12.9131 12.9135 15.6383 12.9135 18.9996C12.9135 20.7742 13.6736 22.3708 14.8852 23.4835L28.9673 37.5656C29.7127 37.5006 30.4581 37.4284 31.2029 37.349C34.4438 37.0031 37.0035 34.4435 37.3494 31.2025C37.4288 30.4577 37.501 29.7123 37.5659 28.9669L23.4838 14.8848Z" fill="url(#paint5_linear_165_71)"/>
<path d="M37.9263 23.0929L26.5929 11.7598C26.3285 11.4128 25.9119 11.1875 25.4419 11.1875C24.6423 11.1875 23.9938 11.8358 23.9938 12.6356C23.9938 13.1056 24.219 13.5222 24.5661 13.7866L37.7237 26.9445C37.8129 25.661 37.8805 24.377 37.9263 23.0929Z" fill="url(#paint6_linear_165_71)"/>
<path d="M7.0575 14.3911C7.13664 13.8321 7.19695 13.27 7.29755 12.7151C7.86781 9.57209 10.0929 7.43366 13.2745 7.32407C17.1051 7.19245 20.9474 7.18549 24.7775 7.32349C28.2403 7.44816 30.748 10.0122 30.8562 13.4761C30.9713 17.1543 30.9713 20.8414 30.8562 24.5196C30.748 27.9835 28.2411 30.5473 24.7778 30.6722C20.9477 30.8105 17.1046 30.814 13.2748 30.6702C9.81141 30.54 7.41728 27.9702 7.18564 24.5011C7.16563 24.201 7.10127 23.9035 7.0575 23.6049C7.0575 20.5336 7.0575 17.4622 7.0575 14.3911ZM19.0032 28.6193C20.7561 28.6193 22.5106 28.6718 24.2612 28.6072C27.0058 28.5054 28.694 26.8674 28.7581 24.1253C28.8375 20.7087 28.8375 17.2874 28.7581 13.8704C28.694 11.1289 27.0046 9.45264 24.2612 9.39437C20.779 9.32073 17.293 9.32131 13.8108 9.39437C11.0882 9.45148 9.39509 11.0939 9.32117 13.8052C9.22723 17.265 9.22723 20.731 9.32117 24.1909C9.39509 26.9019 11.0882 28.5063 13.8111 28.6072C15.5396 28.6715 17.2724 28.6193 19.0032 28.6193Z" fill="url(#paint7_linear_165_71)"/>
<path d="M7.0575 14.3911C7.13664 13.8321 7.19695 13.27 7.29755 12.7151C7.86781 9.57209 10.0929 7.43366 13.2745 7.32407C17.1051 7.19245 20.9474 7.18549 24.7775 7.32349C28.2403 7.44816 30.748 10.0122 30.8562 13.4761C30.9713 17.1543 30.9713 20.8414 30.8562 24.5196C30.748 27.9835 28.2411 30.5473 24.7778 30.6722C20.9477 30.8105 17.1046 30.814 13.2748 30.6702C9.81141 30.54 7.41728 27.9702 7.18564 24.5011C7.16563 24.201 7.10127 23.9035 7.0575 23.6049C7.0575 20.5336 7.0575 17.4622 7.0575 14.3911ZM19.0032 28.6193C20.7561 28.6193 22.5106 28.6718 24.2612 28.6072C27.0058 28.5054 28.694 26.8674 28.7581 24.1253C28.8375 20.7087 28.8375 17.2874 28.7581 13.8704C28.694 11.1289 27.0046 9.45264 24.2612 9.39437C20.779 9.32073 17.293 9.32131 13.8108 9.39437C11.0882 9.45148 9.39509 11.0939 9.32117 13.8052C9.22723 17.265 9.22723 20.731 9.32117 24.1909C9.39509 26.9019 11.0882 28.5063 13.8111 28.6072C15.5396 28.6715 17.2724 28.6193 19.0032 28.6193Z" fill="white"/>
<path d="M19.0001 12.9141C15.6388 12.9141 12.9136 15.639 12.9136 19.0003C12.9136 22.3619 15.6388 25.0868 19.0001 25.0868C22.3617 25.0868 25.0866 22.3619 25.0866 19.0003C25.0866 15.639 22.3617 12.9141 19.0001 12.9141ZM19.0001 22.9913C16.7958 22.9913 15.0091 21.2045 15.0091 19.0003C15.0091 16.796 16.7958 15.0093 19.0001 15.0093C21.2043 15.0093 22.9911 16.796 22.9911 19.0003C22.9911 21.2045 21.2043 22.9913 19.0001 22.9913Z" fill="white"/>
<path d="M26.8899 12.6356C26.8899 13.4352 26.2416 14.0835 25.442 14.0835C24.6424 14.0835 23.9939 13.4352 23.9939 12.6356C23.9939 11.8358 24.6424 11.1875 25.442 11.1875C26.2416 11.1875 26.8899 11.8358 26.8899 12.6356Z" fill="white"/>
</g>
<defs>
<radialGradient id="paint0_radial_165_71" cx="0" cy="0" r="1" gradientUnits="userSpaceOnUse" gradientTransform="translate(7.78978 33.209) scale(41.9073)">
<stop stop-color="#FAE100"/>
<stop offset="0.0544" stop-color="#FADC04"/>
<stop offset="0.1167" stop-color="#FBCE0E"/>
<stop offset="0.1829" stop-color="#FCB720"/>
<stop offset="0.2514" stop-color="#FE9838"/>
<stop offset="0.3054" stop-color="#FF7950"/>
<stop offset="0.4922" stop-color="#FF1C74"/>
<stop offset="1" stop-color="#6C1CD1"/>
</radialGradient>
<linearGradient id="paint1_linear_165_71" x1="14.5745" y1="16.5103" x2="-49.8019" y2="-19.7015" gradientUnits="userSpaceOnUse">
<stop stop-color="#A1B5D8" stop-opacity="0"/>
<stop offset="0.3094" stop-color="#90A2BD" stop-opacity="0.309804"/>
<stop offset="0.7554" stop-color="#7C8B9C" stop-opacity="0.756863"/>
<stop offset="1" stop-color="#748290"/>
</linearGradient>
<linearGradient id="paint2_linear_165_71" x1="19.0001" y1="33.5442" x2="19.0001" y2="39.4674" gradientUnits="userSpaceOnUse">
<stop stop-color="#FAE100" stop-opacity="0"/>
<stop offset="0.3068" stop-color="#FCA800" stop-opacity="0.305882"/>
<stop offset="0.6275" stop-color="#FE7300" stop-opacity="0.627451"/>
<stop offset="0.8685" stop-color="#FF5200" stop-opacity="0.866667"/>
<stop offset="1" stop-color="#FF4500"/>
</linearGradient>
<linearGradient id="paint3_linear_165_71" x1="16.8382" y1="16.7843" x2="7.43385" y2="7.37993" gradientUnits="userSpaceOnUse">
<stop stop-color="#833AB4" stop-opacity="0"/>
<stop offset="1" stop-color="#833AB4"/>
</linearGradient>
<linearGradient id="paint4_linear_165_71" x1="26.0433" y1="34.7555" x2="21.3494" y2="12.6272" gradientUnits="userSpaceOnUse">
<stop stop-color="#833AB4" stop-opacity="0"/>
<stop offset="1" stop-color="#833AB4"/>
</linearGradient>
<linearGradient id="paint5_linear_165_71" x1="27.8294" y1="27.829" x2="8.97607" y2="8.97569" gradientUnits="userSpaceOnUse">
<stop stop-color="#833AB4" stop-opacity="0"/>
<stop offset="1" stop-color="#833AB4"/>
</linearGradient>
<linearGradient id="paint6_linear_165_71" x1="29.2278" y1="16.4215" x2="22.9934" y2="10.187" gradientUnits="userSpaceOnUse">
<stop stop-color="#833AB4" stop-opacity="0"/>
<stop offset="1" stop-color="#833AB4"/>
</linearGradient>
<linearGradient id="paint7_linear_165_71" x1="26.545" y1="11.5075" x2="11.1731" y2="26.8793" gradientUnits="userSpaceOnUse">
<stop stop-color="#833AB4"/>
<stop offset="0.0922" stop-color="#9C3495"/>
<stop offset="0.2927" stop-color="#DC2546"/>
<stop offset="0.392" stop-color="#FD1D1D"/>
<stop offset="0.5589" stop-color="#FC6831"/>
<stop offset="0.6887" stop-color="#FC9B40"/>
<stop offset="0.7521" stop-color="#FCAF45"/>
<stop offset="0.7806" stop-color="#FDB750"/>
<stop offset="0.8656" stop-color="#FECB6A"/>
<stop offset="0.9415" stop-color="#FFD87A"/>
<stop offset="1" stop-color="#FFDC80"/>
</linearGradient>
<clipPath id="clip0_165_71">
<rect width="38" height="38" fill="white"/>
</clipPath>
</defs>
</svg>
