<svg width="100" height="100" viewBox="0 0 100 100" fill="none" xmlns="http://www.w3.org/2000/svg">
<path fill-rule="evenodd" clip-rule="evenodd" d="M100 50C100 77.6142 77.6142 100 50 100C22.3858 100 0 77.6142 0 50C0 22.3858 22.3858 0 50 0C77.6142 0 100 22.3858 100 50ZM43.5901 29.9687C43.5901 27.0598 41.6917 25.4369 39.1196 25.4369C36.5474 25.4369 34.649 27.0598 34.649 29.9687V58.0476C34.649 59.9154 34.649 62.9468 31.3114 62.9468C29.9235 62.9468 28.698 62.3782 27.5095 61.8266C26.3906 61.3074 25.3044 60.8034 24.1462 60.8034C22.1865 60.8034 20.8086 62.7937 20.8086 64.3554C20.8086 69.4077 27.6675 71 31.8013 71C37.2211 71 43.6207 68.4279 43.6207 58.66V29.9687H43.5901ZM74.456 25.1001C76.9975 25.1001 78.8041 26.9679 78.8041 29.7544V65.5802C78.8041 68.3666 76.9975 70.2345 74.456 70.2345C72.037 70.2345 70.6591 68.9484 70.1079 66.7438C68.4851 69.3159 65.1168 70.6019 62.1467 70.6019C53.3892 70.6019 47.8469 62.7325 47.8469 54.8324C47.8469 46.6874 52.5012 38.2362 61.8404 38.2362C64.8719 38.2362 67.8114 39.2161 70.1079 41.1452V29.7544C70.1079 26.9679 71.9145 25.1001 74.456 25.1001ZM70.1079 54.1894C70.1079 58.2619 68.0564 62.9162 63.2796 62.9162C58.7478 62.9162 56.5125 58.3844 56.5125 54.465C56.5125 50.515 58.7478 45.9219 63.2796 45.9219C67.9339 45.9219 70.1079 50.1169 70.1079 54.1894Z" fill="white"/>
</svg>
