<svg width="16" height="16" viewBox="0 0 16 16" fill="none" xmlns="http://www.w3.org/2000/svg">
<path d="M6.84568 7.99733L11.3286 12.3071C11.4521 12.4255 11.52 12.5838 11.52 12.7526C11.52 12.9214 11.4521 13.0796 11.3286 13.1982L10.9358 13.5756C10.8126 13.6944 10.6478 13.7598 10.4723 13.7598C10.2967 13.7598 10.1321 13.6944 10.0088 13.5756L4.67113 8.44446C4.5473 8.32551 4.47949 8.16657 4.47998 7.99761C4.47949 7.8279 4.54721 7.66915 4.67113 7.55011L10.0038 2.4239C10.1272 2.30514 10.2917 2.23977 10.4674 2.23977C10.6429 2.23977 10.8075 2.30514 10.9309 2.4239L11.3237 2.80134C11.5792 3.04701 11.5792 3.44693 11.3237 3.6925L6.84568 7.99733Z" fill="white"/>
</svg>
