<svg width="32" height="32" viewBox="0 0 32 32" fill="none" xmlns="http://www.w3.org/2000/svg">
<path d="M22.4646 17.2044C22.1513 17.1786 21.8406 17.2781 21.6006 17.4811C21.3605 17.6841 21.2108 17.974 21.1843 18.2873C21.0793 19.5257 20.9493 20.603 20.8356 21.1691V21.176C20.5 22.9069 18.8604 24.6178 17.1789 24.9939C17.0333 25.0239 16.8871 25.0527 16.7415 25.0801C16.8665 23.4724 16.9596 21.4166 16.9471 19.8313C16.9658 17.4093 16.734 13.6802 16.5284 12.1961C16.1591 9.46359 14.4789 6.43301 12.6199 5.14517L12.6086 5.13767C11.3161 4.26449 9.93091 3.53709 8.47831 2.96877C8.2192 2.86838 7.96322 2.77465 7.71035 2.68759C9.0893 2.47439 10.4829 2.36992 11.8782 2.37516C13.7778 2.37516 15.5118 2.54824 17.1789 2.89442C18.8604 3.26933 20.5 4.98146 20.8356 6.71232V6.7192C20.9487 7.28157 21.0787 8.35884 21.1836 9.59356C21.2103 9.90736 21.3606 10.1977 21.6013 10.4007C21.8421 10.6038 22.1536 10.7028 22.4674 10.6761C22.7812 10.6495 23.0716 10.4992 23.2746 10.2585C23.4776 10.0177 23.5767 9.70616 23.55 9.39236C23.4363 8.05578 23.2963 6.9129 23.1651 6.25555C22.6471 3.59301 20.2907 1.15043 17.6838 0.573053L17.6688 0.569928C15.8367 0.190012 13.9434 0.00380325 11.8738 5.40774e-05C9.80427 -0.0036951 7.91843 0.187513 6.08634 0.570553L6.07072 0.573678C4.90722 0.831746 3.79434 1.46161 2.87205 2.31579C2.62278 2.50375 2.40492 2.73005 2.22656 2.98627C1.41174 3.93731 0.819998 5.07518 0.590048 6.25555C0.301987 7.69961 -0.0235663 11.4444 0.00142817 13.9439C-0.0123188 15.2848 0.0745371 16.9844 0.203259 18.4947C0.271994 19.4633 0.350101 20.3068 0.425085 20.848C0.794378 23.5805 2.47463 26.6111 4.33422 27.8989L4.34485 27.9064C5.63767 28.7794 7.02308 29.5068 8.47581 30.0753C9.94674 30.6464 11.2964 30.9926 12.603 31.1338H12.6143C14.3701 31.2907 15.966 29.7666 16.4491 27.5384C16.8577 27.4734 17.2628 27.3994 17.6644 27.3165L17.6794 27.3134C20.287 26.736 22.6427 24.2934 23.1607 21.6309C23.2919 20.9723 23.4325 19.8269 23.5462 18.4872C23.5727 18.1737 23.4737 17.8625 23.2709 17.622C23.0681 17.3815 22.7781 17.2313 22.4646 17.2044Z" fill="white"/>
<path d="M31.9986 13.942C31.9986 13.9027 31.9986 13.8633 31.9924 13.8239C31.9927 13.8214 31.9927 13.8189 31.9924 13.8164C31.9886 13.7795 31.983 13.7428 31.9755 13.7065V13.6983C31.9286 13.4727 31.8168 13.2657 31.6537 13.1028L27.4046 8.85003C27.182 8.6273 26.88 8.50213 26.565 8.50208C26.2501 8.50202 25.948 8.62707 25.7253 8.84972C25.5026 9.07237 25.3774 9.37438 25.3773 9.68931C25.3773 10.0042 25.5023 10.3063 25.725 10.529L27.9539 12.7573H19.7576C19.4427 12.7573 19.1407 12.8824 18.918 13.105C18.6954 13.3277 18.5703 13.6297 18.5703 13.9445C18.5703 14.2594 18.6954 14.5614 18.918 14.784C19.1407 15.0067 19.4427 15.1318 19.7576 15.1318H27.9432L25.7162 17.3588C25.4943 17.5816 25.3699 17.8833 25.3702 18.1978C25.3706 18.5122 25.4956 18.8137 25.718 19.036C25.9403 19.2584 26.2418 19.3835 26.5562 19.3838C26.8707 19.3841 27.1724 19.2597 27.3952 19.0378L31.6249 14.8081C31.7783 14.6644 31.8905 14.4823 31.9499 14.2807C31.9606 14.2448 31.9694 14.2083 31.9761 14.1714C31.9764 14.1662 31.9764 14.1609 31.9761 14.1557C31.9817 14.1239 31.9874 14.0932 31.9905 14.0595C31.9936 14.0258 31.9905 14.0108 31.9905 13.987C31.9905 13.9733 31.9905 13.9595 31.9905 13.9458L31.9986 13.942Z" fill="white"/>
</svg>
