<svg width="360" height="339" viewBox="0 0 360 339" fill="none" xmlns="http://www.w3.org/2000/svg">
<path d="M13.2772 155.808V159.33" stroke="#D2D8DF" stroke-width="2.921" stroke-linecap="round"/>
<path d="M5.36597 157.716L8.24421 160.679" stroke="#D2D8DF" stroke-width="2.921" stroke-linecap="round"/>
<path d="M2 165.604H6.0698" stroke="#D2D8DF" stroke-width="2.921" stroke-linecap="round"/>
<path d="M5.03687 173.632L7.91511 170.669" stroke="#D2D8DF" stroke-width="2.921" stroke-linecap="round"/>
<path d="M13.2772 174.594V171.072" stroke="#D2D8DF" stroke-width="2.921" stroke-linecap="round"/>
<path d="M19.1477 172.246L16.7994 169.897" stroke="#D2D8DF" stroke-width="2.921" stroke-linecap="round"/>
<path d="M23.8441 166.375H20.3218" stroke="#D2D8DF" stroke-width="2.921" stroke-linecap="round"/>
<path d="M21.4959 158.156L19.1477 160.505" stroke="#D2D8DF" stroke-width="2.921" stroke-linecap="round"/>
<path d="M202.309 1.99997V4.34819" stroke="#D2D8DF" stroke-width="2.921" stroke-linecap="round"/>
<path d="M195.264 9.04462H197.612" stroke="#D2D8DF" stroke-width="2.921" stroke-linecap="round"/>
<path d="M202.309 16.0892V13.741" stroke="#D2D8DF" stroke-width="2.921" stroke-linecap="round"/>
<path d="M208.179 9.04462H205.831" stroke="#D2D8DF" stroke-width="2.921" stroke-linecap="round"/>
<path d="M66.1121 100.625V104.147" stroke="#D2D8DF" stroke-width="2.921" stroke-linecap="round"/>
<path d="M55.545 111.192H59.0674" stroke="#D2D8DF" stroke-width="2.921" stroke-linecap="round"/>
<path d="M66.1121 120.585V117.063" stroke="#D2D8DF" stroke-width="2.921" stroke-linecap="round"/>
<path d="M75.5049 111.192H71.9825" stroke="#D2D8DF" stroke-width="2.921" stroke-linecap="round"/>
<path d="M318.843 228.648C321.649 228.648 323.925 230.925 323.925 233.731C323.925 236.539 321.649 238.814 318.843 238.814C316.038 238.814 313.762 236.539 313.762 233.731" stroke="#D2D8DF" stroke-width="2.921" stroke-linecap="round"/>
<path fill-rule="evenodd" clip-rule="evenodd" d="M342.1 182.535C345.117 181.593 349.742 177.903 350.813 173.933C351.784 177.443 355.854 181.593 359.526 181.907C355.392 183.371 351.44 187.719 350.813 191.135C350.386 187.653 344.92 183.042 342.1 182.535Z" fill="#EBECEE"/>
<path fill-rule="evenodd" clip-rule="evenodd" d="M32.3833 227.083C33.8924 226.612 36.2039 224.768 36.7392 222.782C37.2246 224.536 39.259 226.612 41.0951 226.77C39.0288 227.5 37.0532 229.675 36.7392 231.383C36.5259 229.642 33.7927 227.336 32.3833 227.083Z" fill="#EBECEE"/>
<path fill-rule="evenodd" clip-rule="evenodd" d="M60.3883 63.7546C60.3883 65.9322 58.624 67.6959 56.448 67.6959C54.2711 67.6959 52.5078 65.9322 52.5078 63.7546C52.5078 61.5781 54.2711 59.8134 56.448 59.8134C58.624 59.8134 60.3883 61.5781 60.3883 63.7546Z" fill="#D1D8DF"/>
<path fill-rule="evenodd" clip-rule="evenodd" d="M323.499 74.3375C323.499 77.9757 320.55 80.9249 316.913 80.9249C313.275 80.9249 310.327 77.9757 310.327 74.3375C310.327 70.6994 313.275 67.7502 316.913 67.7502C320.55 67.7502 323.499 70.6994 323.499 74.3375Z" fill="#EBECEE"/>
<path fill-rule="evenodd" clip-rule="evenodd" d="M282.211 37.5606C282.211 40.447 279.872 42.7861 276.987 42.7861C274.102 42.7861 271.763 40.447 271.763 37.5606C271.763 34.6742 274.102 32.3352 276.987 32.3352C279.872 32.3352 282.211 34.6742 282.211 37.5606Z" fill="#EBECEE"/>
<path fill-rule="evenodd" clip-rule="evenodd" d="M134.027 300.538C134.027 302.357 132.553 303.832 130.734 303.832C128.916 303.832 127.442 302.357 127.442 300.538C127.442 298.718 128.916 297.243 130.734 297.243C132.553 297.243 134.027 298.718 134.027 300.538Z" stroke="#D2D8DF" stroke-width="2.921" stroke-linecap="round"/>
<path fill-rule="evenodd" clip-rule="evenodd" d="M132.068 38.4346C132.068 40.6121 130.304 42.3759 128.128 42.3759C125.952 42.3759 124.188 40.6121 124.188 38.4346C124.188 36.2581 125.952 34.4934 128.128 34.4934C130.304 34.4934 132.068 36.2581 132.068 38.4346Z" stroke="#D2D8DF" stroke-width="2.921" stroke-linecap="round"/>
<path fill-rule="evenodd" clip-rule="evenodd" d="M232.576 337.015C230.058 337.973 227.24 336.708 226.282 334.191C225.324 331.672 226.588 328.853 229.107 327.895C231.624 326.937 234.442 328.202 235.4 330.72C236.359 333.239 235.094 336.057 232.576 337.015Z" stroke="#D2D8DF" stroke-width="2.921" stroke-linecap="round"/>
<path fill-rule="evenodd" clip-rule="evenodd" d="M231.076 243.866H134.793C128.016 243.866 122.469 238.303 122.469 231.503V94.1997C122.469 87.4001 128.016 81.8393 134.793 81.8393H231.076C237.855 81.8393 243.402 87.4001 243.402 94.1997V231.503C243.402 238.303 237.855 243.866 231.076 243.866Z" fill="#E0E2EE"/>
<path fill-rule="evenodd" clip-rule="evenodd" d="M222.857 249.737H126.575C119.798 249.737 114.25 244.173 114.25 237.374V100.07C114.25 93.2706 119.798 87.7098 126.575 87.7098H222.857C229.636 87.7098 235.184 93.2706 235.184 100.07V237.374C235.184 244.173 229.636 249.737 222.857 249.737Z" fill="#E8EBF2"/>
<path fill-rule="evenodd" clip-rule="evenodd" d="M214.862 254.371H118.381C111.59 254.371 106.031 248.831 106.031 242.059V105.325C106.031 98.5531 111.59 93.0153 118.381 93.0153H214.862C221.656 93.0153 227.214 98.5531 227.214 105.325V242.059C227.214 248.831 221.656 254.371 214.862 254.371Z" fill="#D8DBEA"/>
<path fill-rule="evenodd" clip-rule="evenodd" d="M214.862 254.371H118.381C111.59 254.371 106.031 248.831 106.031 242.059V105.325C106.031 98.5531 111.59 93.0153 118.381 93.0153H214.862C221.656 93.0153 227.214 98.5531 227.214 105.325V242.059C227.214 248.831 221.656 254.371 214.862 254.371Z" fill="#F1F2F7"/>
<path fill-rule="evenodd" clip-rule="evenodd" d="M200.956 134.674H129.693C127.657 134.674 125.992 133.089 125.992 131.153C125.992 129.214 127.657 127.63 129.693 127.63H200.956C202.991 127.63 204.657 129.214 204.657 131.153C204.657 133.089 202.991 134.674 200.956 134.674Z" fill="#E0E2EE"/>
<path fill-rule="evenodd" clip-rule="evenodd" d="M200.956 155.808H129.693C127.657 155.808 125.992 154.223 125.992 152.287C125.992 150.348 127.657 148.763 129.693 148.763H200.956C202.991 148.763 204.657 150.348 204.657 152.287C204.657 154.223 202.991 155.808 200.956 155.808Z" fill="#E0E2EE"/>
<path fill-rule="evenodd" clip-rule="evenodd" d="M200.956 176.942H129.693C127.657 176.942 125.992 175.357 125.992 173.421C125.992 171.485 127.657 169.897 129.693 169.897H200.956C202.991 169.897 204.657 171.485 204.657 173.421C204.657 175.357 202.991 176.942 200.956 176.942Z" fill="#E0E2EE"/>
<path fill-rule="evenodd" clip-rule="evenodd" d="M200.956 198.076H129.693C127.657 198.076 125.992 196.491 125.992 194.555C125.992 192.616 127.657 191.031 129.693 191.031H200.956C202.991 191.031 204.657 192.616 204.657 194.555C204.657 196.491 202.991 198.076 200.956 198.076Z" fill="#E0E2EE"/>
<path fill-rule="evenodd" clip-rule="evenodd" d="M166.891 219.21H129.708C127.665 219.21 125.992 217.625 125.992 215.689C125.992 213.75 127.665 212.165 129.708 212.165H166.891C168.935 212.165 170.608 213.75 170.608 215.689C170.608 217.625 168.935 219.21 166.891 219.21Z" fill="#E0E2EE"/>
<path fill-rule="evenodd" clip-rule="evenodd" d="M241.941 191.896C227.691 206.144 205.63 207.751 189.615 196.751C187.568 195.32 185.62 193.713 183.803 191.896C182.868 190.964 181.986 190.002 181.156 188.99C179.494 186.967 178.039 184.81 176.847 182.581C174.746 178.817 173.318 174.823 172.538 170.694C170.022 157.746 173.784 143.81 183.803 133.796C193.846 123.752 207.785 120.014 220.735 122.506C224.861 123.309 228.859 124.738 232.624 126.814C234.856 128.033 236.983 129.488 239.009 131.149C240.019 131.976 240.981 132.861 241.914 133.796C243.733 135.612 245.365 137.557 246.769 139.606C257.774 155.616 256.163 177.676 241.941 191.896Z" fill="white" fill-opacity="0.1"/>
<path fill-rule="evenodd" clip-rule="evenodd" d="M237.953 189.09C223.128 203.918 199.103 203.915 184.275 189.09C169.467 174.282 169.467 150.254 184.295 135.429C199.103 120.62 223.128 120.62 237.937 135.429C252.762 150.254 252.762 174.282 237.953 189.09ZM245.562 127.812C226.532 108.783 195.696 108.783 176.667 127.812C157.641 146.839 157.624 177.694 176.65 196.723C193.969 214.037 221.114 215.598 240.207 201.383C242.072 199.992 243.868 198.434 245.581 196.723C247.291 195.01 248.85 193.214 250.237 191.349C264.453 172.254 262.878 145.128 245.562 127.812Z" fill="#E0E2EE"/>
<path fill-rule="evenodd" clip-rule="evenodd" d="M320.45 268.454L319.651 269.253C314.366 274.541 305.711 274.541 300.423 269.253L251.621 220.451L271.648 200.424L320.45 249.226C325.738 254.514 325.738 263.166 320.45 268.454Z" fill="url(#paint0_linear_3114_12754)"/>
<path fill-rule="evenodd" clip-rule="evenodd" d="M251.289 189.857L265.71 204.278L255.472 214.514L241.054 200.093C242.957 198.674 244.787 197.083 246.538 195.338C248.283 193.593 249.873 191.76 251.289 189.857Z" fill="#E0E2EE"/>
<path fill-rule="evenodd" clip-rule="evenodd" d="M319.719 248.626L299.82 268.523L296.237 264.937L316.134 245.04L319.719 248.626Z" fill="#EF545F"/>
<path fill-rule="evenodd" clip-rule="evenodd" d="M272.755 201.113L252.311 221.558L249.273 218.521L269.718 198.076L272.755 201.113Z" fill="url(#paint1_linear_3114_12754)"/>
<path fill-rule="evenodd" clip-rule="evenodd" d="M228.139 130.328L178 180.464C176.112 177.08 174.828 173.489 174.13 169.778L217.452 126.455C221.161 127.181 224.755 128.462 228.139 130.328Z" fill="white" fill-opacity="0.5"/>
<path fill-rule="evenodd" clip-rule="evenodd" d="M244.576 142.245L190.371 193.38C188.43 192.102 186.582 190.663 184.86 189.038C183.973 188.201 183.134 187.343 182.349 186.437L237.214 134.674C238.175 135.417 239.087 136.209 239.972 137.046C241.695 138.671 243.245 140.411 244.576 142.245Z" fill="white" fill-opacity="0.5"/>
<defs>
<linearGradient id="paint0_linear_3114_12754" x1="288.018" y1="164.027" x2="215.224" y2="236.822" gradientUnits="userSpaceOnUse">
<stop stop-color="#FF8960"/>
<stop offset="1" stop-color="#FF62A5"/>
</linearGradient>
<linearGradient id="paint1_linear_3114_12754" x1="261.014" y1="186.335" x2="237.532" y2="209.817" gradientUnits="userSpaceOnUse">
<stop stop-color="#FF404E"/>
<stop offset="1" stop-color="#FF62A5"/>
</linearGradient>
</defs>
</svg>
