<svg width="28" height="28" viewBox="0 0 28 28" fill="none" xmlns="http://www.w3.org/2000/svg">
<path d="M2.54599 15.9425C3.96354 17.3775 4.56724 18.795 4.576 20.685C4.576 22.19 5.80978 23.4237 7.31475 23.4237C9.20478 23.4325 10.6223 24.0362 12.0573 25.4537C12.591 25.9788 13.2998 26.2412 13.9998 26.2412C14.6998 26.2412 15.4085 25.9788 15.9422 25.4537C17.3773 24.0362 18.7947 23.4325 20.6848 23.4237C22.1898 23.4237 23.4235 22.19 23.4235 20.685C23.4323 18.795 24.036 17.3775 25.4535 15.9425C26.5123 14.875 26.5123 13.125 25.4535 12.0575C24.036 10.6225 23.4323 9.20497 23.4235 7.31499C23.4235 5.81002 22.1898 4.57624 20.6848 4.57624C18.7947 4.56748 17.3773 3.96373 15.9422 2.54623C14.8748 1.48752 13.1248 1.48752 12.0573 2.54623C10.6223 3.96373 9.20478 4.56748 7.31475 4.57624C5.80978 4.57624 4.576 5.81002 4.576 7.31499C4.56724 9.20497 3.96354 10.6225 2.54599 12.0575C1.48727 13.125 1.48727 14.875 2.54599 15.9425ZM18.9348 19.0662C18.4448 19.5738 17.7885 19.8538 17.0972 19.8538C16.3973 19.8538 15.741 19.5738 15.251 19.0662C14.2535 18.0425 14.2535 16.3712 15.251 15.3387C15.741 14.8313 16.3973 14.5513 17.0972 14.5513C17.7885 14.5513 18.4448 14.8313 18.9348 15.3387C19.9323 16.3712 19.9323 18.0425 18.9348 19.0662ZM16.1785 10.4825C16.5198 10.1412 17.071 10.1325 17.421 10.465C17.7623 10.7975 17.771 11.3575 17.4385 11.7075L11.7947 17.5437C11.6198 17.7188 11.3923 17.8062 11.1648 17.8062C10.946 17.8062 10.7273 17.7275 10.5523 17.5613C10.211 17.2288 10.2022 16.6687 10.5347 16.3275L16.1785 10.4825ZM9.05599 8.93372C10.036 7.91875 11.7685 7.91875 12.7485 8.93372C13.7373 9.96627 13.7373 11.6375 12.7485 12.6612C12.2498 13.1687 11.6023 13.4488 10.9023 13.4488C10.2022 13.4488 9.55475 13.1687 9.05599 12.6612C8.06724 11.6375 8.06724 9.96627 9.05599 8.93372Z" fill="#72442F"/>
<path d="M11.489 11.445C11.8302 11.0862 11.8302 10.5088 11.489 10.15C11.174 9.82623 10.6315 9.82623 10.3165 10.15C9.97524 10.5088 9.97524 11.0862 10.3165 11.445C10.6315 11.7775 11.174 11.7775 11.489 11.445Z" fill="#72442F"/>
<path d="M16.5106 16.555C16.1605 16.9137 16.1605 17.4913 16.5106 17.85C16.6681 18.0162 16.878 18.1038 17.0968 18.1038C17.3155 18.1038 17.5168 18.0162 17.6743 17.85C18.0243 17.4913 18.0243 16.9137 17.6743 16.555C17.5168 16.3887 17.3155 16.3013 17.0968 16.3013C16.878 16.3013 16.6681 16.3887 16.5106 16.555Z" fill="#72442F"/>
</svg>
