<svg width="23" height="23" viewBox="0 0 23 23" fill="none" xmlns="http://www.w3.org/2000/svg">
<g clip-path="url(#clip0_7_2122)">
<path d="M22.5185 10.3151L20.9503 8.69131C20.8293 8.56639 20.7715 8.38921 20.796 8.21707L21.1108 5.98248C21.2402 5.06621 20.6272 4.22379 19.7165 4.06441L17.4935 3.67457C17.3219 3.64457 17.1709 3.53464 17.0898 3.38025L16.0336 1.38778C15.5999 0.56926 14.6081 0.24717 13.7763 0.654746L11.7499 1.64653C11.5933 1.72317 11.4067 1.72317 11.2501 1.64653L9.22379 0.654746C8.39138 0.247125 7.40068 0.569215 6.96642 1.38778L5.91021 3.38025C5.82801 3.53684 5.6803 3.64349 5.5065 3.67457L3.28413 4.06441C2.37284 4.22321 1.76033 5.06621 1.88971 5.9819L2.20402 8.21703C2.22846 8.39142 2.17294 8.56463 2.04967 8.69127L0.48145 10.315C-0.160483 10.9792 -0.160483 12.0209 0.48145 12.6851L2.04967 14.3088C2.17074 14.4338 2.22846 14.6109 2.20402 14.7831L1.88917 17.0177C1.75979 17.9339 2.37284 18.7764 3.28354 18.9357L5.50646 19.3256C5.67806 19.3556 5.82909 19.4655 5.91017 19.6199L6.96637 21.6124C7.40063 22.4309 8.39188 22.753 9.22374 22.3454L11.2501 21.3536C11.4067 21.277 11.5933 21.277 11.7499 21.3536L13.7762 22.3454C14.02 22.4648 14.2771 22.5215 14.5303 22.5215C15.1412 22.5215 15.727 22.1911 16.0335 21.6124L17.0897 19.62C17.1719 19.4634 17.3197 19.3568 17.4935 19.3256L19.7158 18.9358C20.6271 18.777 21.2396 17.934 21.1102 17.0183L20.7959 14.7832C20.7714 14.6088 20.827 14.4356 20.9502 14.3089L22.5185 12.6852C23.1605 12.021 23.1605 10.9792 22.5185 10.3151ZM21.7006 11.8955L20.1323 13.5181C19.7642 13.899 19.5959 14.4177 19.6698 14.9419L19.9841 17.1765C20.0274 17.4819 19.8231 17.7629 19.5199 17.8162L17.2964 18.2061C16.7744 18.2977 16.3329 18.6192 16.0847 19.0874L15.0285 21.0793C14.8841 21.3525 14.5543 21.4602 14.2761 21.3242L12.2497 20.3318C12.0154 20.2175 11.7577 20.1597 11.5001 20.1597C11.2424 20.1597 10.9847 20.2175 10.7504 20.3324L8.72408 21.3236C8.44695 21.4602 8.11601 21.3525 7.97163 21.0793L6.91543 19.0868C6.66719 18.6181 6.22516 18.2972 5.70263 18.2061L3.48026 17.8157C3.17708 17.7624 2.97268 17.482 3.01545 17.1765L3.33031 14.9419C3.40416 14.4177 3.23588 13.8991 2.86828 13.5187L1.29952 11.8955C1.08574 11.6733 1.08574 11.3268 1.29952 11.1047L2.86775 9.48207C3.23592 9.10114 3.40416 8.58247 3.33031 8.05823L3.01599 5.82364C2.97268 5.51821 3.17703 5.23723 3.48021 5.1839L5.70371 4.79407C6.2257 4.70243 6.66719 4.38093 6.91539 3.91279L7.97159 1.92087C8.11597 1.64765 8.44695 1.54105 8.72403 1.67596L10.7504 2.66832C11.219 2.89711 11.781 2.89765 12.2497 2.66779L14.2761 1.67658C14.5537 1.53998 14.8841 1.6477 15.0285 1.92091L16.0847 3.91338C16.3329 4.38205 16.775 4.70306 17.2975 4.79412L19.5199 5.18449C19.8231 5.23781 20.0275 5.51821 19.9847 5.82368L19.6698 8.05828C19.596 8.58251 19.7643 9.10114 20.1319 9.48153L21.7006 11.1047C21.9144 11.3268 21.9144 11.6734 21.7006 11.8955Z" fill="black"/>
<path d="M15.314 7.68614C15.0918 7.464 14.732 7.464 14.5099 7.68614L7.68614 14.5099C7.464 14.732 7.464 15.0918 7.68614 15.314C7.79718 15.425 7.94268 15.4806 8.08819 15.4806C8.23369 15.4806 8.37919 15.4251 8.49024 15.314L15.314 8.49024C15.5361 8.2681 15.5361 7.90827 15.314 7.68614Z" fill="#72442F"/>
<path d="M10.9337 8.65802C10.9337 7.40299 9.91305 6.38232 8.65802 6.38232C7.40299 6.38232 6.38232 7.40299 6.38232 8.65802C6.38232 9.91305 7.40299 10.9337 8.65802 10.9337C9.91305 10.9337 10.9337 9.91305 10.9337 8.65802ZM7.51966 8.65802C7.51966 8.03051 8.03055 7.51961 8.65807 7.51961C9.28558 7.51961 9.79648 8.03051 9.79648 8.65802C9.79648 9.28554 9.28558 9.79643 8.65807 9.79643C8.03051 9.79643 7.51966 9.28554 7.51966 8.65802Z" fill="#72442F"/>
<path d="M14.3421 12.0664C13.0871 12.0664 12.0664 13.0871 12.0664 14.3421C12.0664 15.5971 13.0871 16.6178 14.3421 16.6178C15.5971 16.6178 16.6178 15.5971 16.6178 14.3421C16.6178 13.0871 15.5971 12.0664 14.3421 12.0664ZM14.3421 15.4805C13.7146 15.4805 13.2037 14.9696 13.2037 14.3421C13.2037 13.7145 13.7146 13.2036 14.3421 13.2036C14.9696 13.2036 15.4805 13.7145 15.4805 14.3421C15.4805 14.9696 14.9696 15.4805 14.3421 15.4805Z" fill="#72442F"/>
</g>
<defs>
<clipPath id="clip0_7_2122">
<rect width="23" height="23" fill="white"/>
</clipPath>
</defs>
</svg>
