<svg width="60" height="60" viewBox="0 0 60 60" fill="none" xmlns="http://www.w3.org/2000/svg">
<circle cx="30" cy="30" r="30" fill="#72442F" fill-opacity="0.1"/>
<path d="M43.5448 28.213L41.6181 25.9747C41.2498 25.5497 40.9523 24.7563 40.9523 24.1897V21.7813C40.9523 20.2797 39.7198 19.0472 38.2181 19.0472H35.8098C35.2573 19.0472 34.4498 18.7497 34.0248 18.3813L31.7864 16.4547C30.8089 15.6188 29.2081 15.6188 28.2164 16.4547L25.9922 18.3955C25.5672 18.7497 24.7597 19.0472 24.2072 19.0472H21.7564C20.2547 19.0472 19.0222 20.2797 19.0222 21.7813V24.2038C19.0222 24.7563 18.7247 25.5497 18.3705 25.9747L16.458 28.2272C15.6364 29.2047 15.6364 30.7913 16.458 31.7688L18.3705 34.0213C18.7247 34.4463 19.0222 35.2397 19.0222 35.7922V38.2147C19.0222 39.7163 20.2547 40.9488 21.7564 40.9488H24.2072C24.7597 40.9488 25.5672 41.2463 25.9922 41.6147L28.2306 43.5413C29.2081 44.3772 30.8089 44.3772 31.8006 43.5413L34.0389 41.6147C34.4639 41.2463 35.2573 40.9488 35.8239 40.9488H38.2323C39.7339 40.9488 40.9664 39.7163 40.9664 38.2147V35.8063C40.9664 35.2538 41.2639 34.4463 41.6323 34.0213L43.5589 31.783C44.3806 30.8055 44.3806 29.1905 43.5448 28.213ZM35.8948 27.3205L29.0523 34.163C28.8539 34.3613 28.5848 34.4747 28.3014 34.4747C28.0181 34.4747 27.7489 34.3613 27.5506 34.163L24.1222 30.7347C23.7114 30.3238 23.7114 29.6438 24.1222 29.233C24.533 28.8222 25.213 28.8222 25.6239 29.233L28.3014 31.9105L34.3931 25.8188C34.8039 25.408 35.4839 25.408 35.8948 25.8188C36.3056 26.2297 36.3056 26.9097 35.8948 27.3205Z" fill="#72442F"/>
</svg>
