<svg width="133" height="157" viewBox="0 0 133 157" fill="none" xmlns="http://www.w3.org/2000/svg">
<circle cx="66.5" cy="66.5" r="66.5" fill="#72442F" fill-opacity="0.1"/>
<g clip-path="url(#clip0_2145_8)">
<path d="M41.2188 130.906V133.116L43.425 133.245C53.6259 133.848 61.9758 127.493 67 118.541C71.9722 127.401 80.2928 133.849 90.575 133.245L92.7812 133.116V130.906C92.7812 116.497 86.0563 111.667 80.6531 107.786C79.2875 106.806 78.0422 105.909 77.0078 104.934C74.1266 108.105 70.6672 109.812 67 109.812C63.3359 109.812 59.8781 108.105 56.9969 104.931C55.9609 105.908 54.7141 106.805 53.3469 107.786C47.9437 111.667 41.2188 116.497 41.2188 130.906Z" fill="#72442F"/>
<path d="M67 105.125C73.8791 105.125 78.7188 94.8902 78.7188 88.7188C78.7188 82.257 73.4617 77 67 77C60.5383 77 55.2812 82.257 55.2812 88.7188C55.2812 94.8966 60.1389 105.125 67 105.125Z" fill="#72442F"/>
<path d="M102.313 116.844C102.313 121.464 101.431 125.954 99.6921 130.188L104.028 131.969C106 127.166 107 122.078 107 116.844C107 102.363 99.1248 89.0013 86.4475 81.9736L84.1748 86.0733C95.3626 92.2752 102.313 104.066 102.313 116.844Z" fill="#72442F"/>
<path d="M34.308 130.188C32.5692 125.954 31.6875 121.464 31.6875 116.844C31.6875 104.066 38.6375 92.2752 49.8253 86.0733L47.5527 81.9736C34.8753 89.0013 27 102.363 27 116.844C27 122.078 27.9998 127.166 29.9717 131.969L34.308 130.188Z" fill="#72442F"/>
<path d="M102.466 138.59C102.038 138.642 81.4253 133.747 67.0019 150.848C52.4684 133.551 32.1245 138.662 31.5338 138.59C31.5503 138.626 31.9692 146.802 37.8177 152.312H27V157H107V152.312H96.0548C102.166 146.802 102.169 139.677 102.466 138.59Z" fill="#72442F"/>
<path d="M67.0002 126.626C63.4658 130.796 60.055 133.856 54.9564 135.944C54.9064 136.044 54.8549 136.142 54.8018 136.241C58.913 137.852 63.2419 140.525 67.0127 144.051C70.8039 140.533 75.2432 137.834 79.2314 136.305C79.1689 136.186 79.1049 136.066 79.0439 135.944C73.976 133.869 70.5522 130.824 67.0002 126.626Z" fill="#72442F"/>
</g>
<defs>
<clipPath id="clip0_2145_8">
<rect width="80" height="80" fill="white" transform="translate(27 77)"/>
</clipPath>
</defs>
</svg>
