<svg width="133" height="157" viewBox="0 0 133 157" fill="none" xmlns="http://www.w3.org/2000/svg">
<circle cx="66.5" cy="66.5" r="66.5" fill="#72442F" fill-opacity="0.1"/>
<path d="M61.0469 94.875C61.7031 94.7813 62.25 94.4375 62.4688 93.7969C63.9531 90.9375 67.6875 90.2813 70.5625 91.1719C76.5 92.625 80.2031 99.8125 76.3594 105C74.6406 104.063 73.1875 102.656 72.2031 100.953C72.0313 100.656 71.8438 100.313 71.5156 100.172C71.2031 100.031 70.8125 100.109 70.4688 100.188C68.5625 100.594 66.5781 100.578 64.6875 100.125C64.3594 100.031 63.9844 99.9375 63.6563 100.063C63.2813 100.203 63.0781 100.563 62.8594 100.891C61.8281 102.547 60.4375 103.969 58.7813 105.047C58.4531 105.094 57.3281 102.531 57.25 102.281C56.1563 99.2344 57.8594 95.6563 61.0469 94.875ZM75.7813 106.688C73.7031 105.563 71.9844 103.906 70.7188 101.922C68.6094 102.313 66.4531 102.313 64.3438 101.828C63.0938 103.781 61.4688 105.391 59.5156 106.641H59.5C60.3281 117.953 74.9219 118.016 75.7813 106.688ZM63.2656 115.922C63.0625 116.656 63.0156 117.469 62.9063 118.234C64.4375 119.125 65.9531 120.016 67.4844 120.906C69.0156 120.016 70.5469 119.125 72.0625 118.25C71.9531 117.484 71.8438 116.734 71.7344 115.969C70.375 116.641 68.8438 116.953 67.3281 116.891C65.875 116.859 64.5938 116.047 63.2656 115.922ZM71.0625 124.953C71.625 125.656 72.25 126.422 72.7969 127.109C73.8906 124.547 74.9844 121.984 76.0781 119.422C75.2344 119.047 74.2188 118.938 73.4219 119.453C73.4219 119.453 73.4219 119.453 73.4063 119.453C73.0313 119.688 69.2656 121.875 68.7969 122.156L71.0625 124.953C71.0469 124.953 71.0469 124.953 71.0625 124.953ZM67.5156 123.313C66.9531 124.047 66.4063 124.781 65.8594 125.516L67.5 127.125L69.2188 125.438L67.5156 123.313ZM62.375 127.281C63.625 125.594 64.9688 123.844 66.2188 122.188L61.5469 119.453C60.7344 118.984 59.75 119.063 58.9219 119.438L62.375 127.281ZM67.5 149.313L69.875 144.406L67.5 131.234L65.125 144.406L67.5 149.313ZM86.0156 125.469C85.6563 123.859 84.4844 122.5 82.9219 121.938L77.6875 120.031C76.4063 123.063 75.1094 126.094 73.8125 129.125C73.6875 129.406 73.4375 129.594 73.1406 129.641C72.625 129.75 72.2656 129.25 72 128.906C71.4375 128.188 70.875 127.484 70.2969 126.781V126.766L68.7188 128.328L71.6094 144.375C71.6406 144.563 71.625 144.75 71.5469 144.906L68.2813 151.656C68.1406 151.953 67.8438 152.141 67.5 152.141C67.1719 152.141 66.875 151.953 66.7188 151.656L63.4531 144.906C63.375 144.75 63.3438 144.547 63.375 144.375L66.2813 128.328L64.8125 126.906L62.8594 129.5C62.4844 130.016 61.6094 129.922 61.375 129.328L57.2969 120.031L52.0313 121.953C50.4688 122.516 49.2969 123.875 48.9375 125.484L43.3281 151.063C43.0938 152.141 43.3438 153.234 44.0313 154.109C44.7188 154.969 45.75 155.453 46.8438 155.453H54.0625V147.469C54.0625 146.984 54.4531 146.609 54.9219 146.609C55.3906 146.609 55.7813 146.984 55.7813 147.469V155.438H79.1875V147.453C79.1875 146.969 79.5625 146.594 80.0469 146.594C80.5156 146.594 80.9063 146.969 80.9063 147.453V155.438H88.125C90.3594 155.5 92.1875 153.219 91.6406 151.047L86.0156 125.469ZM33.0625 92.5H35.2813C35.75 92.5 36.1406 92.8906 36.1406 93.3594V107.938H39.8281V93.3594C39.8281 92.8906 40.2188 92.5 40.6875 92.5H42.9063L37.9844 85.1719L33.0625 92.5ZM101.922 120.781L97 128.109H99.2188C99.6875 128.109 100.078 128.5 100.078 128.969V143.547H103.766V128.969C103.766 128.5 104.141 128.109 104.625 128.109H106.844L101.922 120.781ZM32.0938 133.875H32.8125C33.2813 133.875 33.6719 134.266 33.6719 134.734V143.313H35.25V134.734C35.25 134.266 35.6406 133.875 36.1094 133.875H36.8438L34.4688 130.328L32.0938 133.875ZM86.7188 88.2188V96.7031H88.2813V88.2188C88.2813 87.75 88.6719 87.3594 89.1406 87.3594H89.8438L87.5 83.875L85.1563 87.3594H85.8594C86.3438 87.3594 86.7188 87.75 86.7188 88.2188ZM98.5781 112.672C98.5781 110.828 100.078 109.328 101.922 109.328C103.047 109.328 103.047 107.609 101.922 107.609C100.078 107.609 98.5781 106.109 98.5781 104.266C98.5781 103.141 96.8594 103.141 96.8594 104.266C96.8594 106.109 95.3594 107.609 93.5156 107.609C92.3906 107.609 92.3906 109.328 93.5156 109.328C95.3594 109.328 96.8594 110.828 96.8594 112.672C96.875 113.797 98.5625 113.797 98.5781 112.672ZM36.4219 116.875C34.5781 116.875 33.0781 115.375 33.0781 113.531C33.0625 112.406 31.375 112.391 31.3594 113.531C31.3594 115.375 29.8594 116.875 28.0156 116.875C26.8906 116.891 26.875 118.578 28.0156 118.594C29.875 118.594 31.3594 120.094 31.3594 121.938C31.375 123.063 33.0625 123.078 33.0781 121.938C33.0781 120.078 34.5781 118.594 36.4219 118.594C37.5625 118.578 37.5625 116.906 36.4219 116.875ZM50.7031 84.4844C52.5469 84.4844 54.0469 85.9844 54.0469 87.8281C54.0625 88.9531 55.75 88.9688 55.7656 87.8281C55.7656 85.9688 57.2656 84.4844 59.1094 84.4844C60.2344 84.4688 60.25 82.7813 59.1094 82.7656C57.25 82.7656 55.7656 81.2656 55.7656 79.4219C55.75 78.2969 54.0625 78.2813 54.0469 79.4219C54.0469 81.2656 52.5469 82.7656 50.7031 82.7656C49.5781 82.7813 49.5781 84.4688 50.7031 84.4844Z" fill="#72442F"/>
</svg>
