<svg width="133" height="155" viewBox="0 0 133 155" fill="none" xmlns="http://www.w3.org/2000/svg">
<circle cx="66.5" cy="66.5" r="66.5" fill="#72442F" fill-opacity="0.1"/>
<path d="M93.2403 88.4399C93.067 88.4533 75.347 89.9733 66.9203 82.0399C66.4136 81.5466 65.6136 81.5466 65.0936 82.0399C56.667 89.9733 38.9603 88.4533 38.7736 88.4399C38.4003 88.3999 38.0403 88.5333 37.7603 88.7866C37.4803 89.0399 37.3203 89.3866 37.3203 89.7599V102.12C37.3203 143.413 65.5203 148.28 65.8003 148.32C65.867 148.333 65.947 148.333 66.0136 148.333C66.0803 148.333 66.147 148.333 66.2136 148.32C66.4936 148.28 94.6936 143.413 94.6936 102.12V89.7599C94.6936 89.3866 94.5336 89.0399 94.267 88.7866C93.987 88.5333 93.6137 88.3999 93.2403 88.4399ZM80.2536 118.387C80.2536 119.12 79.6536 119.72 78.9203 119.72H70.707V127.933C70.707 128.667 70.107 129.267 69.3736 129.267H62.627C61.8936 129.267 61.2936 128.667 61.2936 127.933V119.72H53.0803C52.347 119.72 51.747 119.12 51.747 118.387V111.64C51.747 110.907 52.347 110.307 53.0803 110.307H61.2936V102.093C61.2936 101.36 61.8936 100.76 62.627 100.76H69.3736C70.107 100.76 70.707 101.36 70.707 102.093V110.307H78.9203C79.6536 110.307 80.2536 110.907 80.2536 111.64V118.387Z" fill="#72442F"/>
</svg>
