<svg width="60" height="60" viewBox="0 0 60 60" fill="none" xmlns="http://www.w3.org/2000/svg">
<g clip-path="url(#clip0_4064_29)">
<path fill-rule="evenodd" clip-rule="evenodd" d="M22.5671 16.1103L20.4319 17.343L27.2697 21.2908V24.4L25.2867 25.5448V22.4357L18.4489 18.4879L16.3138 19.7206C16.1279 19.8279 16.0215 20.0122 16.0215 20.2268V27.4476C16.0215 27.6622 16.1279 27.8465 16.3138 27.9538L22.5671 31.5641C22.7529 31.6714 22.9657 31.6714 23.1515 31.5641L29.4048 27.9538C29.5907 27.8465 29.6971 27.6622 29.6971 27.4476V20.2268C29.6971 20.0122 29.5907 19.8279 29.4048 19.7206L23.1515 16.1103C22.9657 16.003 22.7529 16.003 22.5671 16.1103ZM24.8817 37.5831L25.0168 36.3147L28.0972 39.122L24.4579 41.5628L24.5878 40.3435C19.9241 39.8469 17.6026 35.7034 18.9891 32.9521C19.4279 35.9506 23.2402 37.4083 24.8817 37.5831ZM35.2197 22.3585L35.0847 23.6269L32.0043 20.8196L35.6436 18.3787L35.5138 19.5981C40.1775 20.0947 42.4989 24.2382 41.1124 26.9894C40.6735 23.9909 36.8613 22.5332 35.2197 22.3585ZM36.9498 28.3775L34.8147 29.6102L41.6525 33.558V36.6672L39.6695 37.812V34.7029L32.8317 30.7551L30.6965 31.9878C30.5106 32.0951 30.4042 32.2793 30.4042 32.494V39.7147C30.4042 39.9294 30.5106 40.1136 30.6965 40.2209L36.9498 43.8312C37.1357 43.9386 37.3485 43.9386 37.5343 43.8312L43.7876 40.2209C43.9735 40.1136 44.0799 39.9294 44.0799 39.7147V32.494C44.0799 32.2793 43.9735 32.0951 43.7876 31.9878L37.5343 28.3775C37.3485 28.2702 37.1357 28.2701 36.9498 28.3775Z" fill="#72442F"/>
</g>
<circle cx="30" cy="30" r="30" fill="#72442F" fill-opacity="0.1"/>
<defs>
<clipPath id="clip0_4064_29">
<rect width="27.0063" height="28" fill="white" transform="translate(16 16)"/>
</clipPath>
</defs>
</svg>
