<svg width="20" height="20" viewBox="0 0 20 20" fill="none" xmlns="http://www.w3.org/2000/svg">
<g clip-path="url(#clip0_191_539)">
<path d="M19.4005 11.2129C19.7273 11.2129 19.9922 10.948 19.9922 10.6212L19.9922 1.93147C19.9922 1.60471 19.7273 1.33982 19.4005 1.33982L15.836 1.33982L15.836 11.2129L19.4005 11.2129Z" fill="#A7A7A7"/>
<path d="M0.00752926 7.94579C0.00752926 8.69685 0.411086 9.35544 1.01273 9.71615C0.782219 10.049 0.647024 10.4528 0.647024 10.8874C0.647024 12.0247 1.57226 12.9499 2.70949 12.9499L7.06332 12.9499C6.92989 13.5546 6.74739 14.462 6.62032 15.4119C6.28961 17.8838 6.51563 19.2547 7.33153 19.7261C7.8402 20.02 8.38864 20.0796 8.87583 19.8941C9.2522 19.7508 9.76048 19.3983 10.0501 18.5333L11.1944 15.5371C11.7745 14.1044 13.5511 12.6003 14.6528 11.7687L14.6528 1.07808C12.6109 0.362616 10.4801 -4.19617e-05 8.30626 -4.19617e-05L3.56226 -4.19617e-05C2.42504 -4.19617e-05 1.4998 0.925194 1.4998 2.06242C1.4998 2.46067 1.61328 2.83293 1.80956 3.14852C1.12202 3.48336 0.6471 4.18938 0.6471 5.00411C0.6471 5.4388 0.782295 5.84251 1.0128 6.1754C0.411084 6.5361 0.00752926 7.19474 0.00752926 7.94579Z" fill="#A7A7A7"/>
</g>
<defs>
<clipPath id="clip0_191_539">
<rect width="20" height="20" fill="white" transform="matrix(-1 0 0 -1 20 20)"/>
</clipPath>
</defs>
</svg>
