<svg width="20" height="20" viewBox="0 0 20 20" fill="none" xmlns="http://www.w3.org/2000/svg">
<g clip-path="url(#clip0_191_532)">
<path d="M0.59921 8.78711C0.272452 8.78711 0.00756836 9.05203 0.00756836 9.37875V18.0685C0.00756836 18.3953 0.272491 18.6602 0.59921 18.6602H4.16379V8.78711H0.59921Z" fill="#A7A7A7"/>
<path d="M19.9925 12.0542C19.9925 11.3032 19.5889 10.6446 18.9873 10.2839C19.2178 9.951 19.353 9.54721 19.353 9.11256C19.353 7.97533 18.4277 7.0501 17.2905 7.0501H12.9367C13.0701 6.44541 13.2526 5.53802 13.3797 4.58814C13.7104 2.11622 13.4844 0.745317 12.6685 0.27387C12.1598 -0.0199973 11.6114 -0.0796068 11.1242 0.105862C10.7478 0.249222 10.2395 0.601684 9.94987 1.46672L8.80557 4.46286C8.22546 5.89556 6.44893 7.39967 5.34717 8.23135V18.9219C7.38913 19.6374 9.51991 20 11.6937 20H16.4377C17.575 20 18.5002 19.0748 18.5002 17.9376C18.5002 17.5393 18.3867 17.1671 18.1904 16.8515C18.878 16.5166 19.3529 15.8106 19.3529 14.9959C19.3529 14.5612 19.2177 14.1575 18.9872 13.8246C19.5889 13.4639 19.9925 12.8053 19.9925 12.0542Z" fill="#A7A7A7"/>
</g>
<defs>
<clipPath id="clip0_191_532">
<rect width="20" height="20" fill="white"/>
</clipPath>
</defs>
</svg>
