<svg width="17" height="16" viewBox="0 0 17 16" fill="none" xmlns="http://www.w3.org/2000/svg">
<path d="M9.65432 8.00267L5.17136 3.69288C5.04793 3.57449 4.98002 3.41621 4.98002 3.24744C4.98002 3.07857 5.04793 2.92038 5.17136 2.80181L5.56419 2.42437C5.68743 2.30561 5.85218 2.24024 6.02774 2.24024C6.2033 2.24024 6.36785 2.30561 6.49119 2.42437L11.8289 7.55554C11.9527 7.67449 12.0205 7.83343 12.02 8.00239C12.0205 8.1721 11.9528 8.33085 11.8289 8.44989L6.49616 13.5761C6.37282 13.6949 6.20827 13.7602 6.03261 13.7602C5.85705 13.7602 5.6925 13.6949 5.56906 13.5761L5.17633 13.1987C4.92079 12.953 4.92079 12.5531 5.17633 12.3075L9.65432 8.00267Z" fill="white"/>
</svg>
