<svg width="30" height="30" viewBox="0 0 30 30" fill="none" xmlns="http://www.w3.org/2000/svg">
<g clip-path="url(#clip0_119_480)">
<path d="M29.6334 27.8661L21.1023 19.3349C22.7548 17.2937 23.7498 14.7 23.7498 11.875C23.7498 5.32759 18.4223 0.00012207 11.8748 0.00012207C5.32741 0.00012207 0 5.32753 0 11.875C0 18.4224 5.32747 23.7499 11.8749 23.7499C14.6999 23.7499 17.2936 22.7549 19.3348 21.1024L27.866 29.6336C28.1097 29.8773 28.4297 29.9998 28.7497 29.9998C29.0698 29.9998 29.3898 29.8773 29.6335 29.6336C30.1222 29.1448 30.1222 28.3548 29.6334 27.8661ZM11.8749 21.2499C6.70494 21.2499 2.5 17.0449 2.5 11.875C2.5 6.705 6.70494 2.50006 11.8749 2.50006C17.0449 2.50006 21.2498 6.705 21.2498 11.875C21.2498 17.0449 17.0448 21.2499 11.8749 21.2499Z" fill="white"/>
</g>
<defs>
<clipPath id="clip0_119_480">
<rect width="30" height="30" fill="white"/>
</clipPath>
</defs>
</svg>
