<svg width="60" height="60" viewBox="0 0 60 60" fill="none" xmlns="http://www.w3.org/2000/svg">
<circle cx="30" cy="30" r="30" fill="#72442F" fill-opacity="0.1"/>
<g clip-path="url(#clip0_276_326)">
<path d="M29.4996 23.832C25.8223 23.832 22.8308 26.8235 22.8308 30.5005C22.8308 34.1777 25.8223 37.1693 29.4996 37.1693C33.1765 37.1693 36.1681 34.1777 36.1681 30.5005C36.1681 26.8235 33.1765 23.832 29.4996 23.832ZM33.4588 29.2447L28.6814 34.0221C28.4809 34.2226 28.2178 34.323 27.9551 34.323C27.6923 34.323 27.4296 34.2229 27.229 34.0221L25.4034 32.1964C25.0023 31.7956 25.0023 31.1454 25.4034 30.7443C25.8042 30.3432 26.4544 30.3432 26.8555 30.7443L27.9551 31.8439L32.0067 27.7926C32.4075 27.3915 33.0577 27.3915 33.4588 27.7926C33.8599 28.1934 33.8599 28.8436 33.4588 29.2447Z" fill="#72442F"/>
<path d="M44.3673 22.4963L44.3662 22.4691C44.351 22.1329 44.3408 21.7772 44.3347 21.3815C44.3061 19.4517 42.772 17.8554 40.842 17.7475C36.8178 17.5229 33.7048 16.2108 31.045 13.6182L31.0223 13.5965C30.1547 12.8011 28.846 12.8011 27.9782 13.5965L27.9555 13.6182C25.2956 16.2108 22.1826 17.5229 18.1585 17.7478C16.2287 17.8554 14.6943 19.4517 14.6657 21.3818C14.6599 21.7748 14.6494 22.1305 14.6342 22.4691L14.6326 22.5324C14.5544 26.6358 14.4572 31.7427 16.1656 36.378C17.105 38.9271 18.5278 41.1429 20.394 42.9643C22.5196 45.0386 25.3036 46.6853 28.6687 47.8587C28.7782 47.8968 28.8919 47.9278 29.0078 47.951C29.1712 47.9836 29.3357 47.9999 29.5002 47.9999C29.6647 47.9999 29.8295 47.9836 29.9926 47.951C30.1085 47.9278 30.2231 47.8966 30.3331 47.8581C33.6942 46.6827 36.4753 45.0351 38.5989 42.9611C40.4644 41.1392 41.8871 38.9228 42.8273 36.3732C44.5422 31.724 44.4452 26.6075 44.3673 22.4963ZM29.4997 39.223C24.69 39.223 20.7772 35.3102 20.7772 30.5005C20.7772 25.6908 24.69 21.778 29.4997 21.778C34.3091 21.778 38.2221 25.6908 38.2221 30.5005C38.2221 35.3102 34.3091 39.223 29.4997 39.223Z" fill="#72442F"/>
</g>
<defs>
<clipPath id="clip0_276_326">
<rect width="35" height="35" fill="white" transform="translate(12 13)"/>
</clipPath>
</defs>
</svg>
