<svg width="60" height="60" viewBox="0 0 60 60" fill="none" xmlns="http://www.w3.org/2000/svg">
<circle cx="30" cy="30" r="30" fill="#72442F" fill-opacity="0.1"/>
<g clip-path="url(#clip0_2377_293)">
<path d="M40.2307 36.7307C39.4326 36.7307 38.6861 36.3381 38.234 35.6804L37.0483 33.9557C35.6515 36.4601 32.9963 38.0769 30 38.0769C25.8191 38.0769 22.3698 34.8834 21.9632 30.8077H22.7308C23.0307 30.8077 23.306 30.6415 23.4456 30.376C23.5852 30.1106 23.5663 29.7895 23.3963 29.5424L22.2189 27.8298L20.4348 25.2347C20.2842 25.0156 20.0353 24.8846 19.7693 24.8846C19.736 24.8846 19.703 24.8866 19.6704 24.8906C19.6378 24.8946 19.6057 24.9006 19.5742 24.9084C19.4953 24.9281 19.4201 24.9594 19.351 25.0012C19.2543 25.0597 19.1696 25.1388 19.1037 25.2346L16.1421 29.5424C15.9722 29.7895 15.9532 30.1106 16.0928 30.376C16.2325 30.6414 16.5078 30.8077 16.8077 30.8077H17.6412C17.8333 33.8118 19.0951 36.6096 21.2428 38.7573C23.582 41.0964 26.692 42.3847 30 42.3847C33.3081 42.3847 36.4181 41.0964 38.7572 38.7573C39.3791 38.1354 39.9297 37.4533 40.4025 36.7241C40.3455 36.7281 40.2883 36.7307 40.2307 36.7307Z" fill="#72442F"/>
<path d="M30.6155 29.1923H29.3848C29.1515 29.1923 28.9617 29.0025 28.9617 28.7692V28.1538C28.9617 27.9206 29.1515 27.7308 29.3848 27.7308H30.6155C30.8488 27.7308 31.0386 27.9206 31.0386 28.1538C31.0386 28.5999 31.4002 28.9615 31.8463 28.9615C32.2923 28.9615 32.6539 28.5999 32.6539 28.1538C32.6539 27.0948 31.8419 26.222 30.8077 26.1248V25.6924C30.8077 25.2463 30.4461 24.8847 30.0001 24.8847C29.554 24.8847 29.1924 25.2463 29.1924 25.6924V26.1248C28.1582 26.222 27.3462 27.0948 27.3462 28.1538V28.7692C27.3462 29.8933 28.2606 30.8077 29.3847 30.8077H30.6154C30.8487 30.8077 31.0385 30.9975 31.0385 31.2308V31.8462C31.0385 32.0794 30.8486 32.2692 30.6154 32.2692H29.3847C29.1514 32.2692 28.9616 32.0795 28.9616 31.8462C28.9616 31.4001 28.6 31.0385 28.1539 31.0385C27.7079 31.0385 27.3462 31.4002 27.3462 31.8462C27.3462 32.9053 28.1582 33.778 29.1924 33.8753V34.3076C29.1924 34.7537 29.5541 35.1153 30.0001 35.1153C30.4462 35.1153 30.8078 34.7537 30.8078 34.3076V33.8752C31.8419 33.778 32.654 32.9052 32.654 31.8462V31.2308C32.6539 30.1067 31.7396 29.1923 30.6155 29.1923Z" fill="#72442F"/>
<path d="M43.9072 29.624C43.7676 29.3586 43.4923 29.1923 43.1924 29.1923H42.3589C42.1668 26.1883 40.905 23.3905 38.7573 21.2427C36.4182 18.9036 33.3081 17.6154 30.0001 17.6154C26.6921 17.6154 23.582 18.9036 21.2429 21.2428C20.6211 21.8646 20.0704 22.5468 19.5977 23.2759C19.6546 23.2719 19.7118 23.2693 19.7694 23.2693C20.5675 23.2693 21.314 23.6619 21.7661 24.3196L22.9518 26.0443C24.3486 23.5399 27.0038 21.9231 30.0001 21.9231C34.181 21.9231 37.6303 25.1167 38.0369 29.1924H37.2693C36.9694 29.1924 36.6941 29.3586 36.5545 29.6241C36.4149 29.8895 36.4338 30.2105 36.6037 30.4577L37.7812 32.1702L39.5653 34.7654C39.603 34.8202 39.6468 34.8695 39.6954 34.9125C39.8415 35.0418 40.0314 35.1155 40.2309 35.1155C40.4968 35.1155 40.7458 34.9845 40.8965 34.7654L41.9658 33.2099L43.858 30.4577C44.0279 30.2104 44.0469 29.8894 43.9072 29.624Z" fill="#72442F"/>
</g>
<defs>
<clipPath id="clip0_2377_293">
<rect width="28" height="28" fill="white" transform="translate(16 16)"/>
</clipPath>
</defs>
</svg>
