<svg width="33" height="33" viewBox="0 0 33 33" fill="none" xmlns="http://www.w3.org/2000/svg">
<circle cx="16.7211" cy="16.0577" r="16.061" fill="#E3DAD5"/>
<g clip-path="url(#clip0_329_140)">
<path d="M23.1006 24.3316H10.3452C9.29924 24.3316 8.44922 23.4814 8.44922 22.4356V12.438C8.44922 11.3921 9.29924 10.5421 10.3452 10.5421H12.7584C13.0439 10.5421 13.2755 10.7737 13.2755 11.0592C13.2755 11.3446 13.0439 11.5763 12.7584 11.5763H10.3452C9.87013 11.5763 9.48344 11.963 9.48344 12.438V22.4356C9.48344 22.9105 9.87013 23.2973 10.3452 23.2973H23.1006C23.5757 23.2973 23.9625 22.9105 23.9625 22.4356V16.5749C23.9625 16.2895 24.1942 16.0578 24.4796 16.0578C24.7651 16.0578 24.9967 16.2895 24.9967 16.5749V22.4356C24.9967 23.4814 24.1466 24.3316 23.1006 24.3316Z" fill="#242424"/>
<path d="M13.1023 18.8069C13.0644 18.8069 13.0264 18.8027 12.9885 18.793C12.7549 18.7386 12.5859 18.5386 12.5859 18.2987V17.2645C12.5859 13.5579 15.6017 10.5421 19.3084 10.5421H19.4807V8.30117C19.4807 8.09021 19.609 7.90059 19.8048 7.82131C19.9998 7.74278 20.2239 7.79025 20.3701 7.94263L24.8518 12.5966C25.0448 12.7966 25.0448 13.1137 24.8518 13.3137L20.3701 17.9677C20.2239 18.1201 19.9984 18.167 19.8048 18.089C19.609 18.0097 19.4807 17.8201 19.4807 17.6091V15.3684H18.6616C16.4925 15.3684 14.5433 16.5735 13.574 18.5131C13.4849 18.6923 13.2981 18.8069 13.1023 18.8069ZM19.3084 11.5763C16.4125 11.5763 14.0146 13.7515 13.6636 16.5542C14.917 15.156 16.7145 14.3342 18.6616 14.3342H19.9978C20.2832 14.3342 20.5149 14.5658 20.5149 14.8513V16.3267L23.7616 12.9552L20.5149 9.58359V11.0592C20.5149 11.3446 20.2832 11.5763 19.9978 11.5763H19.3084Z" fill="#242424"/>
</g>
<defs>
<clipPath id="clip0_329_140">
<rect width="16.5477" height="16.5477" fill="white" transform="translate(8.44922 7.78394)"/>
</clipPath>
</defs>
</svg>
