<svg width="30" height="30" viewBox="0 0 30 30" fill="none" xmlns="http://www.w3.org/2000/svg">
<path d="M15 0C12.0333 0 9.13319 0.879735 6.66645 2.52796C4.19972 4.17618 2.27713 6.51886 1.14181 9.25975C0.00649926 12.0006 -0.290551 15.0166 0.288228 17.9264C0.867006 20.8361 2.29562 23.5088 4.3934 25.6066C6.49119 27.7044 9.16394 29.133 12.0737 29.7118C14.9834 30.2906 17.9994 29.9935 20.7403 28.8582C23.4811 27.7229 25.8238 25.8003 27.472 23.3335C29.1203 20.8668 30 17.9667 30 15C30 13.0302 29.612 11.0796 28.8582 9.25975C28.1044 7.43986 26.9995 5.78628 25.6066 4.3934C24.2137 3.00052 22.5601 1.89563 20.7403 1.14181C18.9204 0.387986 16.9698 0 15 0ZM23.52 14.31L20.325 17.58L21.075 22.23C21.127 22.5127 21.0966 22.8043 20.9876 23.0702C20.8786 23.3362 20.6954 23.5652 20.46 23.73C20.2287 23.8904 19.9569 23.9825 19.6758 23.9958C19.3946 24.0091 19.1154 23.9429 18.87 23.805L15 21.63L11.1 23.775C10.8819 23.9035 10.6332 23.9708 10.38 23.97C10.069 23.9724 9.76501 23.878 9.51 23.7C9.27456 23.5352 9.09143 23.3062 8.9824 23.0402C8.87338 22.7743 8.84304 22.4827 8.89501 22.2L9.66 17.55L6.45001 14.31C6.25596 14.1122 6.12047 13.8646 6.05857 13.5945C5.99666 13.3245 6.01077 13.0426 6.09932 12.78C6.18786 12.5175 6.34739 12.2846 6.56021 12.1072C6.77303 11.9298 7.03082 11.8148 7.30501 11.775L11.67 11.1L13.635 6.93C13.7465 6.6584 13.9353 6.42552 14.178 6.2602C14.4206 6.09488 14.7064 6.00441 15 6C15.2853 5.99796 15.5652 6.07731 15.807 6.22875C16.0488 6.38019 16.2423 6.59743 16.365 6.855L18.315 11.1L22.68 11.775C22.9532 11.8158 23.2097 11.9312 23.4215 12.1086C23.6332 12.2859 23.7919 12.5182 23.88 12.78C23.9674 13.0434 23.98 13.3258 23.9164 13.5959C23.8529 13.866 23.7157 14.1132 23.52 14.31Z" fill="#72442F"/>
</svg>
