<svg width="60" height="60" viewBox="0 0 60 60" fill="none" xmlns="http://www.w3.org/2000/svg">
<circle cx="30" cy="30" r="30" fill="#72442F" fill-opacity="0.1"/>
<g clip-path="url(#clip0_4064_40)">
<path fill-rule="evenodd" clip-rule="evenodd" d="M25.4614 39.6064L25.5265 39.5829L21.3084 43.7993C21.1006 44.0087 20.7954 44.058 20.5319 43.9262C20.2666 43.7944 20.1228 43.5215 20.1627 43.2283L20.4772 40.9823C20.5067 40.7669 20.44 40.5667 20.2847 40.4119C20.131 40.2583 19.9314 40.1905 19.7143 40.2211L17.4683 40.5344C17.1768 40.5749 16.9022 40.4322 16.7704 40.1669C16.6403 39.9033 16.6901 39.5982 16.8973 39.3887L20.4629 35.8231L21.3079 35.9658C21.5747 36.009 21.7623 36.1797 21.8301 36.4416L22.2239 37.9313C22.4054 38.6182 22.8408 39.159 23.4719 39.4861C24.1019 39.8126 24.7975 39.8547 25.4614 39.6064ZM43.1008 39.3898L39.6763 35.9653L38.2747 36.3355C38.0127 36.4055 37.8421 36.5915 37.7989 36.8578L37.6376 37.8176C37.52 38.5181 37.1366 39.0978 36.5383 39.4812C35.9816 39.8377 35.3445 39.9542 34.7058 39.8158L38.6897 43.7998C38.8992 44.0093 39.2027 44.0585 39.4679 43.9267C39.7315 43.7949 39.8759 43.522 39.8354 43.2289L39.5221 40.9829C39.4909 40.7674 39.5576 40.5673 39.7129 40.4125C39.8677 40.2588 40.0662 40.191 40.2833 40.2216L42.5294 40.535C42.8225 40.5755 43.0954 40.4327 43.2272 40.1675C43.3595 39.9044 43.3103 39.5987 43.1008 39.3898ZM34.8058 38.9124L33.3194 38.5077C32.7162 38.3437 32.1086 38.5373 31.7116 39.019L31.0931 39.7694C30.8033 40.1199 30.4188 40.3119 29.9644 40.3321C29.5099 40.354 29.1101 40.197 28.7891 39.8749L27.7041 38.7823C27.2622 38.3387 26.6421 38.2026 26.0564 38.4213L25.1447 38.7609C24.7182 38.9206 24.2905 38.8944 23.8858 38.6865C23.4811 38.4771 23.2132 38.1424 23.0967 37.7022L22.7029 36.2125C22.5433 35.6076 22.0735 35.18 21.4583 35.0761L20.4985 34.9148C20.049 34.8404 19.6924 34.603 19.4458 34.2202C19.2008 33.8374 19.1357 33.4125 19.2549 32.9739L19.6579 31.4875C19.822 30.8843 19.6284 30.2767 19.1477 29.8797L18.3974 29.2612C18.0458 28.9713 17.8549 28.5869 17.833 28.1324C17.8128 27.678 17.9681 27.2782 18.2902 26.9572L19.3829 25.8705C19.8264 25.4303 19.9626 24.8101 19.7438 24.2244L19.4042 23.3128C19.2445 22.8862 19.2708 22.4586 19.4802 22.0539C19.6897 21.6492 20.0227 21.3812 20.4629 21.2648L21.9526 20.871C22.5575 20.7113 22.9868 20.2415 23.089 19.6247L23.2504 18.6665C23.3264 18.217 23.5621 17.8588 23.9449 17.6138C24.3294 17.3688 24.7526 17.3037 25.1912 17.423L26.6793 17.826C27.2825 17.9901 27.8884 17.7965 28.2854 17.3158L28.9056 16.5655C29.1954 16.2138 29.5783 16.023 30.0327 16.0011C30.4883 15.9808 30.8869 16.1362 31.2079 16.4583L32.2946 17.5509C32.7348 17.9944 33.3566 18.1306 33.9407 17.9119L34.8523 17.5723C35.2789 17.4126 35.7065 17.4388 36.1112 17.6483C36.5159 17.8577 36.7839 18.1908 36.9004 18.631L37.2941 20.1207C37.4538 20.7255 37.9236 21.1548 38.5404 21.2571L39.4986 21.4184C39.9481 21.4944 40.3063 21.7301 40.5513 22.113C40.7979 22.4974 40.863 22.9207 40.7438 23.3593L40.3391 24.8473C40.1761 25.4505 40.3686 26.0565 40.8504 26.4535L41.6008 27.0737C41.9513 27.3635 42.1433 27.7463 42.1635 28.2008C42.1854 28.6563 42.0284 29.055 41.7063 29.376L40.6136 30.4626C40.1701 30.9029 40.034 31.5247 40.2527 32.1087L40.5923 33.0204C40.752 33.4469 40.7274 33.8746 40.5179 34.2793C40.3085 34.684 39.9738 34.9519 39.5336 35.0684L38.0439 35.4622C37.439 35.6219 37.0114 36.0916 36.9075 36.7085L36.7461 37.6666C36.6718 38.1162 36.4344 38.4744 36.0516 38.7194C35.6694 38.9665 35.2444 39.0316 34.8058 38.9124ZM37.4997 28.168C37.4997 24.0369 34.131 20.6665 29.9999 20.6665C25.8688 20.6665 22.4984 24.0369 22.4984 28.168C22.4984 32.299 25.8683 35.6678 29.9999 35.6678C34.1315 35.6678 37.4997 32.299 37.4997 28.168ZM35.9001 28.168C35.9001 31.4169 33.2494 34.0682 29.9999 34.0682C26.7493 34.0682 24.098 31.4175 24.098 28.168C24.098 24.9173 26.7487 22.2666 29.9999 22.2666C33.2494 22.2661 35.9001 24.9168 35.9001 28.168ZM33.6618 27.3072C33.6104 27.1491 33.4682 27.0452 33.3019 27.0469L31.3272 27.0501C31.1598 27.0501 31.0187 26.9479 30.9662 26.7882L30.3603 24.9091C30.3089 24.7494 30.1683 24.6472 30.0004 24.6472C29.8326 24.6472 29.6904 24.7494 29.6395 24.9091L29.0336 26.7882C28.9822 26.9479 28.84 27.0501 28.6726 27.0501L26.6984 27.0469C26.5311 27.0452 26.3883 27.1491 26.3375 27.3072C26.2861 27.4669 26.3408 27.6342 26.4753 27.7321L28.0749 28.8887C28.21 28.9877 28.2641 29.1556 28.2127 29.3137L27.5986 31.1894C27.5461 31.3491 27.6002 31.5165 27.7347 31.6144C27.8709 31.7123 28.0465 31.7123 28.181 31.6144L29.7762 30.4501C29.9113 30.3522 30.0863 30.3522 30.2225 30.4501L31.8161 31.6144C31.9511 31.7123 32.1278 31.7123 32.2623 31.6144C32.3974 31.5165 32.4515 31.3491 32.4001 31.1894L31.786 29.3137C31.7335 29.1556 31.7876 28.9883 31.9238 28.8887L33.5223 27.7321C33.6601 27.6348 33.7143 27.4669 33.6618 27.3072Z" fill="#72442F"/>
</g>
<defs>
<clipPath id="clip0_4064_40">
<rect width="28" height="28" fill="white" transform="translate(16 16)"/>
</clipPath>
</defs>
</svg>
