<svg width="60" height="60" viewBox="0 0 60 60" fill="none" xmlns="http://www.w3.org/2000/svg">
<circle cx="30" cy="30" r="30" fill="#72442F" fill-opacity="0.1"/>
<path d="M39.069 17.1227C38.8558 16.8777 38.6518 16.8525 38.6259 16.85H22.374C22.3481 16.8525 22.144 16.878 21.9309 17.1227C21.6295 17.4688 21.2981 18.2539 21.4335 20.0277C21.5466 21.5134 21.9729 23.4314 22.7002 25.7285C22.8111 26.0785 22.9266 26.4204 23.0439 26.7456C24.1768 29.8956 25.7014 32.284 27.5753 33.845C27.9898 34.1927 28.435 34.502 28.9053 34.7693L28.9274 34.7819C29.6655 35.1942 30.236 35.3563 30.4992 35.4147C30.7628 35.3563 31.334 35.1939 32.0742 34.7802L32.0935 34.7693C32.5637 34.5017 33.0089 34.1922 33.4235 33.8446C35.2984 32.285 36.823 29.8963 37.9549 26.7463C38.0722 26.4211 38.1877 26.0788 38.2986 25.7292C39.027 23.4321 39.4529 21.5145 39.5649 20.0284C39.7018 18.2539 39.3703 17.4688 39.069 17.1227ZM34.1868 22.6527L32.3696 24.424C32.3669 24.4267 32.3648 24.43 32.3637 24.4337C32.3625 24.4373 32.3623 24.4412 32.363 24.445L32.7917 26.9461C32.7926 26.9506 32.7921 26.9552 32.7905 26.9594C32.7888 26.9636 32.7859 26.9672 32.7823 26.9698C32.7786 26.9725 32.7742 26.974 32.7697 26.9743C32.7652 26.9746 32.7607 26.9735 32.7567 26.9713L30.5108 25.7904C30.5073 25.7887 30.5035 25.7878 30.4996 25.7878C30.4957 25.7878 30.4919 25.7887 30.4884 25.7904L28.2424 26.9713C28.2385 26.9735 28.234 26.9746 28.2295 26.9743C28.2249 26.974 28.2206 26.9725 28.2169 26.9698C28.2132 26.9672 28.2104 26.9636 28.2087 26.9594C28.207 26.9552 28.2066 26.9506 28.2074 26.9461L28.6369 24.445C28.6376 24.4412 28.6374 24.4373 28.6362 24.4337C28.6351 24.43 28.633 24.4267 28.6302 24.424L26.813 22.653C26.8099 22.6499 26.8077 22.6459 26.8066 22.6416C26.8056 22.6372 26.8058 22.6327 26.8071 22.6285C26.8085 22.6242 26.811 22.6204 26.8144 22.6175C26.8178 22.6146 26.8219 22.6128 26.8263 22.6121L29.3376 22.2474C29.3414 22.2468 29.345 22.2453 29.3481 22.2431C29.3512 22.2408 29.3537 22.2378 29.3554 22.2344L30.4786 19.9594C30.4806 19.9554 30.4836 19.9521 30.4874 19.9497C30.4911 19.9474 30.4955 19.9461 30.4999 19.9461C30.5044 19.9461 30.5087 19.9474 30.5125 19.9497C30.5163 19.9521 30.5193 19.9554 30.5213 19.9594L31.6444 22.2344C31.6462 22.2378 31.6487 22.2408 31.6518 22.2431C31.6549 22.2453 31.6585 22.2468 31.6623 22.2474L34.1749 22.6121C34.1792 22.613 34.1832 22.615 34.1864 22.618C34.1896 22.621 34.192 22.6247 34.1932 22.629C34.1944 22.6332 34.1945 22.6376 34.1934 22.6419C34.1922 22.6461 34.19 22.65 34.1868 22.653V22.6527Z" fill="#72442F"/>
<path d="M23.5046 27.7399C20.0981 27.7399 17.3271 24.9686 17.3271 21.5627V20.0903C17.3271 19.849 17.423 19.6175 17.5937 19.4468C17.7643 19.2762 17.9958 19.1803 18.2371 19.1803H21.8922C22.1211 19.1814 22.3414 19.2682 22.5094 19.4238C22.6774 19.5793 22.781 19.7921 22.7997 20.0203C22.8106 20.1606 22.7874 20.3015 22.7322 20.431C22.677 20.5605 22.5914 20.6747 22.4826 20.764C22.3738 20.8533 22.245 20.9151 22.1073 20.944C21.9695 20.973 21.8268 20.9683 21.6913 20.9303H19.0771V21.5631C19.0771 23.9266 20.9391 25.8635 23.2736 25.9843C23.4896 25.9159 23.7236 25.9339 23.9265 26.0344C24.1295 26.135 24.2855 26.3104 24.3618 26.5236C24.411 26.661 24.4264 26.8082 24.4067 26.9528C24.3871 27.0974 24.3329 27.2351 24.2489 27.3544C24.1649 27.4736 24.0534 27.571 23.9239 27.6381C23.7943 27.7053 23.6506 27.7403 23.5046 27.7402V27.7399Z" fill="#72442F"/>
<path d="M37.4956 27.7399C37.3497 27.74 37.2059 27.7049 37.0763 27.6378C36.9468 27.5706 36.8353 27.4733 36.7513 27.354C36.6673 27.2348 36.6131 27.097 36.5935 26.9524C36.5738 26.8079 36.5893 26.6607 36.6384 26.5233C36.7149 26.3102 36.871 26.1351 37.0739 26.0348C37.2769 25.9344 37.5108 25.9165 37.7266 25.985C38.8588 25.9245 39.9248 25.4324 40.7054 24.61C41.486 23.7876 41.9217 22.6973 41.9231 21.5635V20.93H39.3089C39.1734 20.9679 39.0307 20.9725 38.893 20.9436C38.7553 20.9146 38.6266 20.8528 38.5179 20.7635C38.4092 20.6742 38.3235 20.56 38.2683 20.4305C38.2131 20.3011 38.19 20.1603 38.2008 20.02C38.2195 19.7918 38.323 19.579 38.491 19.4234C38.6589 19.2679 38.8791 19.181 39.108 19.18H42.7631C43.0044 19.18 43.2359 19.2758 43.4065 19.4465C43.5772 19.6172 43.6731 19.8486 43.6731 20.09V21.5621C43.6731 24.97 40.9018 27.7399 37.4956 27.7399Z" fill="#72442F"/>
<path d="M34.3361 39.2997H26.6641C27.3042 38.8988 27.849 38.363 28.2606 37.7297C28.6721 37.0964 28.9405 36.3808 29.0469 35.6331C29.7021 35.9481 30.1987 36.0709 30.4318 36.1168C30.4488 36.1199 30.466 36.122 30.4833 36.1231H30.5001C30.5249 36.1231 30.5497 36.1204 30.5739 36.115C30.8098 36.0681 31.303 35.9428 31.9519 35.6324C32.0583 36.3804 32.3268 37.0961 32.7386 37.7296C33.1504 38.363 33.6956 38.8989 34.3361 39.2997Z" fill="#72442F"/>
<path d="M40.3328 41.7952V44.15H20.667V41.7952C20.6675 41.3191 20.8569 40.8627 21.1936 40.5261C21.5303 40.1895 21.9868 40.0002 22.4628 39.9997H38.5369C39.013 40.0002 39.4695 40.1895 39.8062 40.5261C40.1428 40.8627 40.3322 41.3191 40.3328 41.7952Z" fill="#72442F"/>
</svg>
