<svg width="485" height="408" viewBox="0 0 485 408" fill="none" xmlns="http://www.w3.org/2000/svg">
<path d="M259.308 382.508H245.442C243.254 382.508 241.48 380.735 241.48 378.546C241.48 376.358 243.254 374.585 245.442 374.585H259.308C261.496 374.585 263.269 376.359 263.269 378.546C263.269 380.734 261.496 382.508 259.308 382.508Z" fill="#808080"/>
<path d="M444.123 367.45H58.6903C55.6323 367.45 53.1543 364.971 53.1543 361.914V109.4C53.1543 106.342 55.6333 103.864 58.6903 103.864H444.124C447.182 103.864 449.66 106.343 449.66 109.4V361.913C449.66 364.971 447.181 367.45 444.123 367.45Z" fill="#D3E1ED"/>
<path d="M429.58 124.125H73.626V331.39H429.58V124.125Z" fill="#304C65"/>
<path d="M429.58 124.139H73.1509V143.784H429.58V124.139Z" fill="#89AAC7"/>
<path d="M402.549 133.962C402.549 135.636 401.191 136.994 399.517 136.994C397.842 136.994 396.485 135.637 396.485 133.962C396.485 132.287 397.842 130.93 399.517 130.93C401.191 130.93 402.549 132.287 402.549 133.962Z" fill="#D3E1ED"/>
<path d="M412.782 133.962C412.782 135.636 411.424 136.994 409.75 136.994C408.075 136.994 406.718 135.637 406.718 133.962C406.718 132.287 408.075 130.93 409.75 130.93C411.425 130.93 412.782 132.287 412.782 133.962Z" fill="#D3E1ED"/>
<path d="M423.016 133.962C423.016 135.636 421.658 136.994 419.984 136.994C418.31 136.994 416.952 135.637 416.952 133.962C416.952 132.287 418.31 130.93 419.984 130.93C421.659 130.93 423.016 132.287 423.016 133.962Z" fill="#D3E1ED"/>
<path d="M459.346 385.127H43.1031C30.4911 385.127 20.2671 374.903 20.2671 362.291H482.182C482.182 374.903 471.958 385.127 459.346 385.127Z" fill="#89AAC7"/>
<path d="M220.255 363.979C220.255 368.344 225.51 371.882 231.992 371.882H273.073C279.556 371.882 284.811 368.344 284.811 363.979C284.811 363.399 284.705 362.836 284.529 362.291H220.536C220.36 362.836 220.255 363.399 220.255 363.979Z" fill="#304C65"/>
<path d="M298.742 267.51C312.21 266.798 322.921 255.684 322.921 242.038C322.921 227.932 311.486 216.497 297.38 216.497C294.808 216.497 292.329 216.886 289.988 217.592C285.656 199.76 269.627 186.503 250.461 186.503C231.46 186.503 215.547 199.536 211.052 217.137C209.241 216.73 207.365 216.497 205.432 216.497C191.325 216.497 179.891 227.932 179.891 242.038C179.891 255.46 190.253 266.435 203.411 267.468L298.742 267.51Z" fill="white"/>
<path d="M267.754 222.921L251.893 207.06C251.624 206.791 251.187 206.791 250.918 207.06L235.056 222.922C233.919 224.059 234.061 225.998 235.48 226.937C236.513 227.619 237.901 227.415 238.776 226.54L248.81 216.506V247.953C248.81 249.191 249.647 250.318 250.86 250.566C252.528 250.908 254 249.636 254 248.027V216.505L264.085 226.59C264.576 227.08 265.227 227.35 265.92 227.35C266.613 227.35 267.264 227.08 267.754 226.59C268.244 226.1 268.514 225.448 268.514 224.755C268.515 224.062 268.245 223.411 267.754 222.921Z" fill="#304C65"/>
<path d="M352.773 317.515H350.603V316.895H352.153V315.345H352.773V317.515Z" fill="white"/>
<path d="M346.859 317.515H343.116V316.895H346.859V317.515ZM339.373 317.515H335.63V316.895H339.373V317.515ZM331.887 317.515H328.144V316.895H331.887V317.515ZM324.4 317.515H320.657V316.895H324.4V317.515ZM316.914 317.515H313.171V316.895H316.914V317.515ZM309.427 317.515H305.684V316.895H309.427V317.515ZM301.941 317.515H298.198V316.895H301.941V317.515ZM294.454 317.515H290.711V316.895H294.454V317.515ZM286.968 317.515H283.225V316.895H286.968V317.515ZM279.481 317.515H275.738V316.895H279.481V317.515ZM271.995 317.515H268.252V316.895H271.995V317.515ZM264.509 317.515H260.766V316.895H264.509V317.515ZM257.022 317.515H253.279V316.895H257.022V317.515ZM249.535 317.515H245.792V316.895H249.535V317.515ZM242.049 317.515H238.306V316.895H242.049V317.515ZM234.562 317.515H230.819V316.895H234.562V317.515ZM227.076 317.515H223.333V316.895H227.076V317.515ZM219.589 317.515H215.846V316.895H219.589V317.515ZM212.103 317.515H208.36V316.895H212.103V317.515ZM204.616 317.515H200.873V316.895H204.616V317.515ZM197.13 317.515H193.387V316.895H197.13V317.515ZM189.643 317.515H185.9V316.895H189.643V317.515ZM182.157 317.515H178.414V316.895H182.157V317.515ZM174.671 317.515H170.928V316.895H174.671V317.515ZM167.184 317.515H163.441V316.895H167.184V317.515ZM159.697 317.515H155.954V316.895H159.697V317.515Z" fill="white"/>
<path d="M152.211 317.515H150.04V315.345H150.66V316.895H152.211V317.515Z" fill="white"/>
<path d="M150.66 311.697H150.04V308.049H150.66V311.697ZM150.66 304.402H150.04V300.754H150.66V304.402ZM150.66 297.107H150.04V293.459H150.66V297.107ZM150.66 289.813H150.04V286.165H150.66V289.813ZM150.66 282.518H150.04V278.87H150.66V282.518ZM150.66 275.223H150.04V271.575H150.66V275.223ZM150.66 267.928H150.04V264.281H150.66V267.928ZM150.66 260.633H150.04V256.985H150.66V260.633ZM150.66 253.337H150.04V249.69H150.66V253.337ZM150.66 246.043H150.04V242.396H150.66V246.043ZM150.66 238.749H150.04V235.101H150.66V238.749ZM150.66 231.453H150.04V227.805H150.66V231.453ZM150.66 224.158H150.04V220.511H150.66V224.158ZM150.66 216.864H150.04V213.216H150.66V216.864ZM150.66 209.569H150.04V205.921H150.66V209.569ZM150.66 202.274H150.04V198.627H150.66V202.274ZM150.66 194.979H150.04V191.331H150.66V194.979ZM150.66 187.684H150.04V184.036H150.66V187.684ZM150.66 180.389H150.04V176.741H150.66V180.389ZM150.66 173.094H150.04V169.446H150.66V173.094Z" fill="white"/>
<path d="M150.66 165.799H150.04V163.629H152.211V164.249H150.66V165.799Z" fill="white"/>
<path d="M346.859 164.249H343.116V163.629H346.859V164.249ZM339.373 164.249H335.63V163.629H339.373V164.249ZM331.887 164.249H328.144V163.629H331.887V164.249ZM324.4 164.249H320.657V163.629H324.4V164.249ZM316.914 164.249H313.171V163.629H316.914V164.249ZM309.427 164.249H305.684V163.629H309.427V164.249ZM301.941 164.249H298.198V163.629H301.941V164.249ZM294.454 164.249H290.711V163.629H294.454V164.249ZM286.968 164.249H283.224V163.629H286.968V164.249ZM279.48 164.249H275.737V163.629H279.48V164.249ZM271.994 164.249H268.251V163.629H271.994V164.249ZM264.507 164.249H260.764V163.629H264.507V164.249ZM257.021 164.249H253.278V163.629H257.021V164.249ZM249.535 164.249H245.792V163.629H249.535V164.249ZM242.049 164.249H238.306V163.629H242.049V164.249ZM234.562 164.249H230.819V163.629H234.562V164.249ZM227.076 164.249H223.333V163.629H227.076V164.249ZM219.589 164.249H215.846V163.629H219.589V164.249ZM212.102 164.249H208.359V163.629H212.102V164.249ZM204.616 164.249H200.873V163.629H204.616V164.249ZM197.129 164.249H193.386V163.629H197.129V164.249ZM189.643 164.249H185.9V163.629H189.643V164.249ZM182.156 164.249H178.413V163.629H182.156V164.249ZM174.67 164.249H170.927V163.629H174.67V164.249ZM167.184 164.249H163.441V163.629H167.184V164.249ZM159.697 164.249H155.954V163.629H159.697V164.249Z" fill="white"/>
<path d="M352.773 165.799H352.153V164.249H350.603V163.629H352.773V165.799Z" fill="white"/>
<path d="M352.773 311.697H352.153V308.049H352.773V311.697ZM352.773 304.402H352.153V300.754H352.773V304.402ZM352.773 297.107H352.153V293.459H352.773V297.107ZM352.773 289.812H352.153V286.166H352.773V289.812ZM352.773 282.518H352.153V278.87H352.773V282.518ZM352.773 275.223H352.153V271.575H352.773V275.223ZM352.773 267.928H352.153V264.281H352.773V267.928ZM352.773 260.633H352.153V256.985H352.773V260.633ZM352.773 253.337H352.153V249.69H352.773V253.337ZM352.773 246.043H352.153V242.396H352.773V246.043ZM352.773 238.749H352.153V235.101H352.773V238.749ZM352.773 231.453H352.153V227.805H352.773V231.453ZM352.773 224.158H352.153V220.51H352.773V224.158ZM352.773 216.864H352.153V213.216H352.773V216.864ZM352.773 209.569H352.153V205.921H352.773V209.569ZM352.773 202.274H352.153V198.627H352.773V202.274ZM352.773 194.979H352.153V191.331H352.773V194.979ZM352.773 187.684H352.153V184.036H352.773V187.684ZM352.773 180.389H352.153V176.742H352.773V180.389ZM352.773 173.094H352.153V169.446H352.773V173.094Z" fill="white"/>
<path d="M203.284 296.046H199.354V283.313H203.458C204.693 283.313 205.75 283.568 206.629 284.078C207.507 284.584 208.181 285.311 208.649 286.26C209.118 287.205 209.352 288.337 209.352 289.655C209.352 290.981 209.116 292.123 208.643 293.081C208.171 294.034 207.483 294.768 206.579 295.282C205.675 295.791 204.577 296.046 203.284 296.046ZM200.896 294.679H203.184C204.237 294.679 205.11 294.475 205.802 294.069C206.494 293.663 207.01 293.085 207.35 292.335C207.69 291.584 207.86 290.691 207.86 289.655C207.86 288.627 207.692 287.742 207.356 287C207.02 286.254 206.519 285.682 205.852 285.284C205.184 284.882 204.353 284.681 203.358 284.681H200.896V294.679ZM211.739 296.046V286.497H213.157V287.939H213.256C213.43 287.466 213.745 287.083 214.201 286.789C214.657 286.494 215.171 286.347 215.743 286.347C215.851 286.347 215.986 286.349 216.147 286.354C216.309 286.358 216.431 286.364 216.514 286.372V287.864C216.464 287.852 216.351 287.833 216.172 287.808C215.998 287.779 215.814 287.765 215.619 287.765C215.155 287.765 214.74 287.862 214.375 288.057C214.015 288.248 213.729 288.513 213.517 288.853C213.31 289.189 213.207 289.572 213.207 290.003V296.046H211.739ZM221.064 296.27C220.459 296.27 219.909 296.156 219.416 295.928C218.923 295.696 218.531 295.362 218.241 294.927C217.951 294.488 217.806 293.957 217.806 293.336C217.806 292.789 217.914 292.345 218.129 292.005C218.345 291.661 218.633 291.392 218.993 291.197C219.354 291.002 219.752 290.857 220.187 290.762C220.626 290.662 221.068 290.583 221.511 290.525C222.092 290.451 222.562 290.395 222.923 290.358C223.287 290.316 223.553 290.248 223.719 290.152C223.888 290.057 223.973 289.891 223.973 289.655V289.605C223.973 288.992 223.806 288.515 223.47 288.175C223.138 287.835 222.635 287.665 221.959 287.665C221.259 287.665 220.709 287.819 220.311 288.126C219.914 288.432 219.634 288.76 219.472 289.108L218.079 288.61C218.328 288.03 218.66 287.578 219.074 287.255C219.493 286.928 219.949 286.7 220.442 286.571C220.939 286.439 221.429 286.372 221.909 286.372C222.216 286.372 222.568 286.41 222.966 286.484C223.368 286.555 223.756 286.702 224.129 286.926C224.506 287.149 224.819 287.487 225.068 287.939C225.316 288.391 225.441 288.996 225.441 289.754V296.046H223.973V294.753H223.899C223.799 294.96 223.634 295.182 223.401 295.418C223.169 295.655 222.861 295.856 222.475 296.022C222.09 296.187 221.619 296.27 221.064 296.27ZM221.288 294.952C221.868 294.952 222.357 294.838 222.755 294.61C223.157 294.382 223.46 294.088 223.663 293.727C223.87 293.367 223.973 292.987 223.973 292.59V291.247C223.911 291.321 223.775 291.39 223.563 291.452C223.356 291.51 223.115 291.562 222.842 291.607C222.572 291.649 222.309 291.686 222.052 291.719C221.799 291.748 221.594 291.773 221.437 291.794C221.055 291.843 220.699 291.924 220.367 292.036C220.04 292.144 219.775 292.308 219.572 292.527C219.373 292.743 219.273 293.037 219.273 293.41C219.273 293.92 219.462 294.306 219.839 294.567C220.22 294.824 220.703 294.952 221.288 294.952ZM231.974 299.827C231.265 299.827 230.656 299.735 230.146 299.553C229.636 299.375 229.211 299.138 228.871 298.844C228.535 298.554 228.268 298.243 228.069 297.912L229.238 297.091C229.371 297.265 229.538 297.464 229.742 297.688C229.945 297.916 230.222 298.113 230.575 298.278C230.931 298.448 231.397 298.533 231.974 298.533C232.745 298.533 233.381 298.347 233.882 297.974C234.384 297.601 234.635 297.016 234.635 296.22V294.281H234.51C234.403 294.455 234.249 294.67 234.05 294.927C233.855 295.18 233.574 295.406 233.205 295.605C232.84 295.8 232.347 295.897 231.725 295.897C230.954 295.897 230.262 295.715 229.648 295.35C229.039 294.985 228.556 294.455 228.2 293.758C227.847 293.062 227.671 292.217 227.671 291.222C227.671 290.244 227.843 289.392 228.187 288.666C228.531 287.937 229.01 287.373 229.623 286.975C230.237 286.573 230.946 286.372 231.75 286.372C232.372 286.372 232.865 286.476 233.23 286.683C233.598 286.886 233.88 287.118 234.075 287.379C234.274 287.636 234.427 287.848 234.535 288.014H234.684V286.497H236.102V296.32C236.102 297.141 235.915 297.808 235.542 298.322C235.173 298.84 234.676 299.219 234.05 299.46C233.428 299.704 232.736 299.827 231.974 299.827ZM231.924 294.579C232.512 294.579 233.01 294.444 233.416 294.175C233.822 293.906 234.131 293.518 234.342 293.012C234.554 292.507 234.66 291.902 234.66 291.197C234.66 290.509 234.556 289.902 234.349 289.375C234.141 288.849 233.835 288.436 233.428 288.138C233.022 287.84 232.521 287.69 231.924 287.69C231.302 287.69 230.784 287.848 230.37 288.163C229.959 288.478 229.65 288.901 229.443 289.431C229.24 289.962 229.139 290.55 229.139 291.197C229.139 291.86 229.242 292.447 229.449 292.956C229.661 293.462 229.972 293.86 230.382 294.15C230.796 294.436 231.31 294.579 231.924 294.579ZM247.318 296.22C246.481 296.22 245.76 296.067 245.154 295.76C244.549 295.454 244.083 295.033 243.755 294.498C243.428 293.964 243.264 293.352 243.264 292.664C243.264 292.134 243.376 291.663 243.6 291.253C243.828 290.838 244.141 290.455 244.539 290.103C244.941 289.746 245.403 289.39 245.925 289.033L247.766 287.665C248.126 287.429 248.414 287.176 248.63 286.907C248.85 286.637 248.959 286.285 248.959 285.85C248.959 285.527 248.816 285.214 248.53 284.911C248.249 284.609 247.878 284.457 247.417 284.457C247.094 284.457 246.808 284.54 246.559 284.706C246.315 284.868 246.122 285.075 245.981 285.328C245.844 285.576 245.776 285.833 245.776 286.099C245.776 286.397 245.857 286.7 246.019 287.006C246.184 287.309 246.394 287.62 246.647 287.939C246.903 288.254 247.169 288.577 247.442 288.909L253.287 296.046H251.521L246.696 290.227C246.249 289.688 245.842 289.199 245.478 288.76C245.113 288.32 244.823 287.887 244.607 287.46C244.392 287.033 244.284 286.571 244.284 286.074C244.284 285.502 244.41 285 244.663 284.569C244.92 284.134 245.279 283.796 245.739 283.556C246.203 283.311 246.746 283.189 247.368 283.189C248.006 283.189 248.555 283.313 249.015 283.562C249.475 283.807 249.83 284.132 250.078 284.538C250.327 284.94 250.452 285.377 250.452 285.85C250.452 286.459 250.3 286.988 249.998 287.435C249.695 287.883 249.283 288.3 248.76 288.685L246.224 290.575C245.652 290.998 245.264 291.408 245.061 291.806C244.858 292.204 244.756 292.49 244.756 292.664C244.756 293.062 244.86 293.433 245.067 293.777C245.275 294.121 245.567 294.399 245.944 294.61C246.321 294.822 246.763 294.927 247.268 294.927C247.749 294.927 248.217 294.826 248.673 294.623C249.129 294.415 249.542 294.117 249.911 293.727C250.284 293.338 250.578 292.869 250.793 292.322C251.013 291.775 251.123 291.16 251.123 290.476H252.541C252.541 291.321 252.443 292.011 252.248 292.546C252.054 293.081 251.834 293.499 251.589 293.802C251.345 294.105 251.148 294.33 250.999 294.48C250.949 294.542 250.903 294.604 250.862 294.666C250.82 294.728 250.775 294.79 250.725 294.853C250.315 295.313 249.797 295.657 249.171 295.885C248.545 296.109 247.927 296.22 247.318 296.22ZM263.963 296.046H260.034V283.313H264.137C265.373 283.313 266.43 283.568 267.308 284.078C268.187 284.584 268.861 285.311 269.329 286.26C269.797 287.205 270.031 288.337 270.031 289.655C270.031 290.981 269.795 292.123 269.323 293.081C268.85 294.034 268.162 294.768 267.259 295.282C266.355 295.791 265.257 296.046 263.963 296.046ZM261.576 294.679H263.864C264.917 294.679 265.789 294.475 266.481 294.069C267.174 293.663 267.69 293.085 268.029 292.335C268.369 291.584 268.539 290.691 268.539 289.655C268.539 288.627 268.371 287.742 268.036 287C267.7 286.254 267.198 285.682 266.531 285.284C265.864 284.882 265.033 284.681 264.038 284.681H261.576V294.679ZM272.419 296.046V286.497H273.836V287.939H273.936C274.11 287.466 274.425 287.083 274.881 286.789C275.337 286.494 275.851 286.347 276.423 286.347C276.531 286.347 276.665 286.349 276.827 286.354C276.989 286.358 277.111 286.364 277.194 286.372V287.864C277.144 287.852 277.03 287.833 276.852 287.808C276.678 287.779 276.493 287.765 276.299 287.765C275.834 287.765 275.42 287.862 275.055 288.057C274.694 288.248 274.408 288.513 274.197 288.853C273.99 289.189 273.886 289.572 273.886 290.003V296.046H272.419ZM282.522 296.245C281.66 296.245 280.903 296.04 280.253 295.63C279.606 295.219 279.1 294.645 278.736 293.908C278.375 293.17 278.195 292.308 278.195 291.321C278.195 290.326 278.375 289.458 278.736 288.716C279.1 287.974 279.606 287.398 280.253 286.988C280.903 286.577 281.66 286.372 282.522 286.372C283.384 286.372 284.139 286.577 284.785 286.988C285.436 287.398 285.942 287.974 286.302 288.716C286.667 289.458 286.849 290.326 286.849 291.321C286.849 292.308 286.667 293.17 286.302 293.908C285.942 294.645 285.436 295.219 284.785 295.63C284.139 296.04 283.384 296.245 282.522 296.245ZM282.522 294.927C283.177 294.927 283.716 294.759 284.139 294.424C284.561 294.088 284.874 293.646 285.077 293.099C285.28 292.552 285.382 291.96 285.382 291.321C285.382 290.683 285.28 290.088 285.077 289.537C284.874 288.986 284.561 288.54 284.139 288.2C283.716 287.86 283.177 287.69 282.522 287.69C281.867 287.69 281.328 287.86 280.906 288.2C280.483 288.54 280.17 288.986 279.967 289.537C279.764 290.088 279.662 290.683 279.662 291.321C279.662 291.96 279.764 292.552 279.967 293.099C280.17 293.646 280.483 294.088 280.906 294.424C281.328 294.759 281.867 294.927 282.522 294.927ZM289.089 299.628V286.497H290.507V288.014H290.681C290.789 287.848 290.938 287.636 291.128 287.379C291.323 287.118 291.601 286.886 291.962 286.683C292.326 286.476 292.82 286.372 293.441 286.372C294.245 286.372 294.954 286.573 295.568 286.975C296.181 287.377 296.66 287.947 297.004 288.685C297.348 289.423 297.52 290.293 297.52 291.296C297.52 292.308 297.348 293.184 297.004 293.926C296.66 294.664 296.183 295.236 295.574 295.642C294.964 296.044 294.262 296.245 293.466 296.245C292.853 296.245 292.362 296.144 291.993 295.941C291.624 295.733 291.34 295.499 291.141 295.238C290.942 294.973 290.789 294.753 290.681 294.579H290.556V299.628H289.089ZM290.532 291.271C290.532 291.993 290.637 292.629 290.849 293.18C291.06 293.727 291.369 294.156 291.775 294.467C292.181 294.774 292.679 294.927 293.267 294.927C293.881 294.927 294.392 294.766 294.803 294.442C295.217 294.115 295.528 293.676 295.735 293.124C295.947 292.569 296.053 291.951 296.053 291.271C296.053 290.6 295.949 289.995 295.742 289.456C295.539 288.913 295.23 288.484 294.815 288.169C294.405 287.85 293.889 287.69 293.267 287.69C292.67 287.69 292.169 287.842 291.763 288.144C291.356 288.443 291.05 288.861 290.842 289.4C290.635 289.935 290.532 290.559 290.532 291.271Z" fill="white"/>
<path d="M57.5021 361.546L39.9931 360.294L38.4541 354.904L42.3601 348.397L52.3941 353.409L57.5021 361.546Z" fill="#FFBE8C"/>
<path d="M39.9932 360.294L14.6372 364.281C11.9292 364.707 10.4632 361.218 12.6632 359.582L41.7922 337.682C44.0602 336.104 52.3932 353.409 52.3932 353.409L50.2952 352.969C45.3822 351.939 40.6342 355.315 39.9932 360.294Z" fill="white"/>
<path d="M11.5352 364.455L9.68517 362.006C9.31117 361.511 9.40917 360.807 9.90417 360.433L41.8272 336.321C42.3222 335.947 43.0262 336.045 43.4002 336.54L45.2502 338.989C45.6242 339.484 45.5262 340.188 45.0312 340.562L13.1082 364.674C12.6132 365.048 11.9092 364.95 11.5352 364.455Z" fill="#72442F"/>
<path d="M35.9224 355.826C36.1014 355.688 36.3244 355.603 36.5674 355.594C37.1914 355.57 37.7174 356.057 37.7414 356.681L37.9034 360.925C37.9284 361.549 37.4414 362.076 36.8154 362.098C36.1914 362.122 35.6654 361.635 35.6424 361.011L35.4804 356.767C35.4654 356.386 35.6414 356.042 35.9224 355.826Z" fill="#732CB5"/>
<path d="M31.622 356.355C31.801 356.217 32.024 356.132 32.267 356.123C32.892 356.099 33.417 356.586 33.44 357.21L33.602 361.454C33.626 362.078 33.14 362.605 32.514 362.627C31.89 362.651 31.364 362.164 31.341 361.54L31.179 357.296C31.165 356.915 31.341 356.571 31.622 356.355Z" fill="#732CB5"/>
<path d="M27.063 357.014C27.242 356.876 27.465 356.791 27.708 356.782C28.332 356.757 28.858 357.245 28.881 357.869L29.043 362.114C29.067 362.738 28.581 363.265 27.955 363.287C27.331 363.312 26.805 362.824 26.782 362.2L26.62 357.955C26.605 357.574 26.781 357.23 27.063 357.014Z" fill="#732CB5"/>
<path d="M48.7931 362.875L31.2841 361.624L29.7461 356.233L33.6511 349.727L43.6851 354.738L48.7931 362.875Z" fill="#FFBE8C"/>
<path d="M31.2844 361.623L5.9284 365.61C3.2194 366.036 1.7544 362.547 3.9544 360.911L33.0834 339.011C35.3514 337.433 43.6844 354.738 43.6844 354.738L41.5854 354.298C36.6734 353.267 31.9254 356.643 31.2844 361.623Z" fill="white"/>
<path d="M2.82618 365.784L0.976183 363.335C0.602183 362.84 0.700184 362.136 1.19518 361.762L33.1182 337.65C33.6132 337.276 34.3172 337.374 34.6912 337.869L36.5412 340.318C36.9152 340.813 36.8172 341.517 36.3222 341.891L4.39919 366.003C3.90419 366.377 3.20018 366.279 2.82618 365.784Z" fill="#72442F"/>
<path d="M27.2133 357.155C27.3923 357.018 27.6153 356.932 27.8583 356.923C28.4823 356.899 29.0083 357.386 29.0313 358.01L29.1933 362.254C29.2183 362.878 28.7313 363.405 28.1053 363.427C27.4813 363.451 26.9553 362.964 26.9323 362.34L26.7703 358.096C26.7563 357.715 26.9323 357.371 27.2133 357.155Z" fill="#72442F"/>
<path d="M22.9134 357.684C23.0924 357.546 23.3154 357.461 23.5584 357.452C24.1824 357.428 24.7084 357.915 24.7314 358.539L24.8934 362.783C24.9174 363.407 24.4314 363.934 23.8054 363.956C23.1814 363.98 22.6554 363.493 22.6314 362.869L22.4694 358.625C22.4564 358.244 22.6324 357.9 22.9134 357.684Z" fill="#72442F"/>
<path d="M18.3541 358.342C18.5331 358.204 18.7561 358.119 18.9991 358.11C19.6231 358.085 20.1491 358.573 20.1731 359.197L20.3351 363.442C20.3591 364.066 19.8731 364.593 19.2471 364.615C18.6231 364.64 18.0971 364.152 18.0741 363.528L17.9121 359.283C17.8961 358.903 18.0721 358.559 18.3541 358.342Z" fill="#72442F"/>
<path d="M82.8753 277.596C82.8753 277.596 74.8783 302.757 85.3523 311.922C91.8323 317.592 92.3893 335.591 92.3893 335.591C92.3893 335.591 66.4773 339.958 53.6953 343.178L56.8133 364.142C59.5133 360.188 106.168 369.433 112.92 353.009C119.251 337.612 118.356 278.846 118.356 278.846L82.8753 277.596Z" fill="#72442F"/>
<path d="M77.6182 282.445C77.6182 282.445 65.6222 305.964 74.4602 316.715C79.9282 323.367 77.5402 341.215 77.5402 341.215C77.5402 341.215 51.2632 341.294 38.1272 342.386L37.7832 363.578C41.0922 360.117 98.4182 373.443 104.174 350.468C108.22 334.319 112.421 289.468 112.421 289.468L77.6182 282.445Z" fill="#72442F"/>
<path d="M144.79 195.267L136.859 194.691L122.241 216.251L111.825 216.523L111.281 232.738L130.806 230.601L144.79 195.267Z" fill="#FFBE8C"/>
<path d="M97.894 215.118L81.27 223.573L88.011 229.369C93.224 233.651 96.312 234.571 103.188 233.624L111.28 232.738L111.824 216.523L97.894 215.118Z" fill="white"/>
<path d="M102.522 216.723L84.8152 219.304C83.1712 219.544 81.5552 219.995 80.0562 220.713C71.9782 224.581 71.2472 235.399 72.4262 240.579L79.2892 269.769L76.2732 284.893L84.5142 287.598C90.5882 289.592 96.9782 290.529 103.361 290.162C109.675 289.799 112.937 288.293 118.522 284.994L115.718 257.941C123.391 243.493 113.696 224.094 108.903 218.769C107.996 217.761 107.041 217.177 105.989 216.826C104.872 216.452 103.665 216.446 102.522 216.723Z" fill="white"/>
<path d="M86.9851 203.019L86.3501 219.069C86.4931 220.802 90.8861 225.028 95.5261 225.861C98.2481 226.349 100.631 223.971 100.202 221.239L98.2771 208.979L86.9851 203.019Z" fill="#FFBE8C"/>
<path d="M99.1163 214.325L98.4873 210.321L92.8513 208.491L92.8193 210.458C92.8193 210.458 92.7753 213.143 99.1163 214.325Z" fill="#D09164"/>
<path d="M89.7513 214.173L105.019 208.974C107.192 208.244 108.72 206.469 109.232 204.397C109.633 202.775 109.239 201.057 108.378 199.625L102.274 187.361L97.6903 186.354L84.0483 195.141L89.7513 214.173Z" fill="#FFBE8C"/>
<path d="M103.748 190.321C103.791 190.532 99.298 187.311 99.298 187.311C99.298 187.311 101.059 194.336 97.7 197.928C93.596 202.317 91.27 202.57 88.743 202.567L85.103 211.161C85.103 211.161 73.956 204.171 79.01 190.874C81.914 183.229 101.525 179.486 103.748 190.321Z" fill="#B87A48"/>
<path d="M87.0182 208.357C88.8852 209.595 91.4012 209.085 92.6402 207.218C93.8782 205.351 93.3682 202.834 91.5012 201.596C89.6342 200.358 87.1172 200.868 85.8792 202.735C84.6412 204.602 85.1512 207.118 87.0182 208.357Z" fill="#FFBE8C"/>
<path d="M89.971 203.827C89.952 203.805 89.931 203.793 89.903 203.787C89.868 203.771 89.84 203.743 89.804 203.73C88.687 203.312 87.44 204.222 87.387 204.262C87.328 204.305 87.316 204.388 87.36 204.447C87.403 204.505 87.486 204.518 87.545 204.474C87.556 204.467 88.531 203.763 89.448 203.918C88.283 204.409 88.435 205.531 88.437 205.544C88.448 205.611 88.506 205.657 88.572 205.655C88.577 205.655 88.583 205.654 88.589 205.653C88.661 205.641 88.71 205.574 88.699 205.502C88.692 205.456 88.551 204.394 89.847 204.057C90.372 204.325 90.751 204.926 90.958 205.879C90.972 205.943 91.029 205.985 91.092 205.983C91.1 205.983 91.108 205.982 91.116 205.98C91.187 205.964 91.233 205.894 91.217 205.823C90.991 204.792 90.567 204.134 89.971 203.827Z" fill="#1C2A36"/>
<path d="M89.8204 208.654C89.8464 209.457 89.2154 210.13 88.4124 210.155C87.6094 210.181 86.9364 209.55 86.9114 208.747C86.8854 207.944 87.5164 207.272 88.3194 207.246C89.1224 207.22 89.7944 207.851 89.8204 208.654Z" fill="white"/>
<path d="M102.236 194.475C102.343 194.792 102.686 194.962 103.003 194.856C103.32 194.749 103.49 194.406 103.384 194.089C103.277 193.772 102.934 193.602 102.617 193.708C102.3 193.815 102.129 194.159 102.236 194.475Z" fill="#1C2A36"/>
<path d="M104.771 200.554C104.051 200.593 103.19 200.45 102.192 199.969C102.123 199.936 102.094 199.852 102.127 199.782C102.16 199.713 102.243 199.683 102.314 199.717C105.526 201.264 107.157 199.186 107.225 199.098C107.272 199.038 107.36 199.024 107.42 199.071C107.481 199.117 107.494 199.205 107.447 199.266C107.435 199.283 106.521 200.459 104.771 200.554Z" fill="#1C2A36"/>
<path d="M104.123 191.282L107.44 193.821C107.869 194.15 107.991 194.745 107.724 195.216L106.849 196.76L104.123 191.282Z" fill="#FFBE8C"/>
<path d="M171.198 166.246L218.974 156.559C220.795 156.19 222.557 157.408 222.855 159.242L232.276 217.24C232.558 218.975 231.418 220.623 229.695 220.972L149.93 237.144C148.207 237.493 146.516 236.419 146.1 234.711L132.187 177.624C131.747 175.819 132.896 174.01 134.717 173.641C136.166 173.349 169.749 166.54 171.198 166.246Z" fill="#C7A031"/>
<path d="M192.554 150.022L139.159 163.81L152.323 214.791L205.718 201.004L192.554 150.022Z" fill="#89AAFB"/>
<path d="M190.22 153.868L143.26 165.994L154.825 210.782L201.785 198.656L190.22 153.868Z" fill="white"/>
<path d="M201.746 198.655L175.688 205.399L183.939 183.565L201.746 198.655Z" fill="#89AAFB"/>
<path d="M185.454 202.871L154.826 210.797L163.617 181.628L185.454 202.871Z" fill="#89AAFB"/>
<path d="M179.36 172.794C180.185 175.863 178.365 179.019 175.297 179.843C172.228 180.667 169.073 178.848 168.248 175.78C167.424 172.711 169.243 169.555 172.311 168.731C175.38 167.907 178.536 169.726 179.36 172.794Z" fill="#89AAFB"/>
<path d="M207.214 152.507L152.137 155.325L154.827 207.913L209.905 205.095L207.214 152.507Z" fill="#89AAFB"/>
<path d="M204.158 155.807L155.718 158.286L158.082 204.486L206.522 202.007L204.158 155.807Z" fill="white"/>
<path d="M206.473 201.978L179.592 203.369L192.047 183.628L206.473 201.978Z" fill="#89AAFB"/>
<path d="M189.667 202.848L158.072 204.482L172.524 177.663L189.667 202.848Z" fill="#89AAFB"/>
<path d="M189.717 172.159C189.911 175.33 187.496 178.058 184.325 178.252C181.153 178.445 178.426 176.031 178.232 172.86C178.039 169.689 180.453 166.961 183.624 166.767C186.796 166.573 189.524 168.987 189.717 172.159Z" fill="#89AAFB"/>
<path d="M216.335 159.441L214.203 155.182C213.541 153.86 212.075 153.146 210.626 153.439L188.968 157.83C187.519 158.124 186.447 159.353 186.352 160.828L186.047 165.581C185.952 167.057 184.88 168.285 183.431 168.579L135.655 178.265C133.834 178.634 132.685 180.443 133.125 182.248L147.038 239.335C147.454 241.043 149.145 242.117 150.868 241.768L230.633 225.596C232.356 225.247 233.495 223.599 233.213 221.864L223.793 163.866C223.495 162.032 221.733 160.814 219.912 161.183C218.463 161.477 216.996 160.763 216.335 159.441Z" fill="#FFC53D"/>
<path d="M223.212 220.308L193.401 226.352C192.483 226.538 191.588 225.945 191.402 225.027L190.504 220.596C190.318 219.678 190.911 218.783 191.829 218.597L221.639 212.553C222.557 212.367 223.452 212.96 223.638 213.878L224.537 218.308C224.723 219.226 224.13 220.122 223.212 220.308Z" fill="white"/>
<path d="M148.92 240.646L142.255 234.259L113.871 251.254L106.437 245.419L93.9438 259.516L112.987 272.061L148.92 240.646Z" fill="#FFBE8C"/>
<path d="M103.043 242.755L73.895 229.1L75.631 239.274C77.122 246.963 79.203 250.071 86.052 254.316L93.944 259.515L106.437 245.418L103.043 242.755Z" fill="white"/>
<path d="M153.783 236.293L159.364 229.896C159.55 229.711 159.779 229.579 160.033 229.515C160.79 229.324 162.947 229.266 162.795 230.019C162.595 231.008 156.055 237.782 156.055 237.782" fill="#FFBE8C"/>
<path d="M144.426 232.359L147.1 231.853C147.574 231.763 148.028 231.59 148.44 231.341L153.93 227.557C154.69 227.033 155.679 226.882 156.518 227.266C156.903 227.443 157.203 227.707 157.206 228.105C157.213 229.218 151.289 234.411 151.289 234.411L158.421 227.306C158.569 227.159 158.752 227.055 158.954 227.002C159.749 226.792 161.751 226.349 161.568 227.254C161.34 228.382 153.881 236.108 153.881 236.108" fill="#FFBE8C"/>
<path d="M162.208 232.323C161.771 232.314 161.124 232.562 160.439 232.941L156.331 236.882L151.219 233.902L144.425 232.359L140.824 235.477C140.824 235.477 141.075 242.381 151.021 242.618C151.707 242.634 152.386 242.449 152.974 242.097L157.994 239.083C158.084 239.009 158.165 238.927 158.236 238.835C158.95 237.919 163.073 233.441 163.164 232.99C163.218 232.732 162.608 232.331 162.208 232.323Z" fill="#FFBE8C"/>
<path d="M148.139 231.499L145.813 232.032C145.318 232.145 144.786 231.886 144.634 231.401C144.463 230.855 144.486 230.14 144.387 229.566L144.277 226.582C144.263 226.2 143.862 225.952 143.518 226.12C142.857 226.444 141.41 228.024 141.254 229.915L140.524 236.026L148.139 231.499Z" fill="#FFBE8C"/>
<path d="M151.291 234.659C151.255 234.659 151.219 234.645 151.192 234.618C151.135 234.562 151.134 234.472 151.19 234.416L156.688 228.831C156.744 228.774 156.835 228.775 156.89 228.829C156.947 228.885 156.947 228.976 156.892 229.032L151.394 234.617C151.367 234.646 151.329 234.66 151.291 234.659Z" fill="#1C2A36"/>
<path d="M153.637 236.153C153.601 236.152 153.565 236.139 153.538 236.111C153.482 236.055 153.481 235.964 153.536 235.908L159.808 229.537C159.864 229.48 159.956 229.48 160.01 229.535C160.067 229.591 160.068 229.682 160.012 229.738L153.74 236.109C153.712 236.14 153.674 236.154 153.637 236.153Z" fill="#1C2A36"/>
<path d="M156.031 237.688C155.995 237.688 155.959 237.674 155.932 237.646C155.875 237.59 155.875 237.499 155.93 237.444L160.624 232.675C160.68 232.618 160.771 232.618 160.827 232.673C160.884 232.729 160.885 232.82 160.829 232.876L156.135 237.645C156.106 237.674 156.068 237.688 156.031 237.688Z" fill="#1C2A36"/>
<path d="M85.8931 207.315C85.8931 207.315 75.4171 217.616 87.2491 224.241C99.0811 230.867 101.299 236.255 101.299 236.255C101.299 236.255 105.167 229.057 96.8391 220.751C88.5111 212.445 85.8931 207.315 85.8931 207.315Z" fill="#B87A48"/>
<path d="M106.965 352.592C106.963 352.592 106.962 352.592 106.96 352.592C106.795 352.589 106.664 352.453 106.667 352.289L107.435 305.052C107.438 304.887 107.579 304.745 107.738 304.759C107.903 304.761 108.034 304.897 108.031 305.062L107.263 352.299C107.26 352.461 107.128 352.592 106.965 352.592Z" fill="white"/>
<path d="M106.437 245.717C106.363 245.717 106.289 245.69 106.232 245.635L96.5431 236.396C96.4241 236.282 96.4192 236.093 96.5332 235.975C96.6482 235.856 96.8361 235.852 96.9541 235.964L106.642 245.203C106.761 245.317 106.766 245.506 106.653 245.624C106.594 245.686 106.516 245.717 106.437 245.717Z" fill="#999999"/>
<path d="M367.331 293.846L378.243 295.293L393.921 269.315L411.388 233.306L395.155 224.207L380.04 262.566L367.331 293.846Z" fill="#FFBE8C"/>
<path d="M408.912 222.607L406.347 221.022C402.56 218.682 397.593 219.855 395.253 223.643L383.493 245.677L399.631 255.965L411.533 233.702C413.873 229.915 412.699 224.947 408.912 222.607Z" fill="white"/>
<path d="M461.328 355.938C465.247 360.822 472.426 371.32 473.63 373.245C474.582 374.767 463.893 381.968 463.358 381.382C460.374 378.109 452.26 369.121 450.1 366.792C446.453 362.861 442.202 358.039 438.067 353.031L452.66 342.44C455.862 347.86 459.279 353.384 461.328 355.938Z" fill="#FFBE8C"/>
<path d="M461.184 379.085L451.631 401.738C450.61 404.158 453.516 406.325 455.545 404.657L482.621 382.626C484.611 380.882 470.444 369.144 470.444 369.144L470.369 371.196C470.194 376.001 465.961 379.637 461.184 379.085Z" fill="white"/>
<path d="M450.784 404.619L452.575 406.83C452.965 407.312 453.673 407.386 454.155 406.996L483.859 382.937C484.341 382.547 484.415 381.839 484.025 381.358L482.234 379.147C481.844 378.665 481.137 378.591 480.655 378.981L450.951 403.04C450.468 403.43 450.394 404.137 450.784 404.619Z" fill="#72442F"/>
<path d="M463.801 384.134C464.241 384.102 464.634 383.802 464.764 383.355C464.93 382.779 464.599 382.178 464.024 382.012L460.116 380.882C459.542 380.719 458.94 381.048 458.774 381.622C458.608 382.197 458.939 382.799 459.514 382.965L463.422 384.095C463.549 384.131 463.677 384.143 463.801 384.134Z" fill="#72442F"/>
<path d="M462.318 388.009C462.758 387.977 463.151 387.677 463.281 387.228C463.447 386.654 463.115 386.053 462.54 385.886L458.632 384.757C458.057 384.593 457.456 384.922 457.29 385.498C457.123 386.072 457.455 386.673 458.03 386.84L461.938 387.969C462.066 388.006 462.194 388.018 462.318 388.009Z" fill="#72442F"/>
<path d="M460.653 392.096C461.093 392.064 461.486 391.764 461.616 391.315C461.783 390.741 461.451 390.14 460.876 389.973L456.968 388.844C456.393 388.679 455.792 389.01 455.626 389.585C455.46 390.159 455.791 390.76 456.367 390.927L460.275 392.056C460.401 392.093 460.529 392.105 460.653 392.096Z" fill="#72442F"/>
<path d="M406.501 290.859L430.612 269.315C430.612 269.315 446.45 289.941 442.258 307.553C439.419 319.48 452.15 338.785 461.844 346.336L436.008 365.195C430.395 358.397 426.183 349.955 424.058 344.302C417.857 327.81 406.501 290.859 406.501 290.859Z" fill="#72442F"/>
<path d="M406.206 369.886C406.227 376.28 405.276 389.231 405.012 391.534C404.803 393.356 391.685 392.301 391.632 391.493C391.333 386.98 390.575 374.64 390.332 371.406C389.922 365.946 389.598 359.39 389.484 352.76L407.876 353.591C406.983 359.957 406.195 366.542 406.206 369.886Z" fill="#FFBE8C"/>
<path d="M392.098 386.773L370.052 398.78C367.697 400.062 368.638 403.642 371.319 403.602L406.96 403.245C409.659 403.119 405.819 384.731 405.819 384.731L404.453 386.322C401.255 390.047 395.56 390.255 392.098 386.773Z" fill="white"/>
<path d="M366.802 402.019L366.825 404.971C366.83 405.591 367.337 406.09 367.957 406.085L407.034 405.782C407.654 405.777 408.153 405.271 408.148 404.65L408.125 401.698C408.12 401.078 407.613 400.579 406.993 400.584L367.916 400.887C367.296 400.892 366.797 401.399 366.802 402.019Z" fill="#72442F"/>
<path d="M390.861 394.166C391.082 394.166 391.306 394.1 391.5 393.962C391.999 393.608 392.117 392.918 391.763 392.42L389.361 389.031C389.009 388.532 388.318 388.413 387.818 388.768C387.319 389.121 387.202 389.812 387.555 390.31L389.957 393.699C390.172 394.004 390.514 394.166 390.861 394.166Z" fill="#72442F"/>
<path d="M387.21 396.316C387.431 396.316 387.655 396.25 387.849 396.112C388.348 395.759 388.466 395.068 388.112 394.57L385.71 391.181C385.357 390.683 384.666 390.563 384.167 390.918C383.668 391.271 383.55 391.962 383.904 392.46L386.306 395.849C386.521 396.154 386.863 396.316 387.21 396.316Z" fill="#72442F"/>
<path d="M383.28 398.52C383.501 398.52 383.725 398.454 383.919 398.316C384.418 397.964 384.535 397.272 384.182 396.774L381.78 393.384C381.427 392.886 380.736 392.766 380.237 393.121C379.738 393.473 379.621 394.165 379.974 394.663L382.376 398.053C382.591 398.358 382.933 398.52 383.28 398.52Z" fill="#72442F"/>
<path d="M399.207 283.4L430.55 278.324C430.55 278.324 438.681 306.616 424.424 317.775C414.769 325.332 410.294 354.518 413.167 366.464L381.21 365.107C381.059 356.293 385.7 336.164 387.561 330.419C392.993 313.658 399.207 283.4 399.207 283.4Z" fill="#72442F"/>
<path d="M418.082 327.437C417.961 327.437 417.847 327.36 417.806 327.237L413.207 313.335C413.157 313.183 413.239 313.018 413.392 312.968C413.54 312.917 413.708 313 413.759 313.153L418.358 327.055C418.408 327.207 418.326 327.372 418.173 327.422C418.143 327.432 418.113 327.437 418.082 327.437Z" fill="white"/>
<path d="M402.1 219.82L427.878 220.42C439.062 221.493 442.627 228.077 442.567 234.198L442.096 263.27L447.037 293.477L393.378 296.559L391.983 244.405C390.553 237.106 392.391 229.761 396.078 223.302C396.742 222.139 397.533 221.357 398.46 220.777C399.544 220.098 400.821 219.79 402.1 219.82Z" fill="white"/>
<path d="M417.628 206.467L419.347 219.889C419.584 221.678 416.06 226.935 411.536 228.804C408.882 229.9 405.94 228.013 405.772 225.146L405.021 212.283L417.628 206.467Z" fill="#FFBE8C"/>
<path d="M405.344 217.826L405.013 212.029L414.091 205.326L414.202 207.656C414.202 207.656 413.57 211.695 405.344 217.826Z" fill="#D09164"/>
<path d="M418.159 210.619L402.19 214.242C399.872 214.786 397.554 214.055 395.969 212.506C394.728 211.294 394.137 209.562 394.113 207.827L394.967 192.831L415.847 187.935L418.159 210.619Z" fill="#FFBE8C"/>
<path d="M392.225 189.352C394.151 199.772 409.934 190.357 410.24 194.9C411.023 206.52 417.47 203.865 417.47 203.865C417.47 203.865 425.75 186.495 415.454 186.261C405.158 186.027 389.379 173.948 392.225 189.352Z" fill="#FF7738"/>
<path d="M420.53 199.832C421.077 202.166 419.629 204.502 417.295 205.049C414.961 205.596 412.625 204.148 412.078 201.814C411.531 199.48 412.979 197.144 415.313 196.597C417.647 196.05 419.983 197.498 420.53 199.832Z" fill="#FFBE8C"/>
<path d="M395.559 195.931L392.255 201.673C391.763 202.528 392.485 203.422 393.601 203.34L395.89 203.054L395.559 195.931Z" fill="#FFBE8C"/>
<path d="M398.89 199.09C398.969 199.428 398.759 199.766 398.422 199.846C398.084 199.925 397.746 199.716 397.666 199.378C397.587 199.04 397.796 198.702 398.135 198.622C398.473 198.543 398.811 198.753 398.89 199.09Z" fill="#1C2A36"/>
<path d="M399.104 205.368C399.669 205.01 400.242 204.438 400.737 203.537C400.771 203.475 400.748 203.396 400.685 203.361C400.623 203.326 400.544 203.349 400.509 203.412C398.915 206.31 396.564 205.618 396.465 205.588C396.397 205.568 396.323 205.604 396.303 205.673C396.282 205.741 396.319 205.814 396.387 205.835C396.407 205.842 397.73 206.238 399.104 205.368Z" fill="#1C2A36"/>
<path d="M478.697 241.544L395.372 235.537L389.636 315.097L472.962 321.103L478.697 241.544Z" fill="#89AAFB"/>
<path d="M400.206 240.664L395.168 310.558L468.452 315.84L473.49 245.947L400.206 240.664Z" fill="white"/>
<path d="M468.644 316.213L427.679 313.282L450.238 285.724L468.644 316.213Z" fill="#89AAFB"/>
<path d="M443.033 314.381L394.884 310.936L421.794 273.033L443.033 314.381Z" fill="#89AAFB"/>
<path d="M448.859 267.919C448.558 272.758 444.391 276.436 439.552 276.135C434.713 275.834 431.035 271.667 431.336 266.828C431.637 261.989 435.804 258.311 440.643 258.612C445.482 258.914 449.16 263.081 448.859 267.919Z" fill="#89AAFB"/>
<path d="M456.127 289.284L453.484 264.964L425.579 237.351C422.588 234.027 423.751 232.964 427.076 229.973L429.328 227.948C432.653 224.957 435.097 222.585 438.088 225.91L467.554 258.668L465.987 290.815" fill="#FFBE8C"/>
<path d="M426.818 223.619L424.611 225.672C421.352 228.704 421.167 233.805 424.2 237.064L440.989 255.458L455.184 242.621L448.765 235.376L438.212 224.03C435.179 220.77 430.078 220.586 426.818 223.619Z" fill="white"/>
<path d="M464.392 298.591L462.987 306.964C462.962 307.225 463.005 307.486 463.117 307.723C463.45 308.43 464.773 310.134 465.258 309.539C465.896 308.757 466.984 299.404 466.984 299.404" fill="#FFBE8C"/>
<path d="M455.415 293.853L456.72 296.241C456.951 296.664 457.105 297.125 457.175 297.602L457.732 304.247C457.809 305.167 458.32 306.028 459.149 306.432C459.53 306.618 459.925 306.682 460.234 306.432C461.099 305.731 461.356 297.858 461.356 297.858L460.387 307.879C460.367 308.087 460.403 308.294 460.49 308.483C460.832 309.231 461.759 311.06 462.343 310.344C463.07 309.452 464.312 298.785 464.312 298.785" fill="#FFBE8C"/>
<path d="M466.667 307.622C466.383 307.29 466.164 306.633 466.022 305.862L466.463 300.187L460.917 298.125L455.415 293.852L455.775 288.51C455.775 288.51 461.037 284.904 467.53 292.443C467.978 292.963 468.265 293.605 468.366 294.284L469.221 300.077C469.221 300.194 469.209 300.308 469.183 300.422C468.927 301.555 468.081 307.583 467.79 307.939C467.624 308.143 466.928 307.926 466.667 307.622Z" fill="#FFBE8C"/>
<path d="M457.105 297.268L456.042 295.132C455.815 294.677 455.278 294.431 454.806 294.621C454.275 294.835 453.737 295.307 453.231 295.595L450.854 297.403C450.55 297.634 450.103 297.482 450.015 297.11C449.846 296.394 450.149 294.273 451.513 292.952L455.774 288.511L457.105 297.268Z" fill="#FFBE8C"/>
<path d="M461.548 297.7C461.525 297.673 461.492 297.654 461.453 297.65C461.374 297.642 461.303 297.698 461.295 297.777L460.465 305.57C460.457 305.649 460.515 305.719 460.592 305.728C460.671 305.737 460.742 305.68 460.75 305.601L461.58 297.808C461.586 297.767 461.573 297.729 461.548 297.7Z" fill="#1C2A36"/>
<path d="M464.191 298.566C464.168 298.538 464.134 298.52 464.096 298.516C464.017 298.508 463.946 298.565 463.938 298.643L462.991 307.533C462.982 307.612 463.041 307.684 463.118 307.691C463.197 307.699 463.268 307.643 463.275 307.564L464.222 298.674C464.228 298.633 464.215 298.594 464.191 298.566Z" fill="#1C2A36"/>
<path d="M466.896 299.443C466.873 299.416 466.839 299.397 466.801 299.393C466.722 299.385 466.651 299.442 466.644 299.52L465.935 306.174C465.927 306.254 465.984 306.324 466.062 306.332C466.141 306.34 466.212 306.284 466.22 306.205L466.929 299.551C466.933 299.51 466.92 299.472 466.896 299.443Z" fill="#1C2A36"/>
<path d="M368.242 291.422L364.458 301.498C364.335 301.824 364.291 302.175 364.329 302.522L365.415 312.493C365.521 313.47 366.256 314.262 367.222 314.441C368.236 314.629 369.247 314.096 369.664 313.152L373.093 305.4L378.54 294.761L368.242 291.422Z" fill="#FFBE8C"/>
<path d="M365.855 313.38C365.824 313.396 365.787 313.4 365.751 313.389C365.677 313.367 365.635 313.289 365.657 313.215L367.761 306.106C367.783 306.031 367.863 305.989 367.935 306.012C368.009 306.034 368.051 306.112 368.029 306.186L365.925 313.295C365.913 313.334 365.887 313.363 365.855 313.38Z" fill="#1C2A36"/>
<path d="M365.345 309.171C365.314 309.187 365.277 309.191 365.241 309.18C365.167 309.158 365.125 309.08 365.147 309.006L366.574 303.996C366.596 303.921 366.676 303.88 366.748 303.902C366.822 303.924 366.865 304.002 366.842 304.076L365.416 309.086C365.404 309.125 365.378 309.154 365.345 309.171Z" fill="#1C2A36"/>
<path d="M364.96 305.077C364.929 305.093 364.892 305.097 364.856 305.086C364.782 305.064 364.74 304.986 364.762 304.912L365.882 300.99C365.904 300.915 365.984 300.873 366.056 300.896C366.13 300.918 366.173 300.996 366.15 301.07L365.03 304.992C365.019 305.031 364.993 305.06 364.96 305.077Z" fill="#1C2A36"/>
<path d="M377.345 295.261L377.363 304.999C377.364 305.503 376.791 305.808 376.386 305.507C375.606 304.928 374.552 303.614 373.973 300.648C372.981 295.554 377.345 295.261 377.345 295.261Z" fill="#FFBE8C"/>
<path d="M416.185 200.093C416.199 200.077 416.215 200.068 416.237 200.064C416.263 200.053 416.285 200.032 416.312 200.022C417.156 199.722 418.081 200.42 418.121 200.451C418.164 200.484 418.173 200.547 418.139 200.59C418.106 200.633 418.044 200.642 418 200.608C417.992 200.602 417.269 200.062 416.578 200.167C417.447 200.55 417.319 201.391 417.318 201.401C417.309 201.451 417.265 201.485 417.215 201.483C417.211 201.483 417.207 201.482 417.203 201.482C417.149 201.472 417.113 201.421 417.122 201.367C417.128 201.332 417.246 200.537 416.277 200.268C415.879 200.463 415.588 200.91 415.42 201.623C415.409 201.671 415.365 201.702 415.318 201.7C415.312 201.7 415.306 201.699 415.3 201.698C415.247 201.685 415.214 201.632 415.226 201.579C415.407 200.806 415.734 200.317 416.185 200.093Z" fill="#1C2A36"/>
<path d="M288.254 0.727862C297.564 -0.717138 307.434 7.26286 309.031 15.1119C310.404 21.8609 304.779 26.2049 306.529 34.9169C307.505 39.7779 309.701 40.6419 312.873 46.1449C313.86 47.8569 323.521 65.0439 317.544 75.3729C312.354 84.3409 298.125 87.2699 288.298 81.7169C275.706 74.6009 282.584 52.1319 275.544 33.1279C268.858 15.0849 277.575 2.38586 288.254 0.727862Z" fill="#B87A48"/>
<path d="M281.295 100.297L274.857 94.0809L290.251 65.9499L291.478 55.4059L292.331 48.0819L311.323 41.6279L306.504 69.0969L281.295 100.297Z" fill="#FFBE8C"/>
<path d="M291.478 42.5469L290.812 60.2319H308.059L311.323 41.6279L291.478 42.5469Z" fill="white"/>
<path d="M294.007 38.428L311.324 27.171C321.084 21.788 328.741 23.992 332.119 29.038L350.154 58.554L360.786 66.512L356.745 83.132C351.14 90.83 343.027 96.333 333.802 98.696L315.532 77.461C299.288 72.986 291.622 52.006 291.025 44.652C290.912 43.259 291.15 42.132 291.631 41.096C292.142 39.996 292.991 39.088 294.007 38.428Z" fill="#72442F"/>
<path d="M301.507 14.25L313.069 28.219C314.038 29.725 312.107 34.686 308.836 38.274C306.916 40.379 303.478 39.928 302.117 37.425L296.01 26.197L301.507 14.25Z" fill="#FFBE8C"/>
<path d="M300.708 34.8237L297.962 29.7597L303.279 19.9087L304.362 21.9527C304.362 21.9527 305.502 25.8467 300.708 34.8237Z" fill="#D09164"/>
<path d="M306.049 20.7611L300.682 31.3761C299.682 33.5151 297.689 34.8731 295.509 35.1571C293.803 35.3791 292.09 34.7761 290.724 33.7301L278.881 26.0601L288.957 8.31006L306.049 20.7611Z" fill="#FFBE8C"/>
<path d="M278.881 26.06C279.356 26.924 295.53 20.086 295.997 15.931C296.911 7.78205 304.676 18.062 304.676 18.062C304.676 18.062 302.045 -6.52495 283.027 4.24905C275.698 8.40005 274.911 18.845 278.881 26.06Z" fill="#B87A48"/>
<path d="M300.055 11.2059C302.039 12.1329 302.896 14.4929 301.968 16.4769C301.041 18.4609 298.681 19.3179 296.697 18.3899C294.713 17.4629 293.857 15.1029 294.784 13.1189C295.711 11.1349 298.072 10.2779 300.055 11.2059Z" fill="#FFBE8C"/>
<path d="M297.909 14.487C297.913 14.459 297.924 14.439 297.944 14.419C297.964 14.388 297.973 14.35 297.995 14.32C298.688 13.395 300.182 13.485 300.245 13.489C300.315 13.494 300.369 13.555 300.364 13.626C300.359 13.696 300.298 13.75 300.227 13.745C300.214 13.745 299.051 13.681 298.384 14.287C299.591 14.078 300.055 15.073 300.06 15.085C300.086 15.145 300.063 15.214 300.008 15.246C300.004 15.249 299.999 15.251 299.994 15.253C299.929 15.281 299.854 15.252 299.825 15.187C299.807 15.146 299.365 14.206 298.132 14.609C297.844 15.103 297.849 15.791 298.179 16.677C298.201 16.736 298.176 16.801 298.125 16.832C298.118 16.836 298.111 16.84 298.104 16.842C298.038 16.866 297.964 16.833 297.939 16.767C297.582 15.808 297.584 15.05 297.909 14.487Z" fill="#1C2A36"/>
<path d="M286.167 26.8466C286.479 26.9926 286.614 27.3636 286.468 27.6756C286.322 27.9876 285.951 28.1226 285.639 27.9766C285.327 27.8306 285.192 27.4596 285.338 27.1476C285.484 26.8346 285.855 26.7006 286.167 26.8466Z" fill="#1C2A36"/>
<path d="M292.094 30.1458C292.218 29.4138 292.171 28.5168 291.794 27.4388C291.768 27.3638 291.686 27.3248 291.61 27.3508C291.535 27.3768 291.495 27.4578 291.522 27.5338C292.733 30.9998 290.417 32.4278 290.318 32.4878C290.251 32.5288 290.227 32.6168 290.268 32.6848C290.308 32.7528 290.396 32.7758 290.465 32.7358C290.485 32.7238 291.793 31.9258 292.094 30.1458Z" fill="#1C2A36"/>
<path d="M282.68 28.4067L284.894 32.0967C285.181 32.5747 285.776 32.7677 286.288 32.5487L287.97 31.8327L282.68 28.4067Z" fill="#FFBE8C"/>
<path d="M300.205 17.6956C300.797 18.4426 301.882 18.5686 302.629 17.9766C303.376 17.3846 303.502 16.2996 302.91 15.5526C302.318 14.8056 301.232 14.6796 300.485 15.2716C299.738 15.8636 299.613 16.9486 300.205 17.6956Z" fill="white"/>
<path d="M270.001 132.344C270.117 132.45 270.35 132.385 270.52 132.198C270.691 132.011 270.735 131.774 270.619 131.668C270.503 131.562 270.27 131.627 270.1 131.814C269.929 132.001 269.885 132.238 270.001 132.344Z" fill="#1A1A1A"/>
<path d="M308.64 157.902L306.386 174.165L311.02 176.62L317.732 174.309L315.093 164.155L308.64 157.902Z" fill="#FFBE8C"/>
<path d="M306.386 174.165L297.816 196.592C296.901 198.988 299.809 201.006 301.733 199.31L327.426 176.907C329.311 175.139 315.094 164.154 315.094 164.154L315.089 166.159C315.077 170.856 311.066 174.546 306.386 174.165Z" fill="white"/>
<path d="M297.103 199.452L298.89 201.51C299.296 201.978 300.006 202.028 300.474 201.622L328.624 177.188C329.092 176.781 329.142 176.072 328.736 175.604L326.949 173.546C326.542 173.078 325.833 173.028 325.365 173.434L297.215 197.868C296.747 198.274 296.697 198.983 297.103 199.452Z" fill="#72442F"/>
<path d="M309.685 178.758C309.846 178.621 309.967 178.434 310.022 178.213C310.165 177.646 309.822 177.071 309.255 176.928L305.403 175.956C304.837 175.812 304.26 176.155 304.118 176.724C303.975 177.291 304.318 177.866 304.885 178.009L308.737 178.981C309.083 179.068 309.433 178.973 309.685 178.758Z" fill="#72442F"/>
<path d="M308.366 182.59C308.527 182.453 308.648 182.266 308.703 182.045C308.846 181.478 308.503 180.903 307.936 180.76L304.085 179.788C303.519 179.645 302.942 179.987 302.8 180.555C302.657 181.122 303 181.697 303.567 181.84L307.419 182.812C307.765 182.9 308.114 182.805 308.366 182.59Z" fill="#72442F"/>
<path d="M306.878 186.633C307.039 186.496 307.16 186.309 307.215 186.088C307.359 185.522 307.015 184.946 306.448 184.803L302.595 183.831C302.029 183.688 301.452 184.03 301.31 184.598C301.166 185.164 301.51 185.74 302.077 185.883L305.93 186.855C306.276 186.943 306.625 186.849 306.878 186.633Z" fill="#72442F"/>
<path d="M319.9 153.294L317.247 170.646L322.164 173.339L329.373 170.97L326.705 160.075L319.9 153.294Z" fill="#FFBE8C"/>
<path d="M317.247 170.646L307.749 194.491C306.735 197.038 309.813 199.24 311.895 197.456L339.696 173.893C341.737 172.031 326.704 160.076 326.704 160.076L326.669 162.22C326.588 167.238 322.245 171.123 317.247 170.646Z" fill="white"/>
<path d="M306.895 197.478L308.874 199.824C309.274 200.298 309.982 200.358 310.456 199.958L341.033 174.16C341.507 173.76 341.567 173.051 341.167 172.577L339.188 170.231C338.788 169.757 338.079 169.697 337.605 170.097L307.028 195.895C306.555 196.296 306.495 197.004 306.895 197.478Z" fill="#72442F"/>
<path d="M320.705 175.604C320.879 175.46 321.012 175.262 321.074 175.026C321.235 174.422 320.877 173.802 320.274 173.641L316.171 172.544C315.568 172.382 314.947 172.739 314.786 173.345C314.625 173.949 314.983 174.569 315.587 174.73L319.69 175.827C320.057 175.927 320.432 175.831 320.705 175.604Z" fill="#72442F"/>
<path d="M319.238 179.681C319.412 179.537 319.545 179.339 319.607 179.103C319.768 178.499 319.41 177.879 318.806 177.718L314.703 176.621C314.1 176.46 313.478 176.817 313.318 177.422C313.157 178.026 313.515 178.646 314.118 178.807L318.221 179.904C318.59 180.003 318.965 179.908 319.238 179.681Z" fill="#72442F"/>
<path d="M317.586 183.981C317.76 183.837 317.893 183.639 317.955 183.403C318.117 182.8 317.758 182.179 317.155 182.018L313.051 180.921C312.448 180.76 311.826 181.117 311.666 181.722C311.504 182.325 311.863 182.946 312.466 183.107L316.57 184.204C316.938 184.304 317.313 184.208 317.586 183.981Z" fill="#72442F"/>
<path d="M363.803 105.686C363.803 105.686 360.047 115.115 340.012 117.607C328.545 119.033 309.792 128.855 309.792 128.855C309.792 128.855 320.046 153.049 324.205 165.557L304.854 174.203C306.736 169.8 274.363 123.237 293.228 108.915C306.487 98.8479 360.737 67.4629 360.737 67.4629L363.803 105.686Z" fill="white"/>
<path d="M367.146 107.109C367.146 107.109 364.94 111.426 344.792 112.72C333.26 113.461 318.185 125.542 318.185 125.542C318.185 125.542 328.449 150.066 331.855 162.8L312.834 173.194C314.974 168.911 283.154 117.824 302.838 104.651C316.673 95.3918 356.692 77.8438 356.692 77.8438L367.146 107.109Z" fill="white"/>
<path d="M360.737 67.4629C360.737 67.4629 379.6 93.2489 367.146 107.11L343.435 77.5999L360.737 67.4629Z" fill="white"/>
<path d="M293.822 130.748L310.381 169.597" stroke="#72442F" stroke-width="0.5" stroke-miterlimit="10" stroke-linecap="round"/>
<path d="M286.48 66.5097L241.994 90.1968L264.61 132.672L309.096 108.985L286.48 66.5097Z" fill="#89AAFB"/>
<path d="M285.23 70.427L246.105 91.2593L265.974 128.575L305.099 107.742L285.23 70.427Z" fill="white"/>
<path d="M305.303 107.871L283.44 119.528L286.113 98.21L305.303 107.871Z" fill="#89AAFB"/>
<path d="M291.634 115.159L265.938 128.859L267.511 100.861L291.634 115.159Z" fill="#89AAFB"/>
<path d="M279.693 89.5599C281.093 92.1279 280.146 95.3439 277.578 96.7439C275.01 98.1439 271.794 97.1969 270.394 94.6289C268.994 92.0609 269.941 88.8449 272.509 87.4449C275.077 86.0449 278.293 86.9919 279.693 89.5599Z" fill="#89AAFB"/>
<path d="M302.354 99.5888L296.204 93.0888L312.851 65.6818L315.736 47.9258L333.259 50.1588L328.945 69.5588L302.354 99.5888Z" fill="#FFBE8C"/>
<path d="M298.105 104.276L291.87 109.647C291.689 109.826 291.56 110.047 291.496 110.293C291.306 111.026 291.237 113.116 291.967 112.973C292.927 112.785 299.533 106.488 299.533 106.488" fill="#FFBE8C"/>
<path d="M294.349 95.1821L293.842 97.7711C293.752 98.2301 293.581 98.6681 293.338 99.0671L289.636 104.365C289.124 105.098 288.971 106.056 289.339 106.872C289.508 107.246 289.763 107.539 290.148 107.544C291.227 107.557 296.296 101.848 296.296 101.848L289.365 108.717C289.221 108.859 289.12 109.036 289.067 109.231C288.859 110.001 288.416 111.938 289.296 111.766C290.39 111.552 297.925 104.369 297.925 104.369" fill="#FFBE8C"/>
<path d="M294.205 112.418C294.199 111.994 294.443 111.369 294.815 110.707L298.66 106.75L295.803 101.777L294.349 95.1829L297.394 91.7119C297.394 91.7119 304.084 91.9969 304.253 101.64C304.265 102.305 304.081 102.962 303.736 103.53L300.784 108.378C300.712 108.465 300.632 108.543 300.542 108.611C299.65 109.297 295.283 113.266 294.846 113.352C294.596 113.399 294.211 112.806 294.205 112.418Z" fill="#FFBE8C"/>
<path d="M293.493 98.7758L294.024 96.5248C294.137 96.0458 293.889 95.5288 293.42 95.3778C292.892 95.2088 292.198 95.2268 291.642 95.1278L288.751 95.0028C288.381 94.9868 288.143 94.5958 288.308 94.2648C288.626 93.6258 290.166 92.2328 292.001 92.0938L297.929 91.4238L293.493 98.7758Z" fill="#FFBE8C"/>
<path d="M296.537 101.85C296.537 101.815 296.524 101.781 296.497 101.754C296.443 101.699 296.355 101.697 296.301 101.751L290.854 107.045C290.799 107.098 290.799 107.187 290.851 107.241C290.904 107.296 290.993 107.297 291.047 107.244L296.494 101.949C296.523 101.923 296.537 101.887 296.537 101.85Z" fill="#1C2A36"/>
<path d="M297.97 104.133C297.97 104.098 297.957 104.063 297.93 104.037C297.876 103.982 297.788 103.981 297.734 104.034L291.52 110.074C291.464 110.127 291.464 110.217 291.517 110.27C291.571 110.325 291.659 110.327 291.713 110.273L297.927 104.233C297.957 104.206 297.971 104.169 297.97 104.133Z" fill="#1C2A36"/>
<path d="M299.443 106.463C299.443 106.428 299.43 106.393 299.403 106.367C299.35 106.312 299.261 106.31 299.207 106.364L294.556 110.885C294.5 110.939 294.5 111.027 294.553 111.081C294.606 111.136 294.695 111.138 294.749 111.084L299.4 106.563C299.429 106.536 299.443 106.499 299.443 106.463Z" fill="#1C2A36"/>
<path d="M247.486 101.857L252.496 99.2048C252.899 99.0278 253.247 98.7498 253.502 98.3918C254.265 97.3238 255.713 95.0588 254.442 94.8348C252.772 94.5408 245.556 98.0668 245.556 98.0668" fill="#FFBE8C"/>
<path d="M247.568 105.497L252.578 102.845C252.981 102.668 253.328 102.39 253.584 102.032C254.347 100.964 255.795 98.6989 254.524 98.4749C252.854 98.1809 246.632 101.03 246.632 101.03" fill="#FFBE8C"/>
<path d="M247.651 109.137L252.661 106.485C253.064 106.308 253.411 106.03 253.667 105.672C254.43 104.604 255.878 102.339 254.607 102.115C252.937 101.821 246.715 104.67 246.715 104.67" fill="#FFBE8C"/>
<path d="M249.715 108.111C249.715 108.111 253.021 105.461 254.69 105.755C255.961 105.979 254.513 108.244 253.75 109.312C253.494 109.67 253.146 109.948 252.743 110.125L249.94 111.609C248.606 112.315 246.938 111.932 246.089 110.684C244.665 108.59 242.852 105.113 242.985 101.121C243.203 94.606 243.533 93.104 243.533 93.104L245.517 96.822C246.936 99.723 249.715 108.111 249.715 108.111Z" fill="#FFBE8C"/>
<path d="M253.197 98.4319C253.164 98.4299 253.129 98.4379 253.099 98.4579L249.409 100.951C249.337 100.999 249.319 101.096 249.367 101.167C249.414 101.239 249.512 101.258 249.583 101.209L253.273 98.7159C253.345 98.6679 253.363 98.5709 253.315 98.4999C253.288 98.4589 253.243 98.4349 253.197 98.4319Z" fill="#1C2A36"/>
<path d="M253.516 102.188C253.483 102.186 253.447 102.195 253.417 102.214L249.727 104.707C249.655 104.755 249.637 104.852 249.685 104.923C249.732 104.995 249.83 105.014 249.901 104.965L253.591 102.472C253.663 102.424 253.681 102.327 253.633 102.256C253.606 102.215 253.562 102.191 253.516 102.188Z" fill="#1C2A36"/>
<path d="M253.59 105.728C253.557 105.724 253.522 105.732 253.492 105.751L249.715 108.111C249.642 108.157 249.62 108.253 249.665 108.325C249.709 108.399 249.807 108.421 249.88 108.375L253.656 106.015C253.729 105.969 253.752 105.873 253.706 105.801C253.68 105.758 253.636 105.733 253.59 105.728Z" fill="#1C2A36"/>
<path d="M315.899 47.9259C315.884 47.9259 315.867 47.9249 315.852 47.9219C315.687 47.8949 315.574 47.7399 315.6 47.5749L317.638 34.8509C317.664 34.6869 317.824 34.5759 317.984 34.5999C318.15 34.6269 318.262 34.7819 318.236 34.9469L316.198 47.6709C316.174 47.8209 316.046 47.9259 315.899 47.9259Z" fill="white"/>
</svg>
