<svg width="50" height="50" viewBox="0 0 50 50" fill="none" xmlns="http://www.w3.org/2000/svg">
<circle cx="25" cy="25" r="25" fill="#F1EDEB"/>
<g clip-path="url(#clip0_2104_12)">
<path d="M25 35.3784C24.8786 35.3784 24.7572 35.347 24.6485 35.2842C24.5304 35.2161 21.7239 33.5866 18.8772 31.1314C17.19 29.6763 15.8432 28.233 14.8743 26.8417C13.6205 25.0415 12.9899 23.3098 13.0001 21.6948C13.012 19.8156 13.6851 18.0483 14.8955 16.7185C16.1263 15.3662 17.7689 14.6216 19.5208 14.6216C21.766 14.6216 23.8187 15.8792 25.0001 17.8715C26.1814 15.8793 28.2341 14.6216 30.4793 14.6216C32.1344 14.6216 33.7134 15.2935 34.9258 16.5135C36.2563 17.8524 37.0123 19.7442 36.9999 21.7037C36.9897 23.3159 36.3473 25.0449 35.0908 26.8427C34.1189 28.2333 32.7739 29.6759 31.0933 31.1306C28.257 33.5856 25.4707 35.215 25.3535 35.2832C25.2442 35.3466 25.1221 35.3784 25 35.3784Z" fill="#72442F"/>
</g>
<defs>
<clipPath id="clip0_2104_12">
<rect width="24" height="24" fill="white" transform="translate(13 13)"/>
</clipPath>
</defs>
</svg>
