<svg width="50" height="50" viewBox="0 0 50 50" fill="none" xmlns="http://www.w3.org/2000/svg">
<circle cx="25" cy="25" r="25" fill="#F1EDEB"/>
<path fill-rule="evenodd" clip-rule="evenodd" d="M23.2224 15.0286L26.4112 16.2685L16.8911 19.9703L13.5558 18.6734L22.9296 15.0286C23.0274 14.9905 23.1245 14.9905 23.2224 15.0286ZM33.1519 25.6758C35.8295 25.6758 38 27.8465 38 30.5241C38 33.2016 35.8294 35.3722 33.1519 35.3722C30.4744 35.3722 28.3036 33.2016 28.3036 30.5241C28.3036 27.8465 30.4743 25.6758 33.1519 25.6758ZM34.9876 28.3131L32.1157 31.1851L31.1357 29.9517C30.8946 29.6484 30.4532 29.598 30.15 29.8391C29.8467 30.0802 29.7963 30.5215 30.0374 30.8248L31.4797 32.6397C31.7291 32.997 32.2426 33.0459 32.5534 32.7351L35.9814 29.307C36.256 29.0325 36.256 28.5876 35.9814 28.3131C35.707 28.0387 35.2621 28.0387 34.9876 28.3131ZM29.8162 17.5925C26.6429 18.8265 23.4695 20.0605 20.296 21.2943L23.076 22.3752L32.5962 18.6734L29.8162 17.5925ZM33.1519 19.3215L23.48 23.0822V34.2848L27.879 32.5744C27.6316 31.9387 27.4957 31.2473 27.4957 30.5241C27.4957 27.4002 30.028 24.8678 33.1519 24.8678V19.3215ZM22.6719 34.2848V23.0822L19.7405 21.9424V24.308C19.7405 24.4223 19.6069 24.4841 19.5199 24.4099L17.9641 23.0849L16.5091 23.5373C16.4225 23.5643 16.3355 23.5003 16.3355 23.4096V20.6184L13 19.3215V30.2476C13 30.4176 13.0992 30.5626 13.2578 30.6243L22.6719 34.2848Z" fill="#72442F"/>
</svg>
