<svg width="128" height="128" viewBox="0 0 128 128" fill="none" xmlns="http://www.w3.org/2000/svg">
<path d="M119.61 31.8309C118.273 26.8138 114.355 22.8591 109.386 21.5081C100.309 19 63.9989 19 63.9989 19C63.9989 19 27.6897 19 18.6122 21.4125C13.7394 22.7626 9.72588 26.8147 8.38863 31.8309C6 40.9949 6 60 6 60C6 60 6 79.1007 8.38863 88.1691C9.72676 93.1853 13.6438 97.1409 18.6131 98.4919C27.7853 101 63.9998 101 63.9998 101C63.9998 101 100.309 101 109.386 98.5875C114.356 97.2374 118.273 93.2818 119.611 88.2656C122 79.1007 122 60.0965 122 60.0965C122 60.0965 122.095 40.9949 119.61 31.8309Z" fill="#FF0000"/>
<path d="M52 74L77 60L52 46V74Z" fill="white"/>
</svg>
